<?xml version="1.0" encoding="UTF-8" standalone="no"?>
<!-- Created with Inkscape (http://www.inkscape.org/) -->

<svg
   version="1.1"
   id="svg1"
   width="981.12"
   height="977.59998"
   viewBox="0 0 981.12 977.59998"
   xmlns="http://www.w3.org/2000/svg"
   xmlns:svg="http://www.w3.org/2000/svg">
  <defs
     id="defs1" />
  <g
     id="g1">
    <path
       style="fill:#000000"
       d="m 85.364589,974.36295 c -4.96599,-0.5103 -13.01909,-2.2386 -18.4,-3.949 -4.35136,-1.3831 -12.58746,-5.4691 -17.44,-8.6521 -8.77943,-5.7589 -15.29634,-12.1172 -21.19108,-20.6753 -8.56156,-12.4299 -12.47704,-24.0405 -13.6874,-40.58724 -0.25287,-3.45705 -0.3226,-117.1157 -0.24921,-406.23999 l 0.10189,-401.439993 0.70585,-4.8 c 1.91569,-13.02719 5.84406,-23.28758 12.98687,-33.92 4.7846,-7.12209 12.90737,-15.23154 20.02425,-19.9914 10.97954,-7.34326 21.50583,-11.32555 34.21819,-12.94537 3.57317,-0.45529 42.548071,-0.50323 409.170641,-0.50323 366.51431,0 405.59851,0.048 409.17061,0.50292 12.555,1.59877 23.4877,5.74391 34.2757,12.99563 7.0823,4.76078 14.695,12.36957 19.7916,19.78145 8.4343,12.26568 12.526,24.43843 13.7141,40.8 0.4509,6.208303 0.4535,799.584583 0,805.599983 -1.0153,13.54794 -4.1773,24.88854 -9.4916,34.04244 -8.7351,15.046 -19.1808,24.936 -34.1724,32.3543 -6.5735,3.2528 -12.4746,5.1227 -22.0415,6.9845 l -3.5691,0.6945 -406.40005,0.031 c -223.52,0.017 -406.904001,-0.02 -407.520001,-0.084 z M 899.6046,948.73925 c 8.3645,-1.6393 14.8165,-4.2406 21.12,-8.5149 3.8508,-2.6113 10.9337,-9.6888 13.4952,-13.485 4.56,-6.7582 7.5328,-14.37701 8.8027,-22.56004 0.6297,-4.05814 0.6273,-809.007683 0,-813.279983 -1.3835,-9.38197 -5.2233,-18.24256 -11.0252,-25.44 -3.9749,-4.93104 -6.8888,-7.57631 -12.2678,-11.13665 -6.2414,-4.13114 -13.1919,-6.7686 -21.4029,-8.12153 -3.8269,-0.63057 -809.647171,-0.62679 -813.440011,0.004 -15.93238,2.64893 -28.00091,10.36647 -36.86512,23.57437 -3.63478,5.41591 -6.76616,13.7412 -7.82349,20.8 -0.63806,4.25977 -0.64483,809.432023 -0.007,813.759983 1.92342,13.04794 8.81479,25.29894 18.61546,33.09334 3.64937,2.9023 6.04039,4.4792 9.19751,6.0658 7.01939,3.5276 13.239,5.2521 20.88249,5.7899 1.848,0.1301 184.224001,0.2149 405.280001,0.1886 l 401.91996,-0.048 z M 377.84459,802.21262 c -0.616,-0.0573 -3.136,-0.25653 -5.6,-0.44263 -21.18751,-1.60022 -46.79821,-9.55119 -66.4,-20.6142 -14.38759,-8.12018 -24.10152,-15.42697 -35.96488,-27.05269 -11.67729,-11.44337 -18.73187,-20.4608 -27.36494,-34.97888 -6.05911,-10.1895 -14.32036,-28.88521 -15.40372,-34.85954 -0.6533,-3.60275 0.2433,-7.5804 2.44674,-10.85471 0.60711,-0.90216 1.03436,-1.70977 0.94943,-1.79469 -0.0849,-0.0849 -1.3911,-0.4071 -2.90263,-0.71597 -1.51153,-0.30886 -2.83311,-0.64644 -2.93684,-0.75017 -0.10373,-0.10373 3.07062,-15.92559 7.05412,-35.15969 3.9835,-19.23409 7.24272,-35.23161 7.24272,-35.55003 0,-0.31842 -1.12385,-1.9742 -2.49745,-3.67952 -2.62647,-3.26075 -9.55843,-12.83544 -9.81589,-13.55807 -0.0893,-0.25073 0.65483,-0.97547 1.83026,-1.78251 l 1.98079,-1.36 h -2.42258 -2.42258 l -0.204,-2.16 c -0.38612,-4.08832 -0.20603,-34.67126 0.26333,-44.72 1.43107,-30.63846 5.55413,-62.39611 11.65344,-89.76 0.68652,-3.08 1.22717,-5.62279 1.20145,-5.65063 -0.0257,-0.0279 -8.90277,-3.10026 -19.72677,-6.82758 -16.04774,-5.52614 -71.27977,-25.14391 -71.60916,-25.43472 -0.049,-0.0433 0.33317,-1.17551 0.84936,-2.51603 l 0.93852,-2.43731 -2.04055,-1.65559 c -2.02232,-1.6408 -2.03563,-1.66221 -1.48936,-2.39481 0.30315,-0.40656 6.31119,-7.7286 13.35119,-16.27119 l 12.8,-15.53198 1.28,0.14182 c 0.704,0.078 5.81384,0.18596 11.3552,0.23992 l 10.07521,0.0981 9.01522,-12.32 c 7.63675,-10.43622 9.14971,-12.68697 9.89484,-14.72 1.20883,-3.29825 3.75457,-8.33575 5.57572,-11.03324 1.7762,-2.63091 5.13847,-6.76112 6.2764,-7.70992 0.75476,-0.62931 0.77584,-0.73615 0.41294,-2.09297 -0.35907,-1.34253 -0.26215,-1.88598 1.588,-8.9036 l 1.97042,-7.47379 1.77918,-2.02651 c 2.06902,-2.35665 2.35962,-2.57435 6.97623,-5.22624 4.97517,-2.85785 6.93852,-3.45751 14.60064,-4.45936 5.60661,-0.73309 7.13385,-0.82292 10.50855,-0.6181 l 3.94855,0.23965 4.85145,-2.33014 c 14.05128,-6.74879 30.94983,-18.04242 44.05145,-29.44045 9.95694,-8.66226 22.51771,-22.18731 30.12854,-32.44148 1.72928,-2.32989 4.6805,-6.54189 6.55827,-9.36 1.87777,-2.81812 3.52963,-5.12385 3.67079,-5.12385 0.14117,0 1.16246,0.57464 2.26954,1.27696 1.92673,1.22232 2.12583,1.27709 4.65286,1.28 l 2.64,0.003 v 2.4 c 0,1.32 0.0917,2.4 0.20382,2.4 0.11211,0 1.22811,-0.90926 2.48,-2.02058 12.96636,-11.51037 29.27032,-22.7382 44.42343,-30.59248 23.96331,-12.42085 49.5022,-19.89555 77.73575,-22.75162 8.19716,-0.82921 25.44828,-0.91322 35.317,-0.17199 27.48917,2.0647 51.79066,8.65592 77.6,21.04721 13.55401,6.50741 30.01035,17.06743 43.11478,27.66672 13.14771,10.6343 24.39503,22.80888 34.70099,37.56183 3.81186,5.45665 3.58233,5.05303 3.16173,5.55982 -0.28257,0.34048 0.46684,1.15074 3.57245,3.86251 7.81824,6.82675 18.44854,17.73755 25.40813,26.07858 11.85115,14.20353 23.98836,33.66789 31.77489,50.95716 12.66469,28.12076 19.82446,61.05796 19.86015,91.36284 l 0.007,5.84 -2.64,0.0644 -2.64,0.0644 2.48121,0.10908 2.48121,0.10908 -0.16584,1.66652 c -0.0912,0.91659 -0.3834,5.33852 -0.64931,9.82652 -1.8221,30.75288 -6.93937,68.47645 -14.0612,103.65671 -1.15535,5.70719 -1.98937,10.47677 -1.85336,10.59905 0.13601,0.12228 2.47929,1.62917 5.20729,3.34864 2.728,1.71947 5.0155,3.1734 5.08334,3.23096 0.0678,0.0576 -0.11216,0.46409 -0.4,0.90339 -0.7317,1.11673 -0.66095,1.22884 0.42208,0.66878 l 0.94542,-0.48889 1.85458,2.91862 c 5.81482,9.15103 15.25965,23.00174 19.25655,28.23947 22.96989,30.10084 47.58421,54.55854 76.38232,75.89631 3.5067,2.59821 6.5115,4.84519 6.6775,4.99329 0.1831,0.16333 0.015,0.65773 -0.4282,1.25662 -0.4015,0.54305 -0.6813,1.02972 -0.6218,1.0815 0.059,0.0518 0.5755,0.3318 1.1466,0.62225 l 1.0385,0.5281 -2.2018,4.39513 c -3.9914,7.96767 -9.99224,17.42903 -16.687,26.31006 -12.04521,15.97876 -27.95647,30.36791 -46.54809,42.09519 -5.58182,3.52092 -19.05686,10.37742 -24.8,12.61897 -18.35567,7.16424 -34.42121,10.84934 -53.12,12.18462 -7.91554,0.56525 -24.34434,0.24356 -31.06979,-0.60837 -18.48136,-2.34107 -31.75205,-5.81043 -47.29276,-12.36374 -8.03754,-3.38932 -20.38559,-9.85013 -25.49964,-13.34203 -1.2442,-0.84955 -2.51153,-1.54464 -2.81628,-1.54464 -0.30475,0 -2.54776,0.50207 -4.98448,1.11571 -5.73902,1.44525 -12.23,2.58063 -19.21705,3.36137 -5.46202,0.61033 -15.3752,1.37439 -15.55099,1.1986 -0.0484,-0.0484 -0.20652,-1.16521 -0.35141,-2.48183 l -0.26342,-2.39385 -1.05671,1.83324 c -0.58119,1.00828 -1.19456,1.91844 -1.36305,2.02257 -0.67548,0.41747 -13.69913,-8.36074 -19.39233,-13.07084 -1.42597,-1.17973 -2.72067,-2.14497 -2.87711,-2.14497 -0.15644,0 -1.24429,1.63622 -2.41745,3.63604 l -2.133,3.63604 -5.28577,4.12396 -5.28577,4.12396 -0.0115,2.41277 c -0.0214,4.48345 -1.29334,7.87583 -4.08277,10.88875 -2.07261,2.23867 -5.58344,4.14547 -8.81557,4.78791 -2.08728,0.41489 -2.14381,0.45403 -4.45363,3.08312 -1.28674,1.4646 -2.47424,2.66393 -2.6389,2.66518 -0.16465,0.001 -0.63453,-0.31259 -1.04416,-0.69742 l -0.74479,-0.69969 0.36116,1.03603 c 0.19864,0.56981 0.27915,1.11803 0.17892,1.21827 -0.41286,0.41285 -4.09748,1.05834 -7.09175,1.24237 -2.54532,0.15643 -4.08382,0.482 -7.52,1.59137 -8.58014,2.77009 -16.05298,4.38793 -25.28,5.47302 -5.08369,0.59783 -19.74021,0.73955 -23.84,0.23051 l -2.24,-0.27813 -2.06981,2.05501 c -3.60557,3.57977 -9.17529,6.6227 -13.58681,7.42295 -0.89286,0.16197 -4.50338,0.86452 -8.02338,1.56123 -13.51954,2.6759 -22.26672,3.54439 -35.00483,3.47554 -5.21135,-0.0282 -9.97917,-0.0981 -10.59517,-0.15548 z m 25.76,-5.68806 c 5.5311,-0.593 13.43173,-1.81622 18.684,-2.89276 2.18021,-0.44687 4.02085,-0.81249 4.09032,-0.81249 0.0695,0 0.25653,0.324 0.41571,0.72 0.28635,0.71242 0.28961,0.71144 0.30968,-0.0932 0.0191,-0.76561 0.18418,-0.84417 2.82139,-1.34271 4.793,-0.90608 8.20151,-2.82506 12.03098,-6.77339 2.43273,-2.50825 4.75686,-7.04785 5.50922,-10.76087 0.69175,-3.41393 0.47915,-8.1928 -0.50325,-11.31197 -2.08402,-6.61689 -7.86876,-12.44478 -14.65945,-14.76879 -1.60393,-0.54892 -3.73867,-0.86107 -8.5386,-1.24856 -30.3836,-2.45283 -53.99904,-7.36091 -81.44,-16.92599 -15.50884,-5.4059 -34.61134,-14.07498 -48.94636,-22.21279 -14.80595,-8.40514 -32.58705,-20.67908 -44.96263,-31.0368 l -5.13101,-4.29439 -2.4,0.11619 c -1.43987,0.0697 -2.87104,0.34594 -3.57742,0.69048 -1.75016,0.85363 -3.45104,2.66024 -4.34695,4.61716 -1.21688,2.65802 -0.93649,5.05982 1.29652,11.10562 6.89721,18.67397 16.58726,35.3162 29.15941,50.08 10.58885,12.43476 22.49921,22.83835 36.77293,32.12082 16.03074,10.4251 35.04851,18.1627 55.09551,22.41625 7.68461,1.63052 16.11719,2.62741 27.04,3.19665 4.30216,0.2242 16.96655,-0.12601 21.28,-0.58847 z m 70.24,-14.09333 c 6.59034,-0.85501 14.54534,-2.44064 17.91836,-3.57159 0.29521,-0.099 -0.37867,-0.61219 -1.76,-1.34038 -2.8593,-1.50734 -4.2887,-2.56358 -6.92605,-5.11792 -2.06955,-2.00443 -2.13801,-2.04142 -2.50592,-1.35397 -0.20804,0.38871 -0.44432,0.64068 -0.52508,0.55992 -0.0808,-0.0808 -0.72259,-2.2171 -1.42628,-4.74741 -0.70369,-2.53031 -1.3536,-4.8461 -1.44423,-5.14619 -0.13268,-0.43926 -0.32102,-0.48622 -0.96628,-0.24089 -1.56786,0.5961 -7.04899,1.85326 -9.88452,2.26714 -1.584,0.2312 -5.29507,0.40708 -8.24682,0.39084 l -5.36681,-0.0295 0.24681,1.15902 c 0.4165,1.95584 0.22685,8.05672 -0.33499,10.7768 -0.29285,1.41777 -0.89374,3.46691 -1.33532,4.55364 -0.44158,1.08673 -0.80287,2.04246 -0.80287,2.12383 0,0.64727 17.85643,0.43069 23.36,-0.28332 z m 36.21762,-7.50466 c 0.7596,-0.23542 1.6472,-0.92585 2.50049,-1.94501 l 1.32287,-1.58002 -11.53876,-5.77111 c -6.34632,-3.17412 -11.66849,-5.77112 -11.82705,-5.77112 -0.15856,0 -1.5499,1.44863 -3.09187,3.21917 l -2.80357,3.21917 1.73013,1.76215 c 3.13211,3.19005 7.37928,5.62866 11.97014,6.87294 1.81352,0.49152 3.03203,0.58348 6.4,0.48297 2.288,-0.0683 4.68993,-0.2884 5.33762,-0.48914 z m 209.16982,-2.27699 c 20.30637,-1.06407 40.7066,-6.25778 60.82056,-15.48436 20.97692,-9.62243 41.19941,-25.14645 56.41554,-43.30802 7.37106,-8.79789 15.94722,-21.56552 20.25367,-30.15233 l 1.703,-3.39562 -60.53012,-27.85776 c -33.29155,-15.32177 -60.62298,-27.771 -60.73651,-27.66497 -0.11352,0.10604 -0.41941,6.52879 -0.67974,14.27279 l -0.47333,14.08 -1.64137,4.08804 c -2.15992,5.37953 -4.31102,9.62298 -7.1237,14.05282 -10.83178,17.05953 -21.79584,27.54371 -38.21642,36.54378 -2.75508,1.51005 -4.56383,2.81734 -7.41175,5.35688 -12.50099,11.14741 -27.84045,21.22936 -41.58059,27.32909 -4.46717,1.98313 -13.29507,5.48193 -16.10668,6.38362 -0.968,0.31044 -1.87889,0.67283 -2.0242,0.8053 -0.60351,0.55021 13.78861,8.23816 21.7042,11.5939 24.62556,10.43978 49.03271,14.75042 75.62744,13.35684 z m -196.30859,-5.6991 c 3.23086,-1.42916 5.78741,-5.01509 6.1674,-8.65065 0.16539,-1.58232 0.10092,-1.97264 -0.40952,-2.47925 -0.3332,-0.3307 -5.75972,-3.46818 -12.05893,-6.97219 -9.77107,-5.43527 -11.51639,-6.3047 -11.884,-5.92 -0.237,0.24801 -2.76421,3.17897 -5.61603,6.51326 l -5.18513,6.06233 12.27368,6.1795 c 11.72643,5.90398 12.34144,6.17296 13.79336,6.03278 0.83583,-0.0807 2.14945,-0.4253 2.91917,-0.76578 z m -29.71399,-18.93117 c 5.7715,-6.776 10.5105,-12.34703 10.53112,-12.38007 0.0206,-0.033 6.01046,3.26322 13.31076,7.32502 7.30029,4.06181 13.48926,7.44006 13.75326,7.50724 0.264,0.0672 2.64,-1.58092 5.28,-3.66245 l 4.8,-3.78459 2.14127,-3.68833 2.14128,-3.68833 -7.53618,-7.58446 c -6.56755,-6.60963 -7.603,-7.53174 -8.05611,-7.17424 -0.28596,0.22561 -4.32408,3.77147 -8.97361,7.87967 l -8.45369,7.46945 -0.45132,-1.06945 c -3.18533,-7.54791 -5.52678,-13.31463 -5.50664,-13.56218 0.0138,-0.169 3.24638,-3.18728 7.18361,-6.70728 3.93723,-3.52 7.1614,-6.544 7.16483,-6.72 0.003,-0.176 -0.79014,-1.4428 -1.76346,-2.81512 l -1.76967,-2.49512 -1.09402,0.89512 c -0.60172,0.49232 -4.10111,3.41512 -7.77643,6.49512 l -6.68241,5.6 -0.20094,1.6 c -0.11052,0.88 -0.2022,3.004 -0.20373,4.72 l -0.003,3.12 h -1.32316 -1.32315 l 0.84315,0.66323 c 0.46374,0.36477 0.84316,0.80301 0.84316,0.97386 0,0.17086 -4.363,5.88441 -9.69554,12.69678 -5.33255,6.81237 -9.7966,12.55247 -9.92012,12.75577 -0.24604,0.40495 1.73449,8.15741 2.05128,8.02941 0.10759,-0.0435 4.91775,-5.62305 10.68924,-12.39905 z m -27.04486,10.27252 c 3.53611,-0.61815 8.18254,-1.79202 8.93571,-2.25751 0.37668,-0.2328 0.35984,-0.58016 -0.10919,-2.25175 -0.30501,-1.08707 -0.47949,-2.17213 -0.38773,-2.41126 0.0918,-0.23912 4.8143,-6.37727 10.49453,-13.64034 11.7652,-15.04364 10.72631,-13.06671 10.82098,-20.59166 l 0.0483,-3.84 8.81898,-7.35881 c 4.85044,-4.04735 8.88328,-7.52637 8.96186,-7.73116 0.0786,-0.20479 -0.4722,-1.34626 -1.22397,-2.5366 -1.25824,-1.99228 -1.32144,-2.19164 -0.79545,-2.50884 0.31427,-0.18952 0.81093,-0.53634 1.10369,-0.77071 0.48018,-0.38441 0.46963,-0.40367 -0.10772,-0.19674 -1.52687,0.54724 -1.84483,0.36195 -2.50043,-1.45714 -0.6657,-1.84709 -1.1421,-8.43076 -0.72912,-10.07618 0.18843,-0.7508 0.32089,-0.81283 1.39885,-0.65513 l 1.1907,0.1742 -1.12,-0.43644 c -0.81422,-0.31728 -1.09131,-0.60162 -1.0149,-1.04144 0.0578,-0.33275 9.02587,-27.45609 19.92902,-60.27408 l 19.82393,-59.66908 -0.66349,-4.97092 c -0.7194,-5.38982 -1.37476,-7.69708 -3.0822,-10.85115 -2.91384,-5.38256 -8.18838,-10.4752 -13.72828,-13.25483 -2.56011,-1.28452 -33.04659,-11.69263 -50.06408,-17.09191 -24.17793,-7.67114 -48.58241,-14.99371 -66.24,-19.87534 -31.22139,-8.63148 -90.06803,-26.91916 -142.4,-44.25343 -13.288,-4.40147 -24.31584,-8.05224 -24.50631,-8.11282 -0.4366,-0.13887 -2.45232,9.13224 -4.58943,21.10856 -6.33863,35.52163 -8.88028,65.10956 -8.61764,100.32 l 0.11338,15.2 3.25181,4.64 c 6.81617,9.72596 14.41084,18.68966 24.86593,29.34829 l 4.77533,4.8683 -3.24324,3.48978 c -1.78378,1.91938 -3.43944,3.65262 -3.67924,3.85164 -0.34709,0.28805 -1.81349,-1.03639 -7.18953,-6.49353 -4.98605,-5.06125 -6.79666,-6.71525 -6.91835,-6.31993 -0.38232,1.24193 -12.01429,57.77053 -11.90916,57.87567 0.0635,0.0634 0.95812,-0.10414 1.98814,-0.37243 2.23535,-0.58224 4.31514,-0.62037 6.4874,-0.11895 1.50936,0.3484 1.58166,0.41163 1.30442,1.14083 -0.44203,1.16262 -0.33992,1.29159 0.35864,0.45301 l 0.63086,-0.75731 1.51094,1.23731 c 0.83102,0.68052 3.02634,2.5206 4.8785,4.08905 7.45478,6.31293 21.47343,16.37947 31.33807,22.50332 27.22822,16.90295 55.37009,28.94972 86.10948,36.86113 16.66294,4.28855 36.94201,7.6108 53.04,8.68937 4.94555,0.33135 5.84568,0.46963 5.87712,0.90286 0.0329,0.45357 0.053,0.45202 0.17677,-0.0137 0.12695,-0.47748 0.30543,-0.48371 1.96288,-0.0685 7.09258,1.77692 12.56422,5.41516 16.68323,11.09314 0.74189,1.02268 1.55171,2.34484 1.79959,2.93812 0.56936,1.36266 0.68406,1.42706 3.10141,1.74138 3.63572,0.47273 9.49567,0.353 13.039,-0.26641 z m 121.17977,-14.12784 c 9.55277,-1.03994 23.30875,-3.88357 28.90023,-5.97424 0.264,-0.0987 -3.87205,-1.05944 -9.19123,-2.13495 l -9.67122,-1.95549 -24.32565,-22.88 -24.32565,-22.88 -0.003,-6.01226 -0.003,-6.01227 10.58234,-34.14773 c 8.07967,-26.07193 24.74569,-78.90841 31.5332,-99.97007 0.3437,-1.0665 0.61765,-1.45112 0.94431,-1.32577 0.29798,0.11435 0.46109,-0.0328 0.46282,-0.41766 0.002,-0.48615 1.18084,-0.99576 6.48,-2.80171 3.56253,-1.21411 10.00533,-3.61265 14.31733,-5.33008 25.01829,-9.96456 46.31293,-20.88778 66.74358,-34.23654 4.28196,-2.7977 8.89596,-5.48175 12.64,-7.35293 15.9193,-7.95608 29.89227,-16.85334 41.89642,-26.67746 6.06891,-4.96677 13.8203,-11.83843 16.56,-14.68056 l 2.32,-2.40674 v -2.45001 c 0,-1.88351 -0.0925,-2.39068 -0.4,-2.19343 -0.22,0.14112 -3.208,2.11501 -6.64,4.38642 -26.1948,17.33658 -55.87766,31.72015 -84.96,41.16949 -16.1175,5.23684 -31.30053,9.14341 -39.75553,10.22902 -11.79753,1.51478 -26.43696,0.44689 -37.48376,-2.73431 -7.58181,-2.18337 -42.5719,-16.72056 -64.36071,-26.73969 -35.09703,-16.13862 -78.15168,-39.2937 -105.96645,-56.98945 l -5.96645,-3.79585 -6.19355,-1.2534 c -7.86712,-1.59207 -20.1849,-4.54563 -29.23355,-7.00962 -4.63261,-1.26149 -18.85809,-5.98549 -41.6,-13.81456 -32.17892,-11.07783 -110.58905,-37.43282 -111.36836,-37.43282 -0.32441,0 -12.75645,17.039 -13.11636,17.9769 -0.12278,0.31998 2.69907,1.32711 10.95968,3.91152 103.67371,32.43543 210.56565,74.60282 311.60504,122.92389 9.152,4.37685 16.7281,8.08491 16.83577,8.24013 0.10768,0.15522 0.32368,0.27682 0.48,0.27023 0.60564,-0.0256 4.89498,3.21218 7.54957,5.69867 6.35296,5.95065 10.35641,13.5013 11.9715,22.57866 0.63071,3.5448 0.6477,10.65056 0.0329,13.76 l -0.44289,2.24 -1.25342,-0.0553 -1.25342,-0.0553 1.12,0.41705 c 0.616,0.22937 1.10228,0.54227 1.08063,0.69533 -0.0217,0.15305 -10.15325,30.73428 -22.51465,67.95827 l -22.47529,67.68 0.13952,2.44166 c 0.13529,2.36777 0.21376,2.56819 2.59287,6.62256 11.35974,19.35869 29.92025,38.39692 49.99021,51.27686 l 3.21328,2.06214 2.86672,-0.0925 c 1.57669,-0.0509 5.48561,-0.37759 8.68648,-0.72604 z m 41.94759,-13.94904 c 4.17595,-3.2804 7.6526,-6.01636 7.72589,-6.07992 0.16073,-0.13939 -2.09756,-3.46133 -2.68381,-3.94788 -0.3164,-0.26259 -1.9964,0.98307 -7.09203,5.25849 l -6.67741,5.6026 -3.36,-3.35863 c -1.848,-1.84724 -10.056,-10.23952 -18.24,-18.64951 l -14.88,-15.29089 -12.2018,-8.33684 -12.20179,-8.33684 -3.95821,0.5836 c -2.17701,0.32098 -4.0662,0.58733 -4.1982,0.59189 -0.132,0.005 -0.24,1.94803 -0.24,4.31881 v 4.31052 l 23.72953,22.3012 23.72953,22.30121 10.91047,2.31822 c 6.00076,1.27502 11.16578,2.33174 11.47783,2.34827 0.31205,0.0165 3.98405,-2.6539 8.16,-5.9343 z m 7.91264,-0.041 c 2.53486,-1.11601 9.92395,-5.16631 14.72,-8.06872 6.783,-4.10485 16.09693,-11.03966 22.08,-16.43996 1.76,-1.58857 3.50875,-3.15955 3.88611,-3.49106 0.68111,-0.59836 0.69548,-0.59269 1.97524,0.77929 0.70903,0.76011 1.38196,1.2892 1.49541,1.17576 0.11345,-0.11345 -0.16068,-0.9304 -0.60916,-1.81544 l -0.81543,-1.60917 2.1372,-1.22774 2.1372,-1.22774 8.44647,-18.0449 8.44648,-18.04489 12.77024,-20.24334 12.77024,-20.24334 -10e-4,-2.82667 c -10e-4,-2.66863 1.45934,-24.76605 1.7732,-26.82667 0.14434,-0.94768 0.16986,-0.95918 1.98718,-0.89587 l 1.84096,0.0641 -1.28,-0.43955 c -0.704,-0.24175 -1.54171,-0.45061 -1.86157,-0.46413 -0.39735,-0.0168 -0.53037,-0.20198 -0.41995,-0.58459 2.38056,-8.24897 9.0459,-36.93087 11.74603,-50.54485 l 1.663,-8.38484 -2.01083,-3.45516 c -3.46083,-5.94665 -10.99008,-17.70889 -15.87718,-24.80342 -4.10719,-5.96235 -12.03266,-16.93407 -13.07557,-18.10131 -0.29078,-0.32545 -1.57612,0.25677 -6.25725,2.83432 -3.24022,1.78415 -8.16276,4.38131 -10.93899,5.77147 l -5.04769,2.52756 v 8.10157 8.10157 l 13.89308,23.33654 13.89309,23.33655 1.22691,0.0181 c 1.17762,0.0174 1.35785,0.17934 4.48548,4.03058 l 3.25857,4.01246 -7.25857,7.1949 c -3.99221,3.95719 -7.76211,7.5749 -8.37756,8.03937 l -1.119,0.84448 1.67761,1.69871 1.67761,1.69871 -0.87134,0.87134 c -0.73258,0.73259 -0.7792,0.87135 -0.29274,0.87135 0.54611,0 0.56711,0.37281 0.3741,6.64 -0.11248,3.652 -0.49034,9.232 -0.8397,12.4 -0.61023,5.53364 -0.71855,5.99893 -2.75646,11.83999 l -2.12127,6.08 -3.27591,4.48 c -1.85326,2.53445 -5.14681,6.42877 -7.584,8.9674 l -4.3081,4.4874 -0.85107,3.9926 c -2.01458,9.45087 -7.27994,23.89199 -11.78146,32.3126 -3.21833,6.02025 -7.42032,13.02377 -9.79171,16.32 -8.04563,11.18342 -15.56346,19.4621 -24.85756,27.3733 -1.232,1.04869 -2.312,1.98792 -2.4,2.08718 -0.088,0.0993 -2.392,1.88627 -5.12,3.97112 -2.728,2.08484 -5.176,3.99179 -5.44,4.23765 -0.43725,0.40721 1.74388,-0.4534 6.88,-2.71465 z m -116.08,-9.0117 c 3.036,-2.683 5.52,-4.95313 5.52,-5.04473 0,-0.34139 -2.629,-3.454 -2.83042,-3.35108 -0.73636,0.37624 -11.24958,10.16385 -11.24958,10.47314 0,0.21034 0.37541,1.20245 0.83426,2.2047 l 0.83426,1.82226 0.68574,-0.61306 c 0.37715,-0.33718 3.16974,-2.80824 6.20574,-5.49123 z m 106.17901,0.60131 c 3.61401,-3.00068 6.76307,-5.52951 6.9979,-5.61963 0.26774,-0.10274 1.29466,1.03338 2.75355,3.04634 l 2.32657,3.21019 1.15148,-0.99245 c 9.84414,-8.48453 17.63512,-16.95177 24.78849,-26.94017 10.00626,-13.97193 17.93668,-31.69079 21.79151,-48.68849 0.71197,-3.13941 1.14078,-4.45214 1.433,-4.38691 0.27613,0.0616 0.34501,-0.0945 0.2039,-0.46226 -0.16125,-0.4202 0.91183,-1.68874 4.40986,-5.21308 2.84268,-2.86406 5.66628,-6.098 7.33219,-8.39771 2.63452,-3.63684 2.76396,-3.90154 4.69488,-9.6 1.85692,-5.48005 2.03659,-6.27264 2.7709,-12.22306 0.54624,-4.42638 0.75807,-7.57434 0.696,-10.34289 l -0.0892,-3.97985 -8.48466,7.94288 c -18.62509,17.43582 -41.90188,37.83071 -60.79534,53.26827 -11.69077,9.55235 -23.52949,18.73826 -40.48,31.40927 -6.336,4.73635 -11.52,8.74101 -11.52,8.89925 0,0.2496 33.11619,34.52609 33.35735,34.52609 0.0499,0 3.04765,-2.4551 6.66166,-5.45579 z m 63.42099,-27.41504 c 5.25412,-3.28858 14.92902,-11.97588 19.79872,-17.7777 5.02719,-5.98945 11.08731,-16.06674 13.706,-22.79151 l 1.37072,-3.52 0.20722,-7.36 c 0.11397,-4.048 0.29306,-9.16 0.39799,-11.36 0.16718,-3.50525 0.13316,-3.94063 -0.27499,-3.52 -0.25617,0.264 -5.397,8.36524 -11.42406,18.00274 l -10.9583,17.52275 -6.56679,13.83725 c -9.46124,19.93634 -8.89731,18.6547 -7.93447,18.03273 0.43888,-0.28351 1.19396,-0.76333 1.67796,-1.06626 z m -95.164,-11.50262 c 37.06383,-27.58959 72.78121,-57.45268 103.02969,-86.1425 l 8.58569,-8.14329 -1.2819,-1.2819 -1.28191,-1.28191 -18.33576,14.67081 -18.33575,14.6708 -5.39315,-0.38063 -5.39315,-0.38064 -47.1743,30.48134 c -25.94587,16.76473 -47.13857,30.58202 -47.09488,30.70509 0.0738,0.2079 21.69917,14.95139 21.95542,14.9685 0.0638,0.004 4.8878,-3.54429 10.72,-7.88567 z m -39.41743,-7.95538 c 2.10769,-0.31657 3.65727,-0.73773 4.39789,-1.19528 6.11802,-3.77974 94.01632,-60.82083 94.23764,-61.15497 0.25283,-0.38173 -0.94196,-7.75217 -2.4248,-14.95814 l -0.30397,-1.47719 -6.90059,2.74061 c -6.14082,2.43886 -6.94192,2.68407 -7.27602,2.22717 -0.26068,-0.3565 -0.53277,-0.42539 -0.89017,-0.22538 -0.41429,0.23185 -0.79501,-0.16434 -1.95076,-2.02998 -3.08995,-4.98786 -27.98446,-45.88259 -28.37059,-46.60497 -0.34926,-0.6534 -0.3332,-0.80987 0.10854,-1.05708 0.39855,-0.22304 0.44256,-0.43203 0.19026,-0.90346 -0.39438,-0.73691 -1.22459,-0.28934 11.524,-6.21258 5.192,-2.4123 13.4,-6.30964 18.24,-8.66076 4.84,-2.35111 14.61852,-7.10081 21.73005,-10.55487 9.83285,-4.7758 12.99472,-6.18001 13.2,-5.86222 0.2199,0.34043 0.31939,0.34139 0.53667,0.005 0.20649,-0.3195 1.48079,0.0258 5.644,1.52933 2.95751,1.0681 5.41451,1.9018 5.46,1.85267 0.0455,-0.0491 0.74568,-2.56307 1.55599,-5.58654 l 1.47329,-5.497 v -6.90278 c 0,-3.79653 -0.0911,-6.90278 -0.20252,-6.90278 -0.11138,0 -2.73938,1.63601 -5.84,3.63557 -23.7594,15.32226 -53.75968,29.87747 -79.96479,38.79645 l -6.48731,2.20798 -2.2125,6.88 c -7.77465,24.17607 -21.22115,66.76734 -29.60101,93.75999 -5.38194,17.336 -9.86403,31.772 -9.96018,32.08 -0.21618,0.69249 -0.0669,0.6951 4.08688,0.0712 z m 284.10143,-8.93065 c 0,-0.0767 -1.116,-1.04488 -2.48,-2.15152 -10.82047,-8.77889 -30.94843,-28.18461 -40.93799,-39.46904 -13.9815,-15.7938 -27.5983,-33.88572 -38.36148,-50.96888 l -3.48346,-5.52888 -4.32854,-2.72345 -4.32853,-2.72345 -0.26668,1.21233 c -0.14667,0.66679 -1.82535,7.62034 -3.73041,15.45234 l -3.46374,14.24 -0.87412,12.5688 c -0.48076,6.91284 -0.80689,12.63602 -0.72474,12.71818 0.10508,0.10508 102.14148,47.18879 102.89969,47.48207 0.044,0.017 0.08,-0.0318 0.08,-0.1085 z M 663.90062,607.77932 c -3.07914,-8.83736 -2.722,-8.13461 -4.24001,-8.34296 -0.73481,-0.10086 -1.94802,-0.28136 -2.69602,-0.40111 -1.16362,-0.18629 -1.36,-0.1371 -1.36,0.34069 0,0.30713 0.52083,3.27059 1.15741,6.58547 l 1.15741,6.02705 1.64259,0.11623 c 0.90342,0.0639 2.60668,0.14287 3.78501,0.17543 l 2.14243,0.0592 z m 52.01538,-35.47041 6.07141,-5.98532 -1.94755,-2.35214 c -1.28709,-1.55447 -2.20659,-2.38063 -2.71141,-2.43617 -0.57119,-0.0628 -2.90282,1.5728 -9.24386,6.48461 -6.38533,4.94609 -20.14243,14.99603 -25.62884,18.72255 -0.37878,0.25728 2.48147,6.88989 2.92493,6.78258 1.74095,-0.42128 16.33548,-13.28767 27.26631,-24.03771 l 6.0024,-5.90313 0.9659,0.92539 0.96589,0.92538 -4.7283,4.75626 c -8.19732,8.24581 -18.38146,17.34762 -28.42389,25.4031 -5.27246,4.22929 -15.89169,11.94501 -16.44003,11.94501 -0.18941,0 -0.34437,-0.15431 -0.34437,-0.34291 0,-0.18859 -0.37421,-0.29659 -0.83158,-0.24 -0.77113,0.0954 -0.92064,-0.11094 -2.05723,-2.83948 -2.50425,-6.01182 -2.45747,-5.93029 -3.18067,-5.54325 -0.35779,0.19149 -0.65052,0.51297 -0.65052,0.71441 0,0.20144 0.9522,3.06456 2.11601,6.36249 l 2.11601,5.99624 20.84399,-16.6763 c 18.41461,-14.73267 21.55161,-17.37389 26.9154,-22.66161 z m -46.33582,28.19041 c -0.90275,-2.112 -1.73838,-3.84 -1.85695,-3.84 -0.11858,0 0.52302,1.728 1.42576,3.84 0.90275,2.112 1.73838,3.84 1.85696,3.84 0.11857,0 -0.52302,-1.728 -1.42577,-3.84 z m 4.26441,1.51214 c 0,-0.37438 -2.79866,-7.26987 -3.06753,-7.55795 -0.0646,-0.0692 -0.20206,0.0948 -0.30553,0.36443 -0.20884,0.54423 2.6704,7.60138 3.10128,7.60138 0.14948,0 0.27178,-0.18354 0.27178,-0.40786 z m 6.00965,-4.43866 c 0.1135,-0.56975 -2.56784,-6.75661 -2.98174,-6.88001 -0.16935,-0.0505 -0.58805,0.11977 -0.93045,0.37836 -0.60986,0.4606 -0.60063,0.52391 0.45311,3.10917 2.159,5.29686 1.87296,4.83445 2.66555,4.30908 0.38713,-0.2566 0.74422,-0.66907 0.79353,-0.9166 z m -35.57078,-1.25056 c 8.64324,-3.4099 17.4566,-7.37681 17.29938,-7.7865 -0.0757,-0.19741 -7.59191,-10.62169 -16.70258,-23.16508 -13.26344,-18.26086 -16.67794,-22.77027 -17.13228,-22.62607 -0.31209,0.0991 -4.50402,2.03688 -9.31541,4.30628 -5.86957,2.76852 -8.735,4.28126 -8.70851,4.59747 0.0502,0.59961 28.2885,46.93098 28.60374,46.93098 0.12899,0 2.80903,-1.01569 5.95566,-2.25708 z m 27.6585,-5.88885 c 12.07691,-7.9832 12.84324,-8.6742 3.98263,-3.59117 -2.464,1.41351 -7.50094,4.12049 -11.19319,6.01552 -3.76625,1.933 -6.50547,3.51676 -6.24,3.60784 0.59306,0.20348 1.84672,0.41319 2.81056,0.47016 0.47034,0.0278 4.32353,-2.32699 10.64,-6.50235 z m 9.38239,1.64668 c -0.8177,-1.88141 -1.61309,-3.42075 -1.76754,-3.42075 -0.15445,0 -0.0521,0.54 0.22754,1.2 0.2796,0.66 0.96341,2.31092 1.51958,3.66872 0.55616,1.35779 1.1228,2.35713 1.25918,2.22075 0.13638,-0.13638 -0.42106,-1.7873 -1.23876,-3.66872 z m -2.11976,-11.78436 c 2.684,-1.40719 4.87647,-2.65705 4.87216,-2.77746 -0.0197,-0.5492 -33.70497,-45.64709 -34.02756,-45.5561 -1.44193,0.40667 -19.08456,9.238 -19.01396,9.51777 0.0491,0.19476 7.55135,10.66044 16.67156,23.25707 l 16.58219,22.90296 5.01781,-2.39286 c 2.75979,-1.31607 7.2138,-3.54419 9.8978,-4.95138 z m 13.84717,-7.50613 c 3.25205,-1.86436 6.02865,-3.49938 6.17021,-3.63339 0.32342,-0.30616 -27.55313,-47.37968 -28.0516,-47.36912 -0.72994,0.0155 -17.96578,8.54937 -17.96578,8.89531 0,0.40081 33.44611,45.49694 33.74337,45.49694 0.10503,0 2.85174,-1.52539 6.1038,-3.38974 z m 15.3256,-9.27657 5.79375,-3.74979 -0.66969,-1.15195 c -9.22877,-15.87476 -25.44597,-42.8057 -25.59768,-42.50853 -0.11135,0.21812 -0.61063,2.01778 -1.10951,3.99925 -1.42574,5.66279 -1.99079,5.94948 -7.56706,3.83939 -2.63582,-0.99741 -3.76615,-1.30081 -3.64213,-0.9776 0.65464,1.70596 26.32907,44.55095 26.62906,44.43806 0.20324,-0.0765 2.97671,-1.82645 6.16326,-3.88883 z M 555.44864,533.97618 c -0.68837,-6.25579 -2.7455,-11.32611 -6.52525,-16.08311 -1.56309,-1.96724 -5.05192,-5.09968 -7.08038,-6.35711 -0.70313,-0.43587 -8.40642,-4.22786 -17.11842,-8.42665 -98.62564,-47.53309 -203.92504,-89.03199 -313.5287,-123.56289 l -14.80869,-4.66552 -8.87131,-0.16343 c -4.87921,-0.0899 -9.33111,-0.21937 -9.89309,-0.28772 -0.99392,-0.12089 -1.2752,0.18464 -10.31058,11.19958 -5.10883,6.22813 -9.1712,11.39654 -9.02749,11.48536 0.92488,0.5716 47.85511,17.21288 68.03986,24.12666 67.00095,22.94951 150.88445,49.63904 193.28,61.49663 37.42705,10.46795 65.25309,19.08425 97.28,30.12261 17.77636,6.12678 20.30485,7.14141 24.35215,9.77192 4.85307,3.15422 10.89946,9.53411 13.26915,14.00103 1.08214,2.03985 1.37026,1.22773 0.94275,-2.65736 z m 188.00433,-10.75686 c 0.73115,-3.81577 0.66958,-5.19705 -0.48491,-10.87858 -2.01816,-9.93182 -5.346,-20.70385 -8.64919,-27.99698 -1.86982,-4.12839 -4.93779,-10.3176 -5.66316,-11.42466 l -0.47796,-0.72944 -1.96658,1.43266 c -1.08162,0.78797 -4.45598,3.09466 -7.49857,5.12599 -3.73054,2.49062 -5.45406,3.81995 -5.29267,4.08217 0.13162,0.21386 1.98754,2.69284 4.12427,5.50884 6.21141,8.18607 17.65821,25.32891 23.57471,35.30574 0.86947,1.46616 1.62616,2.61816 1.68153,2.56 0.0554,-0.0582 0.34901,-1.40174 0.65253,-2.98574 z m 3.66643,-22.56 c 2.49133,-17.60086 5.82882,-48.04303 5.32264,-48.54922 -0.11859,-0.11858 -1.18352,0.7235 -2.36653,1.8713 -3.89209,3.77624 -8.80018,8.05273 -14.2269,12.39609 l -5.34527,4.27817 1.64251,3.08183 c 0.90338,1.695 1.74892,3.22583 1.87898,3.40183 0.59935,0.81107 4.88102,11.03513 6.36551,15.2 1.67269,4.69289 4.79604,16.21365 4.8359,17.8377 0.0542,2.20857 0.67539,-0.9143 1.89316,-9.5177 z m -121.70288,-4.56 c -0.0888,-0.22 -0.16141,-0.04 -0.16141,0.4 0,0.44 0.0726,0.62 0.16141,0.4 0.0888,-0.22 0.0888,-0.58 0,-0.8 z m -6.20265,-8.39789 c 2.24694,-0.26284 7.43006,-1.27354 11.51803,-2.24599 33.15531,-7.88704 65.47912,-20.95149 94.47269,-38.18342 8.87221,-5.27308 19.44707,-12.08843 24.8,-15.98325 l 4.32,-3.14327 0.1068,-2.70309 c 0.28322,-7.16751 -1.04945,-22.90168 -2.85452,-33.70199 -5.14846,-30.80498 -15.59871,-57.43425 -32.98062,-84.0411 -12.12579,-18.56118 -28.53633,-36.28769 -46.67691,-50.41996 -18.14831,-14.13828 -36.12102,-24.09686 -59.03475,-32.71082 -14.08555,-5.29517 -36.72076,-10.47682 -51.33527,-11.75166 -3.57614,-0.31195 -16.77696,-0.20303 -21.9028,0.18072 -20.9531,1.56867 -40.43215,6.9009 -59.56193,16.3046 -17.3555,8.53151 -31.51862,18.8071 -44.3414,32.17042 -7.551,7.86932 -10.59865,11.54044 -16.99079,20.4667 -8.16083,11.39612 -16.11911,27.34896 -20.71573,41.52588 l -1.32478,4.08588 2.19343,3.61516 c 3.32717,5.48377 6.53272,9.31982 13.94938,16.69308 11.77084,11.70197 27.05837,23.27303 50.58989,38.29123 3.168,2.02187 7.524,4.79965 9.68,6.17284 2.156,1.3732 3.92,2.6485 3.92,2.83401 0,0.18552 -0.59121,1.24472 -1.31379,2.35378 l -1.31379,2.01648 1.63231,2.07708 1.63231,2.07707 -2.31852,1.54943 c -7.86752,5.25771 -16.55718,8.06657 -24.95852,8.06764 -3.3413,4.3e-4 -3.44125,-0.0202 -3.48358,-0.71956 l -0.0436,-0.72 -0.13868,0.72 c -0.16903,0.87761 -0.36805,0.88492 -5.86082,0.21525 -2.27701,-0.27761 -4.3702,-0.45761 -4.65153,-0.4 -1.09074,0.22337 25.4387,15.27506 44.16509,25.05741 30.77391,16.07579 60.01975,29.51997 91.3731,42.00379 14.53845,5.78872 19.02841,7.12713 27.61386,8.23146 4.57439,0.58839 14.86382,0.59576 19.83542,0.0142 z M 457.52459,401.84304 c 1.496,-0.36366 3.63952,-1.07194 4.76338,-1.57396 l 2.04338,-0.91277 -3.79799,-2.38849 c -8.31705,-5.23047 -24.42619,-16.19979 -30.58018,-20.82322 -15.4066,-11.5748 -23.46788,-18.57805 -30.16429,-26.20528 -7.92651,-9.02831 -11.93081,-15.40322 -15.47723,-24.64 -4.44127,-11.56745 -5.97032,-24.89718 -4.40486,-38.4 1.00631,-8.67987 3.65887,-20.25645 6.544,-28.56 0.35162,-1.012 0.59276,-1.84 0.53585,-1.84 -0.0569,0 -2.34143,2.556 -5.07672,5.68 -8.26105,9.43503 -16.19339,20.03636 -23.36401,31.22531 -4.46119,6.96119 -9.65664,16.4876 -10.32648,18.93469 -0.28906,1.056 -0.59967,3.61978 -0.69026,5.69729 -0.25044,5.74346 0.44104,8.32938 4.27285,15.97902 7.59925,15.17081 17.58838,29.98162 27.98222,41.48907 2.90567,3.21699 3.34283,3.55125 13.41195,10.25515 5.72462,3.81137 12.28039,8.10423 14.56839,9.53967 l 4.16,2.6099 8.96,1.48669 c 19.61924,3.25531 30.36292,3.97281 36.64,2.44693 z m -76.336,-11.22009 c -0.1672,-0.152 -1.42605,-1.02447 -2.79744,-1.93882 l -2.49344,-1.66245 1.21344,-1.6599 1.21344,-1.65989 -1.48666,1.2386 c -0.81766,0.68124 -1.58811,1.23341 -1.71212,1.22705 -0.31031,-0.0159 -5.50945,-5.94218 -9.5372,-10.87102 -8.62137,-10.55011 -17.57156,-24.59298 -23.43141,-36.76392 -4.36465,-9.06539 -4.94111,-11.10904 -5.17697,-18.35328 -0.18607,-5.71514 0.15495,-8.35563 1.64285,-12.72033 0.73867,-2.16685 0.91296,-2.3098 2.26151,-1.85485 0.352,0.11876 0.23264,-0.0198 -0.26524,-0.30789 -0.62873,-0.36382 -0.84312,-0.68572 -0.70185,-1.05384 0.44659,-1.1638 6.2759,-11.12712 9.80508,-16.75863 8.52456,-13.60261 19.58159,-27.86002 30.20201,-38.94378 1.584,-1.6531 2.592,-2.92001 2.24,-2.81535 -0.65438,0.19458 -26.39108,5.97467 -26.60306,5.97467 -0.0643,0 -0.11694,-5.052 -0.11694,-11.22666 0,-6.17467 -0.12432,-11.17867 -0.27626,-11.12 -0.15195,0.0587 -1.2425,1.39188 -2.42347,2.96269 -6.4046,8.51885 -19.39887,22.39196 -28.22941,30.13867 -13.11651,11.50663 -24.69013,19.83363 -37.39086,26.90202 -4.14459,2.3066 -4.69077,2.69938 -4,2.87657 2.04231,0.52387 8.40909,4.21527 11.96795,6.9389 3.32723,2.54636 4.36733,3.58383 7.39205,7.37333 4.09906,5.13548 5.81158,8.5885 6.72361,13.55702 l 0.54381,2.96253 -1.23371,5.44047 -1.23371,5.44048 -4.8,4.74896 -4.8,4.74896 -4.19732,1.82835 c -3.68556,1.60544 -4.7767,1.92343 -8.94926,2.60804 -8.69687,1.42693 -17.72492,0.83889 -26.53342,-1.72825 -4.31141,-1.25652 -11.82082,-4.65062 -15.4151,-6.96731 -3.71012,-2.39136 -9.02003,-7.06815 -10.55436,-9.29593 -0.6473,-0.93986 -1.26099,-1.70624 -1.36373,-1.70307 -0.81515,0.0252 -6.93369,9.90332 -6.40416,10.33927 0.0755,0.0622 15.18535,5.16372 33.57735,11.33672 18.392,6.173 50.36,17.02365 71.04,24.11256 36.59284,12.54368 53.81979,18.02734 52.304,16.64931 z m -97.264,-53.44404 c 1.584,-0.33955 4.104,-1.19172 5.6,-1.89371 2.26238,-1.06161 3.15877,-1.72635 5.328,-3.95111 l 2.608,-2.67477 0.70017,-3.0396 c 0.44308,-1.92353 0.62829,-3.48907 0.50442,-4.26374 -0.60555,-3.78693 -5.17181,-10.03925 -9.96102,-13.63904 -4.30291,-3.23427 -7.53988,-4.82804 -14.21957,-7.00123 -6.28953,-2.04625 -9.48033,-2.62323 -14.4,-2.6039 -3.37338,0.0133 -11.2119,1.03761 -13.04208,1.70437 -1.69437,0.61728 -7.18166,3.86958 -7.93704,4.70427 -0.31389,0.34684 -1.07893,2.76133 -1.74226,5.49862 l -1.18264,4.88025 0.56905,1.9987 c 1.10267,3.87296 6.01727,9.53542 11.43532,13.17545 3.05208,2.05049 9.71628,5.07027 13.49518,6.11514 7.10744,1.96521 15.87558,2.35556 22.24447,0.9903 z m 110.4246,-33.63959 c 5.1003,-11.67352 13.98026,-26.20147 22.66791,-37.08556 21.3109,-26.69878 49.13249,-45.72229 82.84539,-56.64702 10.47536,-3.39456 27.45145,-6.62367 38.7821,-7.37696 5.9667,-0.39668 17.03484,-0.49184 21.92,-0.18847 2.024,0.1257 6.416,0.58356 9.76,1.01748 26.95083,3.49713 54.99225,12.76865 78.68643,26.0166 2.13046,1.19119 4.23357,2.34777 4.67357,2.57018 1.23555,0.62453 -5.05134,-5.63431 -10.4,-10.3536 -8.43524,-7.44267 -13.95446,-11.66866 -20.6358,-15.80054 -16.74533,-10.35565 -32.98456,-16.93057 -53.45066,-21.64103 -18.0856,-4.16257 -40.96955,-5.0351 -59.35354,-2.26306 -17.00631,2.5643 -33.52299,7.37978 -47.04,13.71462 -12.4553,5.83726 -22.37768,11.85942 -32.96,20.00431 -7.34104,5.65017 -16.48205,14.07599 -21.95973,20.24161 l -3.07972,3.4665 -2.48318,6.48247 c -3.26994,8.53635 -6.2412,17.1168 -7.81152,22.55821 -1.63614,5.66945 -3.68926,15.81687 -4.19313,20.72426 -0.53363,5.1973 -0.47266,12.93812 0.13864,17.6 0.27694,2.112 0.51388,3.984 0.52655,4.16 0.0285,0.39677 0.31853,-0.22339 3.36669,-7.2 z m -12.3446,-68.64767 15.2,-3.39886 1.6,-1.67876 c 0.88,-0.92332 3.43723,-3.63906 5.68274,-6.03498 6.45948,-6.89215 15.76084,-14.70849 26.63726,-22.38446 16.35841,-11.54486 36.92578,-20.90753 57.76,-26.29351 5.49652,-1.42093 14.19978,-3.13635 18.17078,-3.58147 1.10593,-0.12396 1.92866,-0.30751 1.82829,-0.40788 -0.3818,-0.3818 -11.45616,0.0121 -17.27907,0.61459 -20.0667,2.0763 -35.26974,5.65156 -54.08,12.71785 -22.62089,8.49779 -45.46836,22.79069 -64.38993,40.28098 -2.15046,1.9878 -4.01701,3.61417 -4.14789,3.61417 -0.13088,0 -0.85239,-0.60301 -1.60336,-1.34004 -0.75097,-0.73702 -1.41946,-1.27702 -1.48552,-1.2 -0.0661,0.077 -0.0507,2.97248 0.0341,6.43434 0.10907,4.4515 0.25938,6.25954 0.51341,6.1756 0.19755,-0.0653 7.19919,-1.64819 15.55919,-3.51757 z"
       id="path1" />
  </g>
</svg>
