<?xml version="1.0" encoding="UTF-8" standalone="no"?>
<!-- Created with Inkscape (http://www.inkscape.org/) -->

<svg
   version="1.1"
   id="svg1"
   width="1365.3333"
   height="1501.3333"
   viewBox="0 0 1365.3333 1501.3333"
   sodipodi:docname="CASC BOMBER RENTADORA_ V01.svg"
   inkscape:version="1.4 (86a8ad7, 2024-10-11)"
   xmlns:inkscape="http://www.inkscape.org/namespaces/inkscape"
   xmlns:sodipodi="http://sodipodi.sourceforge.net/DTD/sodipodi-0.dtd"
   xmlns="http://www.w3.org/2000/svg"
   xmlns:svg="http://www.w3.org/2000/svg">
  <defs
     id="defs1" />
  <sodipodi:namedview
     id="namedview1"
     pagecolor="#ffffff"
     bordercolor="#000000"
     borderopacity="0.25"
     inkscape:showpageshadow="2"
     inkscape:pageopacity="0.0"
     inkscape:pagecheckerboard="0"
     inkscape:deskcolor="#d1d1d1"
     inkscape:zoom="0.7773091"
     inkscape:cx="682.48268"
     inkscape:cy="750.66663"
     inkscape:window-width="2560"
     inkscape:window-height="1369"
     inkscape:window-x="-8"
     inkscape:window-y="-8"
     inkscape:window-maximized="1"
     inkscape:current-layer="g1" />
  <g
     inkscape:groupmode="layer"
     inkscape:label="Image"
     id="g1">
    <path
       style="fill:#000000"
       d="m 171.85198,1456.8794 c -57.60446,-5.1489 -105.475073,-42.671 -124.720903,-97.7592 -8.68929,-24.8718 -8.05984,22.4737 -8.10343,-609.52224 -0.0359,-520.00672 0.16309,-576.14141 2.07487,-585.39689 12.32944,-59.69063 60.118123,-105.550955 118.637103,-113.849895 7.80344,-1.10666 146.24934,-1.40077 519.96846,-1.10462 l 509.33332,0.40362 11.3333,3.04556 c 49.0022,13.16816 87.8202,52.503755 101.5752,102.929515 l 3.0915,11.33333 v 583.33328 583.33344 l -2.8532,10.6666 c -12.0371,45.002 -39.3813,79.179 -78.4194,98.015 -14.7712,7.1271 -20.6258,9.247 -35.4297,12.8288 -9.5129,2.3016 -32.4971,2.4197 -507.29772,2.6071 -273.53331,0.108 -502.66855,-0.2805 -509.1894,-0.8634 z M 1187.708,1416.5155 c 44.0177,-13.2341 73.8515,-48.8444 80.6149,-96.2236 0.8704,-6.0972 1.3382,-203.2666 1.3493,-568.66664 0.018,-604.2991 0.3991,-571.84494 -6.9571,-592.91084 -6.8554,-19.63161 -20.9552,-39.4331 -36.0875,-50.68068 -9.8271,-7.30428 -26.5525,-15.444135 -38.3795,-18.678375 -8.0521,-2.20197 -36.9165,-2.35921 -505.20672,-2.75209 -332.61995,-0.27907 -500.91673,0.0345 -509.53418,0.9492 -46.37498,4.92275 -83.145833,36.478865 -94.573743,81.161525 -2.50339,9.78816 -2.55821,22.3747 -2.53556,582.12446 0.0253,625.86244 -0.5878,578.94294 7.84046,599.99144 10.34144,25.8266 31.565863,47.5406 58.109193,59.4498 7.08537,3.179 15.78767,5.6974 29.36053,8.4968 1.46667,0.3025 228.86665,0.4587 505.3333,0.3471 480.27952,-0.1938 503.02292,-0.31 510.66662,-2.6081 z M 187.4103,1328.85 c -16.01625,-5.0821 -30.6719,-23.0668 -33.61522,-41.2508 -0.68263,-4.2173 -0.88644,-241.2886 -0.48198,-560.64064 0.6111,-482.50775 0.9505,-553.73156 2.6516,-556.44468 4.62966,-7.38395 -31.21907,-6.9307 519.02468,-6.56219 l 508.00072,0.34022 4.359,4.35886 4.3589,4.35886 0.346,203.34952 c 0.3831,225.15758 0.9895,209.51844 -8.2411,212.56481 -6.0607,2.00018 -11.8832,-0.83199 -13.9603,-6.79052 -1.0362,-2.97237 -1.4779,-37.65392 -1.4779,-116.03697 V 354.29899 l -495.33332,-0.33688 -495.33332,-0.33688 -0.0616,255.33332 c -0.0339,140.43331 -0.18386,350.43331 -0.33332,466.66675 l -0.27175,211.3333 2.87024,5.3333 c 3.60267,6.6943 7.78515,10.6291 14.10513,13.2697 4.42646,1.8495 54.11385,2.0637 478.81892,2.0637 514.98772,0 478.24592,0.5445 486.61572,-7.2123 2.0434,-1.8938 4.874,-5.9958 6.29,-9.1155 2.521,-5.5538 2.5753,-12.3757 2.604,-326.71514 0.031,-344.86754 -0.3014,-327.87894 6.4954,-331.51649 4.3359,-2.3205 9.1145,-1.67352 13.1262,1.7772 l 3.741,3.21784 0.3414,324.38495 c 0.3039,288.74764 0.1154,325.26724 -1.716,332.41594 -3.7391,14.5949 -12.3961,25.7425 -25.292,32.5682 l -6.6667,3.5286 -481.33332,0.2622 c -475.96514,0.2593 -481.42587,0.2329 -489.6311,-2.3708 z M 1168.3747,258.95503 V 187.62524 H 673.06408 177.75342 l -0.356,71.66667 -0.35601,71.66666 495.66667,-0.33687 495.66662,-0.33688 z m -943.56164,36.05986 c -7.19371,-3.12921 -7.50553,-4.86526 -6.45129,-35.91715 0.52544,-15.47654 1.5111,-29.18295 2.19035,-30.4587 3.04446,-5.71796 6.63881,-6.16538 46.34212,-5.76859 l 37.70861,0.37685 3.55261,3.5499 3.55261,3.54991 0.43364,27.48199 c 0.2385,15.1151 0.0724,28.92129 -0.36912,30.68042 -0.44151,1.75914 -2.73665,4.37758 -5.1003,5.81876 -4.00269,2.44054 -6.81332,2.61708 -40.96422,2.57312 -28.15228,-0.0362 -37.64853,-0.47431 -40.89501,-1.88651 z m 64.89501,-35.24392 v -13.18761 l -14.33333,-0.79528 c -25.57669,-1.41911 -31.66091,-1.51345 -32,-0.49617 -0.18333,0.55 -0.33333,7 -0.33333,14.33333 v 13.33333 h 23.33333 23.33333 z m 49.85082,35.88084 c -1.54871,-0.62575 -4.02061,-2.66934 -5.49311,-4.54132 -2.53855,-3.22725 -2.64279,-4.83922 -2.01187,-31.11109 0.74099,-30.85471 1.47392,-33.89446 8.75168,-36.29633 2.95291,-0.97455 16.79631,-1.35282 40.66089,-1.11106 l 36.18366,0.36657 3.62324,3.62457 3.62324,3.62458 1.03516,27.51362 c 1.55523,41.33628 4.04205,39.27158 -47.1575,39.15271 -20.01975,-0.0465 -37.66667,-0.5965 -39.21539,-1.22225 z m 63.7359,-36.26653 -0.41328,-13.83558 -20.92005,-0.36419 c -11.50603,-0.2003 -21.92825,-0.66046 -23.16048,-1.02259 -1.96655,-0.57792 -2.29253,0.87875 -2.66667,11.91611 -0.23443,6.91598 -0.23494,13.52915 -0.001,14.69593 0.36541,1.82353 3.64201,2.1726 23.33333,2.48585 12.59952,0.20044 23.20822,0.27344 23.57489,0.16224 0.36667,-0.11121 0.48069,-6.42821 0.25339,-14.03777 z m 50.9123,36.65403 c -1.55886,-0.30586 -4.25886,-2.07264 -6,-3.92618 -3.15909,-3.36303 -3.16473,-3.42886 -2.70438,-31.57602 0.51278,-31.35208 1.21661,-34.39237 8.5155,-36.78382 2.67635,-0.8769 17.96277,-1.39926 39.63637,-1.35443 38.4718,0.0796 41.1544,0.55708 43.8968,7.81381 0.7093,1.87691 1.5731,15.11141 1.9197,29.40998 0.9521,39.28402 3.3093,37.40845 -46.6968,37.15435 -19.6531,-0.0999 -37.00832,-0.43183 -38.56719,-0.73769 z m 62.41429,-36.32606 -0.4201,-13.25113 -6.9133,-0.73367 c -3.8023,-0.40352 -14.4133,-0.89182 -23.5799,-1.08511 l -16.6667,-0.35143 0.4165,14.33333 0.4165,14.33333 23.5835,0.003 23.5835,0.003 z m 117.1825,959.85605 c -93.0349,-8.9526 -186.13525,-52.8072 -251.79773,-118.6086 -47.21868,-47.3186 -79.12934,-99.2295 -102.45454,-166.66884 l -2.53638,-7.3333 -22.65358,-0.685 c -12.45946,-0.3767 -23.58533,-1.1455 -24.72413,-1.7085 -1.13881,-0.5629 -3.08881,-2.7472 -4.33333,-4.8541 -2.07016,-3.5044 -2.26278,-11.7812 -2.26278,-97.2287 0,-69.5725 0.40635,-94.2901 1.59291,-96.8943 2.91497,-6.3977 7.1604,-7.4306 29.71051,-7.2285 11.29914,0.1013 21.11023,-0.1658 21.80242,-0.5936 0.69219,-0.4278 1.67764,-3.0345 2.18989,-5.7926 1.48177,-7.9782 13.1503,-42.43602 19.30704,-57.01471 30.17857,-71.4605 85.1461,-136.9117 150.06388,-178.6848 91.47752,-58.86366 199.54732,-78.70664 308.71012,-56.68305 82.1863,16.58108 162.6419,61.34042 215.673,119.98409 46.25522,51.15054 80.01642,112.84686 95.42022,174.37367 16.3127,65.1578 16.5832,129.9042 0.8125,194.4693 -21.7016,88.8456 -70.29622,166.01654 -139.94922,222.24654 -58.8885,47.5401 -125.6878,76.1155 -203.3928,87.0073 -17.5205,2.4558 -73.311,3.617 -91.178,1.8977 z m 93.2375,-27.7941 c 87.5946,-14.5073 155.2312,-48.4307 214.0775,-107.3714 88.91172,-89.05434 129.15392,-214.05474 107.99222,-335.44524 -6.6109,-37.9225 -14.431,-62.0205 -31.3696,-96.66667 -15.0191,-30.72007 -42.59212,-71.39626 -65.07492,-96 -11.0771,-12.12193 -34.1817,-33.16576 -47.6252,-43.37724 -91.3342,-69.37607 -215.3496,-94.09684 -327.8757,-65.35752 -57.1203,14.5886 -105.2181,39.18386 -150.68349,77.05345 -9.47423,7.89139 -17.87423,14.14798 -18.66666,13.90353 -0.79244,-0.24444 -0.97148,0.0249 -0.39786,0.5985 0.57362,0.57362 -4.29961,6.47362 -10.8294,13.11111 -37.26808,37.88279 -69.63533,90.48867 -85.3605,138.73484 -9.62005,29.5151 -9.47007,27.3324 -1.87844,27.3383 8.17767,0.01 14.26177,3.6411 16.26744,9.7184 2.14784,6.508 0.97728,188.7965 -1.23894,192.9375 -1.90383,3.5574 -9.00673,6.6724 -15.21417,6.6724 h -4.63006 l 3.0726,9 c 18.62268,54.548 52.26526,106.84414 96.30678,149.70514 60.7791,59.1499 133.927,94.763 219.1284,106.6857 24.9828,3.496 79.3131,2.8478 104,-1.2408 z m -23.3333,-81.1027 c -30.2409,-4.1821 -57.8463,-24.5294 -81.2025,-59.8523 l -6.2629,-9.4718 -14.934,-0.7829 c -16.7111,-0.8762 -25.2606,-3.0585 -38.9317,-9.9378 -23.0407,-11.5941 -47.9279,-32.50334 -72.2114,-60.66914 -3.0032,-3.4834 -5.7872,-6.3334 -6.1867,-6.3334 -0.3994,0 -5.6348,3.0444 -11.634,6.7652 -15.42983,9.5699 -39.2401,21.5855 -48.53233,24.4913 -29.85787,9.33704 -54.413,-7.7263 -54.66583,-37.9872 -0.0737,-8.8218 0.46439,-11.2135 4.20567,-18.6927 2.54393,-5.0856 5.44781,-14.2751 7.13422,-22.5766 3.91123,-19.2534 13.48114,-56.6847 18.4432,-72.1378 2.26137,-7.0426 4.11159,-13.136 4.11159,-13.541 0,-0.4051 -3.97357,-2.5959 -8.83016,-4.8686 -10.37066,-4.853 -21.90455,-12.9906 -21.47276,-15.1498 0.16661,-0.8332 -0.57141,-1.5421 -1.64004,-1.5755 -1.06863,-0.033 -3.7337,-2.957 -5.92239,-6.4971 -5.82812,-9.4268 -6.34829,-19.7079 -1.49864,-29.6202 4.41564,-9.0252 15.70609,-21.4743 25.17705,-27.7608 l 7.02402,-4.6623 2.98811,-14.2408 c 3.78156,-18.0222 10.52361,-38.6776 18.47873,-56.61271 27.84923,-62.78709 75.96616,-103.54283 143.02936,-121.14796 43.9037,-11.52541 96.6904,-15.72647 128.6667,-10.24003 30.8036,5.28524 55.8145,17.92344 75.3333,38.06646 4.0334,4.16232 10.9334,10.72708 15.3334,14.58835 4.4,3.86126 7.8351,7.60044 7.6336,8.30927 -0.2015,0.70884 0.178,0.95237 0.8433,0.54119 2.1813,-1.34811 28.6429,27.58655 38.5145,42.11403 5.312,7.81729 12.512,16.67991 16,19.69471 14.4623,12.50009 33.8769,18.23789 57.6752,17.04539 15.7802,-0.7907 25.1415,-2.7027 54.3944,-11.11005 11.2169,-3.22375 21.8967,-5.86136 23.7329,-5.86136 4.1771,0 9.6547,2.79805 13.4555,6.87332 3.9509,4.23623 10.48942,18.56029 13.29542,29.12669 2.7867,10.4932 3.1325,38.0228 0.6281,50 -12.17002,58.2035 -40.98262,97.6631 -87.71542,120.1287 l -15.1242,7.2706 -0.024,10.967 c -0.08,35.8074 -17.614,96.0626 -32.4522,111.52 -2.5239,2.6292 -6.8153,9.28034 -9.5365,14.78044 -20.1608,40.7487 -47.6837,68.9724 -84.0665,86.2071 -22.3107,10.5687 -52.0214,15.7765 -73.2537,12.8401 z m 36.3895,-27.8207 c 13.1038,-2.6862 27.2607,-8.3369 40.812,-16.2899 13.2258,-7.762 35.0321,-28.8372 44.4262,-42.9366 5.7004,-8.5557 13.7056,-22.8122 13.7056,-24.40844 0,-0.7681 -16.2087,-13.1746 -16.5765,-12.688 -0.1786,0.2363 -2.3267,3.4297 -4.7735,7.0963 -26.8905,40.29604 -69.7161,70.42704 -118.2462,83.19504 l -14.4038,3.7895 5.3333,1.4066 c 9.5863,2.5282 10.5131,2.6313 25.0562,2.7876 8.5147,0.092 18.5855,-0.7054 24.6667,-1.9521 z m -63.0868,-27.3174 c 29.9652,-6.4249 57.7682,-18.446 78.107,-33.771 13.8925,-10.4678 32.9165,-30.12714 41.9236,-43.32354 6.016,-8.8141 6.6728,-10.5018 6.7292,-17.2911 0.049,-5.8756 1.1751,-9.86 5.1417,-18.1902 5.567,-11.6914 14.1291,-36.1232 14.1291,-40.3173 0,-2.0343 -0.7018,-2.5121 -3.0348,-2.0661 -4.1851,0.8 -19.8324,-2.9876 -26.6603,-6.4534 -9.0497,-4.5936 -18.9463,-12.159 -33.4327,-25.5576 -38.5347,-35.6409 -47.4278,-41.438 -63.5389,-41.4186 -7.3311,0.01 -10.1049,0.7522 -18,4.8242 -19.2237,9.915 -48.7543,29.5776 -99.3333,66.1398 -17.2333,12.4576 -40.7785,29.0646 -52.3225,36.9047 l -20.9892,14.2545 3.9045,4.9299 c 6.9816,8.8149 32.4901,33.1709 42.7405,40.8094 30.2739,22.55964 52.0277,25.64724 93.4165,13.25894 6.1066,-1.8278 12.3361,-2.951 13.8433,-2.4959 5.2593,1.5878 8.7402,6.0435 8.7402,11.1875 0,6.6227 -5.6625,11.5857 -18.9584,16.6166 -7.3243,2.7713 -7.4087,2.3366 3.3174,17.0836 4.6357,6.3735 7.2376,8.8603 8.781,8.3926 1.2064,-0.3656 8.1796,-1.9482 15.4961,-3.517 z m 181.9635,-89.10384 c 2.5076,-5.1834 4.2985,-9.6035 3.9798,-9.8224 -1.3483,-0.9265 -28.1475,-9.1832 -28.4645,-8.7699 -0.4874,0.6355 -4.7815,11.7286 -4.7815,12.3522 0,0.2812 4.7631,3.5667 10.5847,7.3011 5.8216,3.7344 10.9631,7.402 11.4255,8.1502 1.3386,2.1659 2.4102,0.8056 7.256,-9.2112 z m -429.83628,0.043 c 30.51253,-14.6409 73.85428,-43.1644 155.54518,-102.3653 53.027,-38.4283 79.1145,-55.0063 94.1442,-59.8264 5.3777,-1.7246 10.4338,-2.1599 20.6667,-1.7792 12.2315,0.4551 14.5186,0.9668 23.5473,5.2684 11.9941,5.7144 23.135,14.4853 50.8789,40.0557 18.2816,16.8494 33.3473,28.017 35.2414,26.123 0.3338,-0.3338 -1.6567,-2.9746 -4.4234,-5.8685 -23.1976,-24.2645 -50.3636,-54.2117 -50.3636,-55.5197 0,-0.8815 -0.6,-1.6378 -1.3333,-1.6807 -0.7333,-0.043 -6.2729,-4.9549 -12.3101,-10.9156 -19.1209,-18.8787 -38.5286,-25.5125 -64.0082,-21.879 -10.4217,1.4861 -12.8717,2.4189 -22.7137,8.6479 -13.7194,8.6829 -66.4053,44.6881 -109.6347,74.9235 -80.0559,55.9927 -110.02843,73.9186 -136.84533,81.8442 -10.32178,3.0505 -11.9704,4.3367 -13.81858,10.7809 -1.58564,5.5288 1.39796,13.241 6.35863,16.4361 5.61156,3.6144 15.78505,2.1286 29.0686,-4.2453 z m 445.97838,-48.2016 c 1.448,-6.6342 3.0088,-16.5118 3.4685,-21.9503 l 0.8358,-9.8881 -7.098,1.8724 c -3.904,1.0299 -11.1893,2.2756 -16.1897,2.7683 l -9.0916,0.8959 -0.016,7.4944 c -0.01,4.1219 -0.9016,10.7944 -1.9842,14.8277 -1.0826,4.0333 -1.9755,7.7313 -1.9842,8.2177 -0.01,0.4864 4.0014,2.1822 8.9113,3.7684 4.9099,1.5862 11.0599,3.9823 13.6667,5.3246 5.8551,3.0149 5.9397,2.896 9.4813,-13.331 z m -456.89592,-4.4106 c 23.29959,-11.0499 53.65072,-30.7901 130.15422,-84.6517 20.9,-14.7145 51.4941,-35.9404 67.9868,-47.1688 48.6535,-33.1237 63.1464,-44.7899 79.73,-64.1793 23.656,-27.6585 37.5199,-56.90758 46.3648,-97.8172 4.7383,-21.9159 4.8462,-21.35957 -6.1044,-31.49808 -10.9379,-10.12688 -25.744,-17.93956 -42.6438,-22.50177 -10.2213,-2.75928 -14.2117,-3.05702 -40.6667,-3.0342 -24.7897,0.0214 -31.8117,0.49251 -45.3333,3.04161 -31.1888,5.87967 -52.7239,15.56814 -69.5126,31.27316 -28.6454,26.79635 -45.7113,66.19323 -49.8013,114.96718 -2.0677,24.6564 1.4442,60.6667 5.9164,60.6667 8.5543,0 48.7796,-9.5797 75.1729,-17.9024 16.6812,-5.2602 21.6681,-5.797 24.796,-2.6691 5.2966,5.2966 1.7667,11.393 -21.3867,36.9363 -15.8483,17.484 -33.922,32.3376 -47.8514,39.3257 -16.1733,8.1139 -40.1474,11.7163 -69.83443,10.4934 -10.72439,-0.4418 -21.70752,-1.1747 -24.40695,-1.6287 l -4.90807,-0.8255 -3.45362,11.1351 c -1.89949,6.1243 -6.46798,23.4352 -10.1522,38.4685 -3.68423,15.0333 -7.2586,28.6833 -7.94306,30.3333 -1.75273,4.2252 -0.21406,3.9187 13.87741,-2.7642 z m 454.51732,-54.2205 c 9.2479,-4.3653 12.0869,-8.4994 11.178,-16.2769 -0.4025,-3.4439 -1.6823,-8.0998 -2.8441,-10.3464 -2.1031,-4.0669 -2.1305,-4.0753 -6.2884,-1.9252 -8.8188,4.5604 -18.9827,7.1994 -27.6173,7.1706 -16.2731,-0.054 -24.3169,-6.2017 -34.8547,-26.6374 -11.2843,-21.8835 -20.0199,-30.5399 -41.7115,-41.3333 -17.6127,-8.7638 -19.8865,-11.3344 -20.6514,-23.3471 -0.5343,-8.39 0.8447,-15.2626 13.302,-66.2969 1.4647,-6.0006 4.6836,-7.95905 12.9762,-7.89482 9.5012,0.0736 34.5956,9.69342 38.4345,14.73362 2.8129,3.6932 2.024,10.1312 -1.6975,13.8527 -4.6456,4.6456 -11.8521,5.637 -22.0267,3.0304 -4.5613,-1.1685 -8.4337,-1.9641 -8.6053,-1.7679 -0.1716,0.1962 -0.7223,2.2727 -1.2238,4.6145 -0.8706,4.0657 -0.6788,4.3207 4.2502,5.6479 2.8391,0.7645 7.2293,1.7841 9.756,2.2659 7.6327,1.4552 11.607,4.151 13.1897,8.9465 4.1053,12.4393 -6.9966,18.6073 -24.3904,13.5508 -3.7796,-1.0987 -7.4326,-2.1487 -8.1178,-2.3333 -0.6852,-0.1846 -1.4584,1.5255 -1.7182,3.8003 -0.4518,3.9569 -0.1281,4.2613 7.4808,7.0357 19.6054,7.1485 33.2777,20.846 46.6702,46.7566 6.9733,13.4912 8.8533,16.1034 13.0095,18.0756 3.4316,1.6284 6.5646,2.0716 10.6686,1.509 5.8603,-0.8032 15.6095,-5.0446 17.0857,-7.4331 1.1615,-1.8794 -5.0192,-22.595 -14.9417,-50.0797 -16.8206,-46.5918 -32.2348,-78.1203 -49.2156,-100.6667 -11.231,-14.91217 -34.7905,-38.5788 -35.6701,-35.83233 -0.3227,1.00778 -1.5974,6.63233 -2.8327,12.49899 -8.6165,40.92358 -28.7725,80.89924 -54.6507,108.38954 -6.4081,6.8074 -11.4236,12.5509 -11.1455,12.7634 0.2781,0.2126 4.7056,1.1229 9.8389,2.023 13.4661,2.3612 28.7206,10.266 40.3921,20.931 5.3489,4.8877 9.4041,9.208 9.0115,9.6006 -1.0088,1.0088 2.0161,4.3965 3.2466,3.636 1.26,-0.7787 20.8217,20.7442 20.3168,22.3536 -0.2015,0.6422 0.1687,0.8371 0.8226,0.4329 0.6539,-0.4041 8.6188,7.4703 17.6997,17.4988 30.988,34.2215 32.7278,35.3508 53.1774,34.5181 8.2572,-0.3362 13.0604,-1.2767 17.6964,-3.465 z m 50.3036,-24.4543 c 8.7314,-5.9141 23.2659,-20.2473 30.7025,-30.2772 8.2796,-11.167 18.9769,-33.386 23.1826,-48.152 4.5553,-15.9934 6.5372,-35.4196 4.8367,-47.4093 -1.0932,-7.7082 -4.6491,-21.2321 -5.9728,-22.7159 -0.1603,-0.1798 -11.8242,2.9618 -25.9196,6.9813 -35.301,10.0664 -52.1985,11.5904 -79.4961,7.1694 -4.4,-0.7126 -9.0864,-1.6165 -10.4143,-2.0087 -2.1354,-0.6306 -2.0247,0.056 0.9578,5.9416 8.9667,17.6949 23.2839,57.4939 31.2648,86.9098 2.8849,10.6334 7.355,23.7052 9.9334,29.0486 2.5785,5.3434 5.096,12.6806 5.5944,16.3049 l 0.9063,6.5896 4.2122,-2.159 c 2.3166,-1.1875 6.9121,-3.9879 10.2121,-6.2231 z m -423.2801,-22.9457 c 11.1216,-2.871 22.5109,-8.4754 32.3424,-15.9152 4.6177,-3.4942 8.1784,-6.5705 7.9127,-6.8362 -0.2657,-0.2657 -4.6437,0.7104 -9.729,2.1691 -22.399,6.4249 -53.2139,9.2768 -73.3759,6.7909 -27.28928,-3.3647 -43.87771,-9.8845 -53.72563,-21.1159 -3.37945,-3.8542 -6.51419,-7.0152 -6.96608,-7.0245 -1.86767,-0.038 -10.5117,12.6514 -10.5117,15.4314 0,8.7828 25.65222,21.4807 53.64646,26.5552 14.06685,2.5499 50.44445,2.5169 60.40675,-0.055 z m -32.7461,-38.2819 c -0.014,-0.1834 -0.8935,-5.1334 -1.9535,-11 -3.90202,-21.5964 -2.16238,-57.3372 4.1833,-85.9469 4.2963,-19.36993 8.0608,-29.94366 17.9918,-50.53638 4.3721,-9.06578 7.6644,-16.76806 7.3163,-17.11618 -0.3481,-0.34811 -6.5438,5.3152 -13.7681,12.58514 -14.9795,15.07406 -26.44439,31.07988 -36.06383,50.34761 -13.20546,26.45051 -24.87461,67.05341 -24.07413,83.76601 l 0.39438,8.234 11.19309,3.6638 c 11.99486,3.9263 34.92879,7.8845 34.78069,6.0029 z m 435.0476,-113.87589 c -0.9048,-0.36595 -2.8053,-4.36858 -4.2232,-8.89474 -4.0613,-12.9641 -6.5019,-17.89371 -11.717,-23.66619 -7.2126,-7.98346 -17.2997,-13.05968 -32.7094,-16.4606 -4.0362,-0.89079 -6.7824,-4.81451 -5.5739,-7.96389 0.4476,-1.16647 5.5636,-3.511 11.836,-5.42422 19.9817,-6.09478 30.5006,-15.9379 35.4114,-33.13644 3.8463,-13.47031 5.4107,-16.17156 9.6521,-16.66551 4.0775,-0.47486 4.2813,-0.12544 9.0553,15.5221 3.2567,10.67437 9.9432,20.83009 16.8143,25.53827 4.8492,3.32271 20.5149,9.36044 24.287,9.36044 3.5745,0 7.215,4.6319 6.1867,7.87164 -0.6341,1.99797 -3.4355,3.49299 -10.4535,5.5787 -11.7861,3.50277 -18.0722,6.63422 -24.3076,12.10898 -5.4448,4.78064 -11.4365,15.93321 -13.8469,25.77401 -2.2886,9.34343 -5.411,12.47966 -10.4113,10.45745 z M 301.70807,824.29186 c 0,-42.9 0.002,-78.45 0.005,-79 0.003,-0.55 -12.44742,-1.3 -27.66667,-1.6666 l -27.67136,-0.6667 0.35391,79.6667 0.35391,79.6666 h 27.31275 27.31276 z m 810.98263,-148.4431 c -0.9262,-0.588 -2.9062,-5.47924 -4.3999,-10.86948 -7.6966,-27.77403 -19.6112,-39.57484 -48.4466,-47.98385 -9.257,-2.69954 -12.1026,-4.10532 -12.9507,-6.39791 -1.702,-4.60087 3.3211,-8.97966 12.5029,-10.89924 4.2286,-0.88404 11.7354,-3.63199 16.6817,-6.10655 19.2015,-9.60612 25.4031,-18.54732 33.5432,-48.36118 3.0748,-11.2621 13.5034,-10.35602 15.4559,1.34289 1.2904,7.7317 6.9582,23.23389 10.6089,29.01704 7.0703,11.20001 20.3256,19.67928 37.7174,24.12736 10.5446,2.69685 14.9712,5.42911 14.9712,9.24071 0,3.62781 -4.0693,6.24174 -13.3333,8.5648 -12.5753,3.15337 -26.4854,10.25156 -33.0589,16.86957 -6.5594,6.60386 -12.3967,18.02715 -15.619,30.56563 -1.2249,4.76667 -2.847,9.41667 -3.6046,10.33331 -1.5419,1.8657 -7.4883,2.1946 -10.0682,0.5569 z m -69.868,-129.73502 c -4.021,-1.47274 -4.1406,-1.70886 -8.606,-16.995 -9.3949,-32.1603 -24.0408,-48.02415 -53.62782,-58.08733 -5.0084,-1.70348 -11.4555,-3.50256 -14.3269,-3.99796 -6.4442,-1.11181 -9.4656,-3.26215 -10.525,-7.49058 -1.41,-5.62781 1.826,-7.89213 17.2834,-12.09361 36.69632,-9.97446 53.31272,-26.49762 61.08572,-60.74274 3.1395,-13.83193 5.7138,-17.74795 11.6669,-17.74795 5.7268,0 8.1293,3.67919 11.5386,17.67048 4.0661,16.68618 11.9892,32.38666 20.5974,40.81595 8.6733,8.49309 24.624,16.55096 41.0717,20.74835 12.3889,3.16161 16.0607,5.46074 16.0607,10.05671 0,4.62904 -3.9841,7.84949 -11.6777,9.43953 -11.2495,2.32494 -25.2967,7.61388 -33.7756,12.71696 -15.8992,9.56906 -25.8378,24.87283 -32.3834,49.86505 -2.2593,8.62615 -4.2362,13.39458 -6.2188,15 -3.2606,2.64026 -3.2553,2.63971 -8.1632,0.84214 z"
       id="path1" />
  </g>
</svg>
