<?xml version="1.0" encoding="UTF-8" standalone="no"?>
<!-- Created with Inkscape (http://www.inkscape.org/) -->

<svg
   version="1.1"
   id="svg1"
   width="992.64001"
   height="983.35999"
   viewBox="0 0 992.64001 983.35999"
   xmlns="http://www.w3.org/2000/svg"
   xmlns:svg="http://www.w3.org/2000/svg">
  <defs
     id="defs1" />
  <g
     id="g1">
    <path
       style="fill:#000000"
       d="m 83.584166,967.90069 c -8.47566,-0.873 -17.4007,-3.1792 -24.77968,-6.4029 -13.05754,-5.7045 -25.27,-15.9156 -33.03416,-27.6204 -6.79245,-10.24 -10.60279,-20.1022 -12.50188,-32.3583 -0.53684,-3.4646 -0.56428,-23.4232 -0.56428,-410.36174 0,-390.36529 0.0232,-406.872979 0.57726,-410.524659 1.11422,-7.34375 3.00324,-13.74713 6.29308,-21.33224 2.37102,-5.46666 6.81528,-12.57814 10.68843,-17.10309 13.46928,-15.73598 30.67423,-25.14299 50.29413,-27.49892 3.76676,-0.45231 43.591334,-0.50108 409.170654,-0.50108 361.83368,0 405.41868,0.0523 408.94708,0.49026 19.4968,2.42027 36.6389,11.67553 49.7668,26.86974 8.9239,10.32847 15.5143,25.23915 17.6088,39.84 0.5493,3.82942 0.5738,21.296619 0.5738,409.599989 0,392.55784 -0.019,405.73374 -0.5906,409.76004 -2.5406,17.8977 -10.4627,33.4128 -23.4536,45.933 -7.9987,7.7088 -18.5939,14.0647 -29.2358,17.5383 -3.5006,1.1426 -7.2499,2.0527 -12.48,3.0295 l -3.68,0.6873 -406.24002,0.035 c -223.43201,0.019 -406.744014,-0.017 -407.360014,-0.08 z M 896.8642,942.42129 c 15.1123,-2.6552 27.5194,-10.5612 35.7315,-22.7688 4.2605,-6.3335 6.7447,-12.6712 8.2747,-21.1111 0.6295,-3.4725 0.6338,-6.2103 0.6338,-407.53828 0,-399.643139 -0.01,-404.078689 -0.6259,-407.384029 -1.9757,-10.54954 -5.4031,-17.98488 -11.8718,-25.7546 -2.7688,-3.32572 -5.9558,-6.26184 -9.5734,-8.81979 -6.4732,-4.57708 -12.2691,-7.01691 -21.7689,-9.16371 -2.2478,-0.50796 -27.9956,-0.54897 -405.92002,-0.64658 -286.54379,-0.074 -404.397024,-0.004 -406.545344,0.24008 -10.71549,1.21947 -19.72223,4.98456 -28.57278,11.94429 -3.9659,3.11863 -6.66056,6.16492 -10.38358,11.73859 -3.85329,5.7687 -6.43422,12.42681 -7.92147,20.43535 -0.44745,2.40939 -0.49674,42.904599 -0.49582,407.359989 9.2e-4,364.94574 0.05,404.96449 0.49949,407.53439 2.37866,13.5988 8.57256,24.3094 19.01949,32.8887 3.0982,2.5444 6.47945,4.6215 10.57209,6.4945 6.71213,3.0718 12.06322,4.4877 18.70791,4.95 1.936,0.1347 184.312004,0.2266 405.280014,0.2041 381.70182,-0.039 401.91972,-0.069 404.96002,-0.6031 z M 201.98417,547.31735 V 249.07736 H 368.97049 535.9568 l 0.39673,-1.2 c 0.6705,-2.02811 0.78697,-8.18 0.21961,-11.6 -0.51633,-3.11242 -1.36551,-6.52523 -2.18964,-8.8 l -0.46372,-1.28 -165.96781,-0.0803 -165.9678,-0.0803 v -39.51971 -39.51969 h 294.56001 294.56 v 39.52 39.52 h -124.48 c -73.66062,0 -124.48,0.11771 -124.48,0.28833 0,0.47654 3.67717,3.5113 6.48732,5.35397 9.209,6.03852 18.56067,5.58347 36.69098,-1.78537 3.91231,-1.59011 5.1417,-1.90613 5.1417,-1.32169 0,0.16239 -1.92108,1.95114 -4.26906,3.975 -5.46707,4.7124 -9.58638,8.83774 -11.95197,11.96944 -1.95213,2.58436 -2.97897,4.09725 -2.97897,4.38906 0,0.0942 24.624,0.17126 54.72,0.17126 30.096,0 54.72,-0.0581 54.72,-0.12903 0,-0.62267 -4.60757,-12.59896 -6.93694,-18.03097 -0.0943,-0.22 0.0459,-0.4 0.31159,-0.4 0.26572,0 2.40512,2.19303 4.75424,4.87341 2.34911,2.68038 6.19777,6.85638 8.55257,9.28 l 4.28145,4.40659 h 49.71855 49.71854 v 298.23999 298.24 h -294.56 -294.56001 z m 584.00001,0 V 254.51736 h -11.37902 -11.37903 l -4.06097,3.56368 c -15.60069,13.69028 -22.55957,22.09823 -25.78666,31.15632 -1.63751,4.5963 -1.95622,6.66036 -1.92703,12.48 0.0239,4.76068 0.15168,6.05052 1.02342,10.32913 1.49986,7.36148 2.77299,11.31284 7.63236,23.68825 2.68901,6.84814 2.94735,7.70205 2.35693,7.79061 -0.176,0.0264 -0.43566,0.0624 -0.57701,0.08 -0.14136,0.0176 -2.31511,-2.344 -4.83054,-5.248 -12.28778,-14.18587 -19.78097,-20.90968 -27.72273,-24.8762 -10.3127,-5.1507 -21.44726,-4.98982 -38.35965,0.55424 -6.836,2.24091 -16.13507,5.80007 -17.73632,6.78846 -0.96077,0.59304 -1.11507,0.60933 -1.55978,0.16462 -0.44471,-0.44471 -0.40254,-0.54087 0.42625,-0.97204 1.93021,-1.00417 14.42081,-12.17216 18.48624,-16.52875 5.59868,-5.99965 8.625,-10.16374 11.34424,-15.60921 2.61333,-5.23336 3.39349,-8.93051 3.35963,-15.92111 -0.0266,-5.49257 -0.49429,-8.96899 -1.92644,-14.32 l -0.83504,-3.12 h -56.87644 -56.87643 l -0.35799,1.4217 c -0.1969,0.78193 -0.35574,3.12193 -0.35298,5.2 0.008,5.91708 1.06903,10.21986 5.27515,21.38936 1.78458,4.739 2.29233,6.41925 1.99653,6.6069 -0.57922,0.36742 -0.70742,0.27673 -2.3867,-1.68844 -6.88026,-8.05163 -11.1631,-12.38942 -15.25231,-15.44802 -2.35862,-1.76418 -6.51151,-3.82612 -9.18553,-4.5607 -2.75024,-0.75551 -8.67465,-0.75069 -12.93215,0.0105 -3.64356,0.65144 -14.25704,4.06577 -17.96741,5.78007 -2.32706,1.07517 -3.31259,1.23285 -3.31259,0.53002 0,-0.16427 0.50021,-0.56479 1.11158,-0.89004 1.21759,-0.64777 6.88858,-5.55344 9.93169,-8.59137 2.713,-2.7084 6.26523,-6.92536 7.12628,-8.45986 l 0.72956,-1.30012 H 370.31373 207.42417 v 292.79999 292.8 h 289.28001 289.28 z m -303.04,243.93256 c -4.3897,-0.1834 -16.12623,-1.35308 -21.78028,-2.17066 -14.93532,-2.15965 -34.04988,-6.92437 -47.01601,-11.71975 -29.56073,-10.93272 -52.36598,-24.07721 -76.00371,-43.80702 -33.73501,-28.15774 -60.73786,-67.88029 -74.39249,-109.43513 l -1.84013,-5.6 -17.80369,-0.0827 -17.8037,-0.0827 v -59.19731 -59.19732 h 14.50419 14.50419 l 0.88275,-4.24 c 6.73362,-32.34265 19.93055,-62.84642 39.28827,-90.81202 13.22691,-19.10858 31.09217,-37.84227 50.98061,-53.45878 15.02758,-11.79973 35.65896,-23.91572 53.02526,-31.13963 17.52155,-7.28849 30.66478,-11.43238 47.29474,-14.91141 52.58569,-11.00108 108.13912,-4.15538 156.9663,19.34252 14.51288,6.98427 29.57391,16.36377 43.69334,27.21075 4.81747,3.70093 14.27369,11.60137 15.44661,12.90526 0.49614,0.55155 0.73228,0.60082 1.53633,0.32052 1.19328,-0.41598 1.51125,-0.13018 0.7684,0.69067 -0.55867,0.61731 -0.4307,0.77319 5.58408,6.80196 27.94933,28.01435 48.4064,61.84179 60.43254,99.93016 6.66961,21.12353 10.06151,41.39932 10.95189,65.46716 1.14275,30.88983 -3.69221,61.20395 -14.66925,91.97284 -9.66153,27.08147 -25.075,53.38348 -44.75692,76.37453 -5.61487,6.5589 -16.51836,17.53919 -23.79626,23.96388 -21.96472,19.3897 -48.45523,35.33821 -75.18022,45.26194 -23.98842,8.90758 -48.62676,14.19255 -72.3133,15.51135 -5.31124,0.29572 -22.39296,0.35616 -28.50354,0.10086 z m 24.407,-5.23218 c 20.95105,-0.88138 45.17524,-5.32381 64.233,-11.77958 21.0814,-7.14128 35.59481,-13.98281 53.86539,-25.3918 29.72529,-18.56186 58.09484,-47.34592 75.99409,-77.10448 13.28923,-22.09412 21.58241,-41.68326 27.95189,-66.02452 4.73983,-18.11346 7.1531,-35.80328 7.53045,-55.2 0.68342,-35.12871 -5.87515,-67.89173 -20.30647,-101.44 -11.11002,-25.82729 -28.62916,-51.50617 -49.42199,-72.44083 l -6.63558,-6.68084 -2.22607,1.97356 c -8.5627,7.59141 -12.99996,13.81904 -14.59998,20.49088 -1.5326,6.39068 0.0467,14.9895 5.11111,27.82862 1.13928,2.88826 1.99671,5.37226 1.9054,5.52 -0.41428,0.67033 -1.21248,0.0372 -3.99829,-3.17139 -7.94792,-9.15413 -12.05391,-12.99262 -16.86545,-15.76668 -4.5332,-2.61358 -9.45163,-3.78156 -14.25333,-3.38473 -5.6322,0.46547 -18.10018,4.125 -23.69997,6.95629 -1.4855,0.75108 -1.9464,0.86533 -2.1586,0.53506 -0.17308,-0.2694 -0.0814,-0.53465 0.25574,-0.73994 1.15121,-0.70095 8.24871,-7.04896 11.22298,-10.03782 5.1966,-5.2221 8.41285,-9.9679 9.88463,-14.58544 1.01716,-3.19125 1.3313,-7.94857 0.77586,-11.74982 -0.56654,-3.8772 -2.90725,-11.73525 -5.29392,-17.77232 -1.14284,-2.89081 -2.07789,-5.3907 -2.07789,-5.55531 0,-0.84085 1.0603,0.0505 3.52,2.95925 3.85222,4.55543 10.58869,11.23592 13.6,13.487 8.04426,6.01341 16.3069,7.11048 27.68,3.6752 3.65795,-1.1049 8.34947,-2.89346 8.2532,-3.14639 -0.15497,-0.40717 -8.87095,-7.69329 -14.24731,-11.91004 -14.80636,-11.61281 -35.03335,-23.47889 -52.03038,-30.52338 -20.72412,-8.5892 -37.36351,-13.333 -58.77375,-16.7561 -13.66441,-2.18469 -31.538,-3.22511 -44.75378,-2.6051 -39.02923,1.831 -75.83487,12.16914 -108.01387,30.33943 -20.57674,11.61892 -36.71522,23.81357 -52.84793,39.93325 -22.23021,22.21226 -38.16442,45.67615 -51.19008,75.37986 -5.57769,12.71937 -11.24547,30.52669 -13.94008,43.79766 -0.51481,2.53546 -0.93603,4.65946 -0.93603,4.72 0,0.0605 8.928,0.11007 19.84,0.11007 h 19.84 v 59.2 59.2 h -16.51423 c -13.70931,0 -16.48616,0.0732 -16.34893,0.43078 0.0909,0.23694 0.62426,1.91806 1.18521,3.73584 2.22907,7.22346 8.2534,21.67097 12.85769,30.83527 10.13345,20.16945 21.70632,37.11392 36.30635,53.15811 7.76048,8.5281 10.90202,11.75611 15.31442,15.73597 16.12198,14.54156 29.84626,24.34663 49.2795,35.20685 14.98047,8.37182 37.9549,17.25057 55.77207,21.55381 24.92124,6.01903 44.67326,8.02524 68.95493,7.00375 z m 3.273,-65.57136 c -5.32982,-0.72644 -10.56449,-1.85304 -12.02183,-2.58735 -1.3948,-0.70279 -3.40898,-2.87486 -3.68474,-3.9736 -0.24579,-0.97929 -0.49237,-1.00904 -1.2672,-0.15285 -0.5884,0.65017 -0.6954,0.5528 -13.90286,-12.65185 l -13.3099,-13.30706 -5.42673,0.32875 c -2.98471,0.18081 -5.60674,0.33014 -5.82674,0.33184 -0.22,0.002 -0.41137,-0.2489 -0.42527,-0.5569 -0.0151,-0.33454 -0.0902,-0.39896 -0.18666,-0.16 -0.0888,0.22 -0.29921,0.4 -0.46764,0.4 -0.49662,0 -10.53651,-6.47878 -16.76043,-10.81559 -13.78571,-9.60581 -20.92163,-15.52136 -35.91972,-29.77684 -4.00037,-3.8023 -5.62989,-5.16135 -5.92,-4.93737 -0.22015,0.16998 -3.13628,2.46243 -6.48028,5.09434 -10.11197,7.95867 -33.0593,25.39546 -33.42118,25.39546 -0.18635,0 -0.33882,-0.144 -0.33882,-0.32 0,-0.176 -0.35373,-0.32 -0.78606,-0.32 -0.74827,0 -0.93993,-0.47284 -3.98684,-9.83566 l -3.20079,-9.83566 3.24984,-4.79203 c 1.78741,-2.63561 3.22797,-5.01356 3.20124,-5.28434 -0.0267,-0.27077 -1.28282,-3.72376 -2.79132,-7.67332 -1.95149,-5.1094 -3.22211,-7.92501 -4.40446,-9.76 -1.82486,-2.83214 -3.74779,-7.21229 -3.75623,-8.55613 -0.006,-0.97013 -0.7473,-1.8624 -1.54824,-1.8638 -0.8299,-10e-4 -5.26932,-5.27652 -5.74641,-6.82808 -0.30867,-1.00384 -0.33452,-2.07819 -0.10518,-4.37098 0.25673,-2.56664 0.52763,-3.51944 1.73977,-6.11904 0.78963,-1.69347 2.07036,-3.94117 2.84606,-4.99489 l 1.41038,-1.91586 0.43077,-4.6051 c 0.52698,-5.63344 0.53954,-15.7474 0.026,-20.92511 -1.03413,-10.42636 -3.87263,-21.53943 -8.06434,-31.57275 l -1.55946,-3.73275 1.00562,-1.00562 1.00561,-1.00561 2.22752,1.4812 c 1.22513,0.81466 2.2942,1.41451 2.3757,1.33301 0.0815,-0.0815 -0.13662,-1.71178 -0.48471,-3.62283 -0.90828,-4.98647 -0.97377,-5.63377 -1.32278,-13.07493 -0.80763,-17.21932 2.76666,-34.64085 10.37309,-50.55972 5.33711,-11.16959 12.12189,-20.74152 20.98279,-29.60242 8.33739,-8.3374 19.20389,-16.14875 28.16243,-20.2445 13.43204,-6.14099 20.64149,-8.42003 32.16,-10.1664 3.14516,-0.47685 12.44313,-0.89869 12.65931,-0.57434 0.0986,0.14797 2.11462,-0.23326 4.48,-0.84718 11.12749,-2.88808 18.65998,-3.84766 29.90069,-3.80912 19.1577,0.0657 36.80484,4.45177 53.23274,13.23069 5.63253,3.00997 9.35525,5.47797 17.16726,11.38112 11.85493,8.95818 25.57534,20.79951 35.91315,30.99463 l 6.15315,6.06823 3.57167,-1.65734 c 2.75316,-1.27754 3.67139,-1.57457 4.00685,-1.29617 0.33228,0.27577 0.43518,0.25336 0.43518,-0.0948 0,-0.38027 0.792,-0.43345 4.77168,-0.32039 9.33081,0.26507 23.5193,-0.94587 35.06832,-2.99297 10.936,-1.93844 20.93248,-4.64142 31.79847,-8.59809 2.70516,-0.98504 5.10176,-1.79098 5.32577,-1.79098 0.22401,0 0.48588,0.20483 0.58195,0.45516 0.10064,0.26228 0.43156,0.38798 0.78087,0.29664 1.59363,-0.41675 7.7744,12.83407 10.47084,22.4482 3.06238,10.91892 3.8249,23.9303 2.11911,36.16 -2.94394,21.10662 -13.84803,40.35405 -31.09945,54.89539 -5.67667,4.7849 -13.454,9.58794 -19.72176,12.17955 l -2.62421,1.08506 -0.85162,2.4 c -1.18707,3.34532 -3.7306,8.84645 -5.65627,12.23332 -1.25131,2.2008 -1.75319,2.82131 -2.18962,2.70718 -0.38742,-0.10131 -0.51193,-0.007 -0.39433,0.29983 0.21421,0.55821 -5.05891,3.07788 -9.57975,4.5775 -1.716,0.56922 -3.12,1.09827 -3.12,1.17566 0,0.0774 0.56202,1.25853 1.24894,2.62474 1.1043,2.19634 1.28443,2.885 1.55536,5.94642 0.20829,2.35349 0.44883,3.54554 0.75106,3.72198 3.41827,1.99553 4.99471,5.37507 4.11854,8.82927 -0.43608,1.71921 -0.47922,2.86308 -0.21374,5.66823 0.17695,1.86981 -0.44794,4.07639 -1.51108,5.33587 -0.22285,0.264 -0.66612,1.488 -0.98505,2.72 -1.93952,7.49215 -6.21692,16.41152 -10.45487,21.80082 l -1.54192,1.96082 0.34137,1.84661 c 0.46425,2.5114 -0.0692,6.28648 -1.27836,9.04727 -0.51659,1.17946 -1.29114,3.08048 -1.7212,4.22448 -2.2312,5.9351 -7.95432,15.56869 -12.90654,21.72523 -13.85696,17.22685 -34.50374,28.56136 -56.92251,31.24888 -5.38997,0.64614 -16.42213,0.56244 -21.76,-0.16509 z m 21.28238,-2.39353 c 11.06843,-1.38086 22.88701,-5.30789 31.90018,-10.59967 7.43424,-4.36477 12.3531,-8.2566 18.75962,-14.84274 8.12902,-8.35693 13.31733,-16.47328 18.06281,-28.25662 1.78482,-4.43184 1.83501,-4.6396 1.83501,-7.59646 0,-2.67187 -0.10704,-3.25795 -0.88389,-4.83985 -0.97523,-1.98583 -3.30542,-4.35895 -5.23066,-5.32701 -3.36084,-1.68993 -6.65638,-1.66915 -10.27447,0.0648 -2.36263,1.13227 -3.22797,2.00645 -7.14899,7.22209 -3.87652,5.15644 -13.10771,14.91402 -19.18199,20.27582 -10.52033,9.28633 -20.83671,16.22289 -34.11358,22.93738 -8.33296,4.21422 -14.49792,6.7892 -22.65681,9.46329 l -4.77039,1.56351 -0.62585,1.40809 c -0.54514,1.22648 -0.57599,1.57728 -0.2392,2.72 0.42595,1.4452 1.33864,2.59244 2.56583,3.22523 1.04999,0.54142 7.91494,1.97284 12.16,2.5355 4.52652,0.59997 15.20598,0.62509 19.84238,0.0467 z m -37.09904,-8.84617 c 0.16212,-0.63288 0.73573,-1.75942 1.27469,-2.50343 0.82022,-1.13228 1.05801,-1.28795 1.459,-0.95515 0.38396,0.31865 0.45961,0.31526 0.38102,-0.0171 -0.0657,-0.27781 1.59178,-0.96794 5.02195,-2.09102 15.3639,-5.03034 27.16421,-10.96294 41.28,-20.75349 12.29993,-8.53109 23.97257,-19.66028 33.11071,-31.56917 3.08823,-4.0246 4.30784,-5.2848 6.24929,-6.45731 2.20617,-1.33238 4.0655,-1.88931 6.96789,-2.0871 l 2.80789,-0.19135 1.07715,-1.47212 c 1.54875,-2.11666 3.25191,-5.35517 3.88757,-7.39212 0.74132,-2.37555 0.7606,-2.26736 -0.48114,-2.70031 l -1.10064,-0.38375 -2.7607,-8.29797 -2.76069,-8.29797 -2.21627,-1.53262 c -1.21895,-0.84294 -2.30387,-1.77894 -2.41093,-2.08 -0.10706,-0.30106 -0.52455,-3.39138 -0.92775,-6.86738 l -0.73309,-6.32 h -1.54817 c -1.75424,0 -3.72426,-0.68191 -5.47193,-1.89407 -0.68976,-0.47841 -9.79401,-11.59743 -21.63753,-26.42593 l -20.44672,-25.6 -2.84247,-1.23324 c -5.51219,-2.39152 -9.70278,-2.27964 -14.88162,0.39733 -4.70891,2.43406 -28.6282,21.75248 -48.01578,38.77996 -15.23036,13.37632 -39.00202,33.04267 -62.18507,51.44583 -4.752,3.77223 -8.85231,7.05614 -9.11179,7.29758 -0.40901,0.38056 0.0381,0.95282 3.36,4.30033 14.20153,14.3111 29.66204,26.6108 48.35002,38.46514 l 4.83823,3.06903 4.76177,-0.28991 c 5.59165,-0.34044 12.54172,-1.25046 17.77507,-2.32741 l 3.73331,-0.76826 0.33035,1.30148 c 0.1817,0.71582 0.30171,1.32218 0.2667,1.34748 -0.0899,0.0649 -9.0197,1.68137 -10.91522,1.97583 l -1.57157,0.24412 12.29157,12.0859 c 8.78687,8.63984 12.32129,11.92378 12.39585,11.51735 0.0574,-0.3127 0.23693,-1.08635 0.39905,-1.71922 z M 368.86418,659.78129 c 30.99451,-23.59192 78.40764,-62.07722 100.16,-81.30001 17.26346,-15.25591 43.30091,-36.26062 47.8104,-38.5692 3.30573,-1.69233 6.38903,-2.32529 10.28205,-2.11078 1.70975,0.0942 3.42672,0.34153 3.8155,0.5496 1.43549,0.76825 1.07881,-0.1102 -0.70596,-1.7387 -3.39419,-3.09699 -8.46366,-4.93161 -12.5073,-4.52633 -3.51784,0.35259 -5.81962,1.48311 -17.65469,8.67109 -42.8467,26.02279 -91.56063,60.67854 -133.05644,94.65815 l -10.49643,8.5952 -3.02182,4.53558 -3.02181,4.53557 1.77142,5.75795 c 0.97429,3.16687 2.13549,6.95013 2.58045,8.40724 l 0.80903,2.64931 1.1778,-0.9166 c 0.64779,-0.50413 6.0738,-4.64326 12.0578,-9.19807 z m 238.20298,-15.02394 c 2.19652,-3.58605 4.03204,-7.35249 5.32836,-10.93362 0.60976,-1.6845 1.10866,-3.11065 1.10866,-3.16923 0,-0.0586 -0.684,0.244 -1.52,0.6724 -0.836,0.4284 -2.312,0.98328 -3.28,1.23307 -0.968,0.24979 -1.724,0.61239 -1.68,0.80577 0.11932,0.52441 -0.52523,0.43415 -3.06274,-0.42891 l -2.29484,-0.78053 -0.20656,0.86053 c -0.65548,2.73075 -3.60828,8.70811 -4.78367,9.6836 -0.72447,0.60126 -0.54363,0.89066 1.0141,1.62288 1.68157,0.79043 4.56945,3.31549 5.25332,4.59332 l 0.46403,0.86704 1.04565,-1.23316 c 0.57511,-0.67824 1.75127,-2.38516 2.61369,-3.79316 z M 365.82418,632.78769 c 38.33944,-31.61614 89.19436,-67.77644 132.48,-94.19966 8.47983,-5.17642 12.70403,-7.56738 14.4,-8.1506 3.13425,-1.07784 7.26592,-1.30827 10.4,-0.58003 3.15003,0.73194 7.05488,2.74492 8.87629,4.57579 0.83396,0.83829 11.74585,14.34016 24.24865,30.00416 20.57794,25.78087 22.89075,28.56668 24.4037,29.39462 l 1.67136,0.91462 7.2,-0.18598 c 7.59942,-0.19629 11.23582,-0.66314 17.6,-2.25951 4.72644,-1.18557 10.56507,-3.21229 13.75402,-4.77434 l 2.71401,-1.32941 2.47818,-4.8 c 2.30551,-4.46558 4.60033,-10.07352 5.82714,-14.24 l 0.51822,-1.76 -4.24578,4.198 -4.24579,4.198 -16.84617,4.05674 -16.84617,4.05673 -2.89486,-1.85473 c -1.59218,-1.02011 -2.9034,-1.96532 -2.91384,-2.10046 -0.0104,-0.13515 -10.32393,-12.71898 -22.9189,-27.96407 -16.16194,-19.56259 -22.79991,-27.81836 -22.56,-28.05827 0.48194,-0.48194 0.42111,-0.85194 -0.14006,-0.85194 -0.6493,0 -0.65152,0.0163 0.77828,-5.6944 3.17835,-12.69434 5.13974,-28.98675 5.14119,-42.7056 4e-4,-3.81576 0.0977,-5.04119 0.40053,-5.0449 0.27821,-0.003 0.29232,-0.0765 0.0463,-0.24 -0.25594,-0.17013 -0.22064,-1.25198 0.12775,-3.9151 0.3282,-2.50877 0.48478,-6.58261 0.49196,-12.8 0.0109,-9.47701 -0.19779,-11.98728 -1.76235,-21.1934 l -0.69226,-4.0734 -1.21886,-0.8066 c -0.67037,-0.44363 -1.32994,-0.8064 -1.46571,-0.80616 -0.13577,2.5e-4 -0.26381,4.06825 -0.28452,9.04 -0.0544,13.05536 -1.08491,22.18832 -4.11384,36.4582 -1.99227,9.38597 -6.70944,24.23081 -9.02117,28.3894 -4.45893,8.02124 -8.57878,12.27256 -18.83773,19.4389 -24.80889,17.3301 -48.27387,30.96612 -73.4296,42.67157 l -4.32,2.01018 -4.96,4.8815 c -2.728,2.68482 -6.472,6.21074 -8.32,7.83537 -1.848,1.62463 -17.508,14.10307 -34.8,27.72987 -17.292,13.6268 -31.44274,24.94893 -31.44609,25.16028 -0.0139,0.87704 4.98903,13.2611 5.28609,13.08501 0.176,-0.10432 4.424,-3.574 9.44,-7.71038 z m 244.16,-3.50501 c 2.72595,-1.2931 4.88129,-3.28367 6.05123,-5.58865 0.93625,-1.84456 1.04017,-2.27346 0.7692,-3.17468 -0.17231,-0.5731 -0.46377,-1.01188 -0.64769,-0.97506 -0.35775,0.0716 -10.63823,6.09588 -11.07046,6.48719 -0.14175,0.12832 0.002,1.13151 0.32,2.2293 l 0.57772,1.99599 1.28,-0.1455 c 0.704,-0.08 1.928,-0.45289 2.72,-0.82859 z m -7.04167,0.0347 c -9.2e-4,-0.132 -1.00892,-3.61898 -2.24,-7.74886 -1.23108,-4.12987 -2.23833,-7.61055 -2.23833,-7.73486 0,-0.1243 3.11582,-1.91371 6.92405,-3.97646 l 6.92404,-3.75045 -0.21213,-3.01787 c -0.18748,-2.66706 -0.36432,-3.32208 -1.52125,-5.63469 -0.72001,-1.43925 -1.35804,-2.67049 -1.41786,-2.73609 -0.0598,-0.0656 -1.37507,0.18026 -2.9228,0.54636 -1.54773,0.36611 -3.86633,0.83019 -5.15245,1.0313 -2.29235,0.35845 -2.33507,0.38235 -2.16973,1.21364 0.53615,2.69566 1.8386,12.26417 1.68966,12.41312 -0.20622,0.20622 -6.78593,-0.8712 -7.3142,-1.19769 -0.26931,-0.16644 -2.15946,-9.90462 -2.18311,-11.24745 -0.002,-0.132 -0.72422,-0.24 -1.60422,-0.24 -1.54045,0 -1.6,0.0335 -1.6,0.89931 0,1.03861 1.20902,10.98869 1.34755,11.0902 3.02565,2.21707 3.71053,2.83949 3.55899,3.23442 -0.10284,0.26798 0.02,0.45607 0.29792,0.45607 0.33138,0 1.2735,2.34052 3.14754,7.81941 l 2.67459,7.8194 1.60671,0.47478 c 1.8735,0.55362 2.40733,0.6172 2.40503,0.28641 z m -222.3134,-29.07607 c 27.25015,-21.41078 36.59779,-29.08439 40.87507,-33.55494 1.30721,-1.36629 1.45008,-1.40175 -3.84,0.95322 -4.96314,2.20942 -5.52618,2.37715 -10.24,3.0506 -8.01217,1.14467 -24.46191,0.6809 -29.44,-0.83001 -2.7825,-0.84451 -4.6176,-1.91407 -6.82173,-3.97593 -1.67622,-1.56802 -2.45964,-2.68564 -4.31877,-6.16118 -5.0339,-9.41057 -9.45389,-22.02511 -12.11982,-34.5896 -0.24886,-1.17291 -0.37791,-0.89951 -3.09637,6.56 -1.56018,4.28115 -2.94954,7.90607 -3.08747,8.05538 -0.13793,0.14931 -2.86835,-1.39869 -6.0676,-3.44 -3.19926,-2.04131 -5.88159,-3.71147 -5.96075,-3.71147 -0.0792,0 0.0706,0.41489 0.33284,0.92197 0.81417,1.57443 3.32851,9.20025 4.48434,13.60066 2.95724,11.2587 4.05018,22.1615 3.40104,33.92783 -0.1933,3.50376 -0.29216,6.42976 -0.21969,6.50224 0.0725,0.0725 1.04577,-0.54162 2.16287,-1.36464 3.78702,-2.79007 7.17613,-4.1737 11.22961,-4.58455 4.88548,-0.4952 7.22654,0.27956 10.18756,3.37147 1.73513,1.81184 1.80108,1.94714 2.31297,4.74502 0.42981,2.34928 0.4627,3.29278 0.17847,5.12 -1.0881,6.99516 -7.50053,14.76125 -15.55546,18.83921 -1.9602,0.99239 -6.37132,2.11533 -8.32204,2.11855 -0.748,0.001 -1.36,0.0481 -1.36,0.10416 0,0.0561 0.23205,0.88406 0.51568,1.84 0.83391,2.8106 2.96453,6.69808 3.67104,6.69808 0.16672,0 14.16092,-10.88823 31.09821,-24.19607 z m 230.88254,18.83657 c 3.17915,-1.88013 4.7111,-2.97892 5.04,-3.61495 1.06986,-2.06888 0.19603,-5.3555 -1.72139,-6.47441 l -0.97483,-0.56886 -6.09563,3.24264 c -3.35259,1.78346 -6.09562,3.38744 -6.09562,3.56439 0,0.17696 0.52836,2.10517 1.17413,4.2849 l 1.17413,3.96316 1.46587,-0.84785 c 0.80623,-0.46632 3.52123,-2.06338 6.03334,-3.54902 z m -261.38406,-6.6362 c 8.53854,-2.21256 16.5124,-10.39532 17.88505,-18.35361 0.4697,-2.72321 -0.3074,-5.60819 -1.9815,-7.35635 -2.04997,-2.14065 -2.81513,-2.44294 -6.12696,-2.42051 -4.62067,0.0313 -8.77215,1.63666 -12.85323,4.9703 -3.38368,2.76396 -5.36811,5.16359 -7.16818,8.66796 -1.33626,2.60142 -1.65639,3.5643 -1.90251,5.72223 -0.23067,2.02252 -0.19859,2.81622 0.14553,3.6001 0.69879,1.59182 3.93295,4.96119 5.08102,5.29344 1.58576,0.45891 4.90138,0.39972 6.92078,-0.12356 z m 247.36923,-6.0043 c -0.004,-0.22 -0.28873,-2.272 -0.63264,-4.56 -0.34391,-2.288 -0.6286,-4.34 -0.63265,-4.56 -0.008,-0.43153 -1.5305,-0.54221 -2.13367,-0.1551 -0.34017,0.21832 -0.11127,2.10981 1.00363,8.29365 0.10555,0.58542 0.41733,1.07993 0.73317,1.16288 1.06602,0.27998 1.66944,0.21412 1.66216,-0.18143 z m 9.60736,-31.43786 15.52,-3.70666 4.06537,-4.06774 4.06537,-4.06774 -0.31273,-3.68 c -0.4571,-5.37887 -0.5413,-5.76 -1.27251,-5.76 -0.73651,0 -0.73207,-0.12706 -0.1455,4.16 0.25285,1.848 0.46428,3.72611 0.46986,4.17357 l 0.0101,0.81357 -13.04,2.53465 -13.04,2.53465 -7.04,2.94627 c -7.02832,2.94137 -7.04116,2.94856 -7.74111,4.33178 -0.38561,0.76203 -0.7054,1.52951 -0.71063,1.70551 -0.0138,0.46553 2.60647,2.03779 3.17174,1.90314 0.264,-0.0629 7.464,-1.78234 16,-3.821 z m -20.16839,-31.40251 0.008,-28.84037 -3.21015,-1.33224 c -1.76558,-0.73274 -3.32947,-1.2585 -3.47531,-1.16837 -0.14583,0.0901 -0.35031,0.77981 -0.45439,1.53262 -0.46479,3.36171 -0.89989,4.72873 -1.5051,4.72873 -0.32556,0 -0.68949,0.30741 -0.80874,0.68313 -0.21162,0.66676 -0.32134,0.67836 -4.58156,0.48423 -2.40061,-0.10939 -8.61275,-0.27939 -13.80475,-0.37777 -10.99515,-0.20835 -11.52,-0.25956 -11.52,-1.12409 0,-0.34402 -0.216,-0.6255 -0.48,-0.6255 -0.60945,0 -0.62226,0.26159 0.32924,-6.72 0.96934,-7.11244 3.67076,-28.68564 3.67076,-29.31422 0,-0.24518 0.2257,-0.44578 0.50156,-0.44578 0.32865,0 0.44337,-0.19306 0.33277,-0.56 -0.12315,-0.40855 0.34701,-0.93512 1.73843,-1.94703 1.04898,-0.76287 1.90724,-1.55979 1.90724,-1.77093 0,-0.64698 -3.23113,-3.57846 -5.65604,-5.13152 -1.26281,-0.80878 -2.37881,-1.47052 -2.48,-1.47052 -0.10118,0 -0.18579,2.412 -0.18803,5.36 -0.009,11.66229 -1.99845,27.64428 -5.00105,40.17199 -0.62379,2.6026 -1.05941,4.92676 -0.96806,5.16481 0.0913,0.23805 10.14214,12.49987 22.33509,27.24849 l 22.16901,26.81566 0.56615,-1.26047 c 0.52781,-1.17512 0.56671,-3.21353 0.57454,-30.10085 z m 8.64839,24.57853 5.28,-2.17796 -0.0803,-1.4201 c -1.05411,-18.63459 -2.0658,-29.39127 -4.58785,-48.7801 -1.11297,-8.55619 -4.61084,-29.82341 -4.96926,-30.21333 -0.47295,-0.51452 -0.35662,1.54399 0.65436,11.57918 0.62869,6.24051 1.14308,11.70695 1.14308,12.14766 0,0.49057 -0.68179,1.65539 -1.75822,3.00389 l -1.75821,2.2026 -0.002,27.92 c -10e-4,22.12465 0.0813,27.9196 0.39822,27.91806 0.22,-0.001 2.776,-0.98202 5.68,-2.1799 z m -188.05693,-0.20408 c 3.66965,-0.50721 4.03899,-0.63549 12.32,-4.27928 8.35157,-3.67484 8.57562,-3.79785 10.31902,-5.66561 4.77874,-5.1196 10.3833,-11.85234 11.5785,-13.90922 1.02089,-1.75688 1.99016,-4.3865 2.45331,-6.65575 0.63505,-3.1115 0.68596,-3.06752 -2.1339,-1.8433 -1.364,0.59218 -3.848,1.72248 -5.52,2.51179 -6.34348,2.99458 -18.95242,7.69246 -24.96,9.29967 -9.01274,2.41118 -15.49326,2.96814 -21.37644,1.83718 -6.41526,-1.23324 -11.16495,-3.33967 -16.38824,-7.26797 -3.82308,-2.87525 -10.60831,-9.85191 -13.75353,-14.14155 -1.31902,-1.79895 -2.44572,-3.12828 -2.50379,-2.95408 -0.21944,0.65832 2.66229,11.56843 4.27209,16.17401 3.48753,9.97765 7.74962,19.09374 10.20255,21.82199 4.32223,4.80735 8.90098,5.91775 23.54736,5.71048 5.16128,-0.073 9.55024,-0.30763 11.94307,-0.63836 z m 231.95652,-3.09755 c 7.89578,-4.02551 15.2784,-9.53979 21.88534,-16.34676 6.34131,-6.5333 9.78283,-11.28785 14.3162,-19.77819 5.79657,-10.85609 9.17989,-23.75183 9.69946,-36.96998 0.39633,-10.0829 -1.5735,-21.92238 -5.32104,-31.98163 -1.26898,-3.40623 -5.24708,-11.84027 -6.17741,-13.09685 -0.43396,-0.58614 -1.90509,0.29629 -29.53942,17.71852 -15.9955,10.08445 -29.25633,18.49804 -29.46853,18.69685 -0.29337,0.27487 1.09362,1.395 5.78861,4.6749 6.05643,4.23099 6.20529,4.36246 7.78975,6.88 6.22684,9.89378 8.80657,19.51478 8.23887,30.72658 -0.16318,3.2229 -0.0913,4.80876 0.31915,7.04 0.73536,3.99752 1.00405,14.38901 0.50611,19.57305 -0.32034,3.33508 -1.55284,10.3625 -2.47414,14.10695 -0.10903,0.44313 -0.0304,0.72 0.20437,0.72 0.20984,0 2.11454,-0.88355 4.23268,-1.96344 z m -23.82252,-2.05339 c 10.5209,-2.05009 10.95147,-2.16231 10.81629,-2.81913 -0.0774,-0.37622 -0.30366,-2.19604 -0.50273,-4.04404 -0.19908,-1.848 -0.42913,-3.60262 -0.51124,-3.89915 -0.12566,-0.45384 0.19794,-0.57336 2.04516,-0.75538 l 2.19445,-0.21624 -0.39626,-2.44461 c -1.23495,-7.61864 -3.50699,-14.50806 -7.24139,-21.95786 -2.49951,-4.9863 -5.4317,-9.14561 -10.57939,-15.00686 -1.37392,-1.56437 -2.42789,-3.02713 -2.34214,-3.25057 0.0857,-0.22345 -0.0879,-0.47003 -0.38593,-0.54796 -0.39604,-0.10356 -0.70072,-0.90847 -1.13236,-2.99153 -1.35641,-6.54587 -3.52048,-10.27529 -8.37603,-14.43469 -2.34604,-2.00968 -4.67152,-3.6758 -4.86309,-3.48423 -0.0627,0.0627 0.60531,4.19887 1.48443,9.19153 3.20555,18.20493 5.36594,36.1716 6.91513,57.5089 0.43892,6.04524 0.79803,11.13094 0.79803,11.30156 0,0.17062 0.252,0.23712 0.56,0.14778 0.308,-0.0893 5.49068,-1.12323 11.51707,-2.29752 z m 18.42848,-5.66317 c 1.3048,-8.81586 1.37693,-15.88393 0.24574,-24.08 l -0.52999,-3.84 -6.27636,-10.24 c -5.97233,-9.74396 -6.56191,-10.85752 -12.17129,-22.98799 l -5.89494,-12.748 -4.97137,-3.79278 c -4.15598,-3.1707 -5.97226,-4.85875 -11.07384,-10.292 -3.35636,-3.57457 -7.87806,-8.26125 -10.04821,-10.41484 l -3.94574,-3.91562 -8.79978,-0.19892 c -7.33412,-0.1658 -21.56446,0.20318 -21.9228,0.56844 -0.0951,0.097 -1.11697,10.4077 -1.11697,11.27072 0,0.22736 1.42158,1.35988 3.15906,2.5167 l 3.15906,2.10332 11.82599,0.50548 c 14.83767,0.63422 15.77589,0.63753 15.77589,0.0555 0,-0.29779 0.51406,-0.51186 1.52,-0.63296 4.0247,-0.48452 5.2,-0.57608 5.2,-0.40512 0,0.10213 0.41668,2.17072 0.92595,4.59687 0.50928,2.42615 1.0243,5.10986 1.1445,5.9638 0.20306,1.44261 0.27528,1.54178 1.01927,1.39956 0.50567,-0.0967 0.86416,0.0122 0.97287,0.29554 0.11809,0.30774 0.29213,0.34904 0.5542,0.13155 0.48288,-0.40076 4.78973,2.42641 8.18321,5.37176 5.15844,4.47723 7.66257,8.72232 9.29678,15.76023 0.68402,2.94576 0.7434,3.05563 2.83712,5.24874 4.77413,5.0008 8.84776,10.9425 12.05031,17.57634 4.59033,9.50854 6.58338,17.1442 7.54441,28.90366 0.21934,2.684 0.49,4.88 0.60146,4.88 0.11145,0 0.44242,-1.62 0.73547,-3.6 z m -194.58141,-2.41952 c 13.77275,-6.54029 38.3344,-20.52223 53.19586,-30.28223 14.00656,-9.19857 20.90581,-14.20031 24.38792,-17.68052 4.88116,-4.87848 8.26845,-10.43214 10.79422,-17.69773 4.71422,-13.56083 7.86067,-28.36183 9.31966,-43.84 0.54611,-5.79357 0.76753,-22.86792 0.32244,-24.86479 -0.19317,-0.86669 -0.70637,-1.31929 -3.32633,-2.93359 -18.17959,-11.2014 -37.43187,-16.68275 -58.66387,-16.70229 -12.57973,-0.0116 -23.138,1.68485 -35.31404,5.67402 -18.48547,6.05628 -35.41883,17.40965 -48.84109,32.74665 -7.85558,8.97622 -14.31229,22.3037 -17.20822,35.52 -2.80302,12.79228 -2.46506,26.45027 0.97394,39.36 2.82287,10.59687 8.33191,21.546 15.25546,30.32 l 2.08321,2.64 h 4.39312 c 4.97732,0 7.87636,-0.49109 15.34257,-2.59898 7.34362,-2.07328 14.80312,-4.97095 27.03658,-10.50244 4.99322,-2.25773 5.80321,-2.53728 6.11527,-2.11051 0.19784,0.27056 0.66784,0.49193 1.04443,0.49193 0.62844,0 0.68473,0.16866 0.68473,2.05185 0,2.71442 -0.71485,6.33699 -1.67942,8.51062 -1.2156,2.73933 -2.83874,5.07718 -6.65757,9.58911 -1.94046,2.29263 -3.44859,4.16842 -3.35141,4.16842 0.0972,0 1.93883,-0.83678 4.09254,-1.85952 z m -52.30108,-10.06048 c -5.90234,-7.33722 -11.13801,-17.87764 -14.33979,-28.86876 -3.74294,-12.84881 -4.20313,-28.2308 -1.25715,-42.02027 1.92642,-9.01714 6.28889,-19.70093 11.3102,-27.69896 7.0188,-11.17965 20.0639,-23.56172 32.98368,-31.30726 3.66632,-2.198 12.19864,-6.5572 15.90755,-8.12723 1.18115,-0.49999 2.0946,-0.96203 2.02989,-1.02674 -0.23301,-0.23301 -7.46769,0.93129 -11.69744,1.88251 -15.50874,3.48771 -25.50167,8.22238 -37.12,17.58751 -3.99004,3.21622 -11.44962,10.906 -14.44498,14.89075 -8.70997,11.58691 -14.36772,24.89135 -16.9967,39.96845 -0.56949,3.26602 -0.67251,5.2032 -0.68923,12.96 -0.0215,9.97849 0.21191,12.0316 2.40974,21.19641 l 0.97758,4.07641 3.02102,4.03224 c 10.22833,13.65201 17.13823,19.80669 25.72257,22.91118 3.26319,1.18012 3.46541,1.13786 2.18306,-0.45624 z m -36.85335,-17.53878 3.24655,-8.65877 -0.90775,-3.26123 c -0.49926,-1.79367 -1.23994,-5.49322 -1.64596,-8.22122 -0.99461,-6.68271 -1.06991,-21.00245 -0.14218,-27.04 2.28628,-14.87889 8.01814,-28.54057 17.34043,-41.33032 l 1.82927,-2.50968 -1.99809,1.92 c -6.05971,5.82291 -14.2417,17.75349 -18.65374,27.2 -6.29125,13.47004 -9.37808,26.70375 -9.74071,41.76 -0.1913,7.94278 0.0308,11.31986 1.23682,18.80421 0.37614,2.33432 0.5971,4.33101 0.49101,4.4371 -0.10609,0.10608 -0.66819,0.29462 -1.24913,0.41897 l -1.05623,0.22609 3.68,2.43446 c 2.024,1.33895 3.82471,2.44452 4.00158,2.45682 0.17686,0.0123 1.78252,-3.8741 3.56813,-8.63643 z m 283.53241,-7.26122 c -0.39427,-8.47349 -3.1186,-16.98534 -7.52765,-23.51927 -1.49967,-2.22241 -2.0693,-2.72948 -6.84513,-6.09325 -2.86514,-2.018 -5.26152,-3.62256 -5.32529,-3.56567 -0.0638,0.0569 2.03523,4.77152 4.66443,10.47697 4.19991,9.11391 5.39552,11.36971 9.84627,18.57738 2.78625,4.51211 5.13595,8.20384 5.22156,8.20384 0.0856,0 0.0702,-1.836 -0.0342,-4.08 z m -56.27769,-8.60122 c 0.57189,-3.10267 0.99834,-5.68191 0.94768,-5.73165 -0.12782,-0.12548 -27.79106,1.36169 -27.91175,1.50053 -0.19814,0.22794 -1.22541,8.93396 -1.07224,9.08713 0.17649,0.1765 14.70132,0.65801 22.1842,0.73542 l 4.81233,0.0498 z m 11.04702,0.009 c 0.32529,-0.44651 0.54129,-0.85772 0.48,-0.9138 -0.0613,-0.0561 -1.19145,-0.39806 -2.51145,-0.75995 -2.36874,-0.64942 -2.40814,-0.64997 -3.02507,-0.0422 -0.6193,0.61012 -0.61635,0.61892 0.32,0.95252 0.51979,0.1852 1.52107,0.60826 2.22507,0.94014 1.67545,0.78984 1.8144,0.78006 2.51145,-0.17672 z m 1.48855,-4.26917 c 0,-0.731 -0.50452,-1.13699 -0.80625,-0.64878 -0.26881,0.43494 0.0443,1.26989 0.47621,1.26989 0.18152,0 0.33004,-0.2795 0.33004,-0.62111 z m -24.3564,-3.53314 c 7.10798,-0.34445 12.97233,-0.67501 13.03189,-0.73458 0.21619,-0.21618 1.08451,-7.10244 1.08451,-8.60075 v -1.53817 l -1.36,0.15503 c -0.748,0.0853 -6.4,0.44593 -12.56,0.80148 -6.16,0.35555 -11.78892,0.72039 -12.50871,0.81076 l -1.3087,0.16431 -0.53587,4.38809 c -0.29473,2.41344 -0.53381,4.56808 -0.53129,4.78808 0.006,0.5006 -0.71194,0.51204 14.68817,-0.23425 z m 21.4764,-8.44265 c 0,-2.29466 -3.02246,-20.54288 -3.49051,-21.07413 -0.11195,-0.12706 -0.0198,2.46494 0.20486,5.76 0.22463,3.29507 0.5158,8.07287 0.64703,10.61733 0.23602,4.57584 0.24735,4.62872 1.03862,4.8481 1.26123,0.34969 1.6,0.31765 1.6,-0.1513 z m -20.36433,-4.19198 c 7.19162,-0.42669 13.15147,-0.85159 13.24411,-0.94423 0.0926,-0.0926 0.24021,-1.54059 0.32793,-3.21766 0.14818,-2.83293 0.11668,-3.04867 -0.44411,-3.04131 -0.33198,0.004 -6.32685,-0.2364 -13.32193,-0.53501 -6.99508,-0.2986 -12.80287,-0.45838 -12.90619,-0.35505 -0.19313,0.19313 -1.0874,6.87379 -1.09259,8.16214 -0.002,0.47596 0.18692,0.71779 0.55711,0.71346 0.308,-0.004 6.44405,-0.35565 13.63567,-0.78234 z m 95.08433,-40.86583 c 0.20728,-0.1964 0.15092,-0.24725 -0.16,-0.14437 -17.28564,5.71995 -39.76089,9.16451 -59.74763,9.15692 l -5.69237,-0.002 -2.96647,1.34276 c -1.63156,0.73851 -2.92756,1.45383 -2.88,1.58959 0.0476,0.13577 2.52448,2.86197 5.50427,6.05824 4.63676,4.97361 6.17195,6.37792 10.64909,9.74124 l 5.23129,3.92985 24.87091,-15.68444 c 13.679,-8.62644 25.01491,-15.82087 25.19091,-15.98763 z m -81.18828,27.99608 0.0917,-2.93864 -1.37173,-0.17236 c -1.96441,-0.24683 -20.74485,-0.93188 -21.64367,-0.78949 l -0.75194,0.11912 0.66146,0.83715 c 0.36381,0.46043 0.60472,0.8939 0.53536,0.96326 -0.0694,0.0694 -0.18223,0.72817 -0.25081,1.46401 -0.0863,0.9257 -0.36461,1.53761 -0.90341,1.9861 l -0.77871,0.64819 1.92,0.0423 c 1.056,0.0233 6.096,0.22504 11.2,0.44837 5.104,0.22334 9.712,0.38909 10.24,0.36834 l 0.96,-0.0377 z m -26.33172,-25.85808 c 2.288,-0.10429 7.67779,-0.20498 11.97731,-0.22377 l 7.81731,-0.0342 -2.53731,-1.27781 c -2.69599,-1.35771 -5.05229,-2.22812 -10.21731,-3.77424 -3.2001,-0.95792 -9.95967,-2.21286 -11.92,-2.21297 l -1.04,-7e-5 v 3.78667 c 0,2.08267 0.0934,3.88004 0.2075,3.99417 0.11413,0.11413 0.51013,0.14547 0.88,0.0697 0.36988,-0.0758 2.5445,-0.22319 4.8325,-0.32748 z m 15.99111,-5.54433 c -7.8852,-7.26313 -23.71164,-20.44481 -24.09117,-20.06528 -0.0622,0.0622 0.11101,1.24107 0.38481,2.61981 0.60677,3.05533 1.47525,9.72739 1.47525,11.3335 0,1.05809 0.0982,1.19293 1,1.37329 0.55,0.11 1.52228,0.2 2.16063,0.2 2.93051,0 11.54736,2.07267 16.51937,3.97351 3.43826,1.31448 3.34127,1.293 2.55111,0.56517 z M 295.10417,558.9958 v -53.92155 l -31.76,0.0815 -31.76,0.0815 -0.0809,53.84 -0.0809,53.84 h 31.84087 31.84093 z M 728.5185,263.63402 c 5.43712,-0.71274 13.87309,-2.9605 21.30568,-5.67688 3.608,-1.31861 7.064,-2.62024 7.68,-2.89252 1.02112,-0.45135 -1.56328,-0.49736 -29.27315,-0.52116 l -30.39315,-0.0261 2.17685,1.587 c 5.69338,4.15069 12.17173,6.80089 19.08945,7.80923 1.96037,0.28575 6.02193,0.16513 9.41432,-0.27957 z M 531.90418,220.76379 c 0,-0.0845 -0.576,-1.59936 -1.28,-3.36643 -0.704,-1.76708 -1.28,-3.35397 -1.28,-3.52643 0,-0.92457 1.17429,0.062 4.00691,3.36643 l 3.15459,3.68 h 124.73925 124.73925 v -34.24 -34.24 h -289.28 -289.28001 v 34.24 34.24 h 162.24001 c 89.232,0 162.24,-0.0691 162.24,-0.15357 z M 226.30417,186.51736 v -19.36 h 23.2 23.2 v 19.36 19.36 h -23.2 -23.2 z m 41.28,0.16 v -14.08 h -17.92 -17.92 v 14.08 14.08 h 17.92 17.92 z m 16,-0.16 v -19.36 h 23.2 23.2 v 19.36 19.36 h -23.2 -23.2 z m 40.96,0.16 v -14.08 h -17.76 -17.76 v 14.08 14.08 h 17.76 17.76 z m 16.32001,-0.16 v -19.36 h 23.2 23.2 v 19.36 19.36 h -23.2 -23.2 z m 40.96,0.16 v -14.08 h -17.92 -17.92 v 13.86666 c 0,7.62667 0.096,13.96267 0.21333,14.08 0.11733,0.11734 8.18133,0.21334 17.92,0.21334 h 17.70667 z"
       id="path1" />
  </g>
</svg>
