<?xml version="1.0" encoding="UTF-8" standalone="no"?>
<!-- Created with Inkscape (http://www.inkscape.org/) -->

<svg
   version="1.1"
   id="svg1"
   width="1290.6667"
   height="1464"
   viewBox="0 0 1290.6667 1464"
   sodipodi:docname="ICON CASC BOMBER copy.svg"
   inkscape:version="1.4 (86a8ad7, 2024-10-11)"
   xmlns:inkscape="http://www.inkscape.org/namespaces/inkscape"
   xmlns:sodipodi="http://sodipodi.sourceforge.net/DTD/sodipodi-0.dtd"
   xmlns="http://www.w3.org/2000/svg"
   xmlns:svg="http://www.w3.org/2000/svg">
  <defs
     id="defs1" />
  <sodipodi:namedview
     id="namedview1"
     pagecolor="#ffffff"
     bordercolor="#000000"
     borderopacity="0.25"
     inkscape:showpageshadow="2"
     inkscape:pageopacity="0.0"
     inkscape:pagecheckerboard="0"
     inkscape:deskcolor="#d1d1d1"
     inkscape:zoom="0.79713115"
     inkscape:cx="644.81234"
     inkscape:cy="732"
     inkscape:window-width="2560"
     inkscape:window-height="1369"
     inkscape:window-x="-8"
     inkscape:window-y="-8"
     inkscape:window-maximized="1"
     inkscape:current-layer="g1" />
  <g
     inkscape:groupmode="layer"
     inkscape:label="Image"
     id="g1">
    <path
       style="fill:#000000"
       d="M 177.01801,1430.4158 C 110.74186,1420.244 59.148527,1377.5034 39.037987,1316.1114 c -9.45434,-28.8616 -8.79989,17.6 -8.35983,-593.48758 l 0.39654,-550.66666 2.89731,-12 c 8.38969,-34.7482 22.08631,-59.88099 44.79342,-82.194313 23.874433,-23.46038 53.576203,-38.70444 89.753923,-46.065054 11.27357,-2.293689 33.8254,-2.407304 477.83202,-2.407304 444.84993,0 466.54463,0.109822 478.00003,2.419715 34.4418,6.944953 63.0517,21.875743 86.0032,44.882903 23.6698,23.727243 37.0649,48.534663 45.7335,84.697383 l 2.8765,12 0.4065,550.66667 c 0.2864,387.93654 -0.018,553.93274 -1.0298,561.71884 -4.8999,37.7015 -21.138,71.0472 -47.2234,96.9748 -18.8728,18.7587 -39.4416,31.3717 -65.2045,39.9842 -27.999,9.36 12.5324,8.675 -501.40335,8.4739 -255.28729,-0.1 -465.65871,-0.4118 -467.49204,-0.6931 z m 942.66669,-41.0294 c 48.0224,-10.2941 84.9558,-44.874 96.5611,-90.4081 4.8663,-19.093 4.896,-22.9315 4.4819,-578.35448 l -0.4062,-544.66666 -3.0106,-11.19134 c -12.5641,-46.7053 -48.1723,-81.052413 -94.9533,-91.590623 l -14.3844,-3.24033 -468.47758,0.34448 -468.47761,0.34447 -11.71776,3.67564 c -47.16344,14.79426 -79.961053,51.638773 -87.524673,98.324363 -0.96706,5.96907 -1.40178,179.86055 -1.39666,558.66667 0.007,531.73451 0.0901,550.39851 2.49659,562.00001 7.39533,35.6525 29.931093,65.4106 63.073373,83.2873 11.81937,6.3753 18.37378,8.8098 32.40246,12.0354 10.24334,2.3551 29.16106,2.456 476.6667,2.5417 393.57866,0.075 467.34696,-0.1994 474.66666,-1.7685 z M 457.95213,1214.4468 c -0.46401,-0.464 -14.32525,-2.5679 -30.80274,-4.6753 l -29.95907,-3.8316 -24.41948,-10.4826 c -13.43072,-5.7654 -25.75458,-10.8972 -27.38635,-11.404 -4.98146,-1.5472 -36.44116,-35.8744 -42.61084,-46.4948 -5.21883,-8.9836 -5.97465,-11.6601 -11.74755,-41.6013 -3.39343,-17.6 -7.88108,-37.4 -9.97258,-44 -5.23561,-16.5217 -12.66687,-47.3509 -16.23045,-67.33333 -3.62015,-20.2997 -4.30735,-60.05858 -1.30208,-75.33338 2.67419,-13.59201 10.81379,-37.73681 18.68936,-55.4389 l 6.86869,-15.43891 -3.30101,-7.22776 c -6.49776,-14.22726 -7.68945,-21.52551 -8.40714,-51.48775 -0.97305,-40.62263 2.63382,-89.08213 10.43821,-140.2408 2.2362,-14.65854 2.4114,-18.0944 0.96925,-19.00847 -0.96818,-0.61366 -6.56033,-2.71534 -12.427,-4.6704 -5.86667,-1.95506 -21.16667,-7.41897 -34,-12.14202 -12.83334,-4.72306 -33.13317,-12.15166 -45.11075,-16.50801 -11.97758,-4.35635 -23.25825,-8.89091 -25.06815,-10.07681 -4.23534,-2.7751 -7.57219,-9.24754 -6.65387,-12.90642 0.39467,-1.57247 12.98919,-15.33863 27.98782,-30.59145 l 27.27025,-27.7324 13.12068,-2.62366 c 18.38367,-3.67606 25.26838,-7.43987 39.79383,-21.75494 l 12.32987,-12.1513 0.89678,-9.50648 c 1.59229,-16.87943 13.57152,-36.93162 27.34196,-45.76809 3.79235,-2.43354 12.11437,-5.88383 18.49338,-7.66732 17.42001,-4.8704 41.22946,-18.49616 62.97712,-36.04078 12.0303,-9.70528 34.28923,-32.72115 42.62109,-44.07047 5.01824,-6.83564 6.65451,-8.17688 10,-8.19693 2.2,-0.0132 5.46443,1.10159 7.2543,2.47727 l 3.25429,2.50123 6.7498,-6.44201 c 34.1887,-32.62976 86.63003,-60.13958 139.40829,-73.13119 74.35982,-18.30401 159.90087,-12.1782 226.66668,16.23217 38.33475,16.31231 71.84531,40.01922 94.66671,66.97155 5.5,6.49557 14.8,17.12972 20.6666,23.63143 22.8859,25.36325 33.361,38.43069 46.1325,57.54938 21.89687,32.77923 37.73327,68.13324 46.34377,103.46024 7.7163,31.65791 8.8606,43.15875 8.8224,88.66667 -0.046,54.47544 -3.0335,79.27024 -18.0308,149.64026 -5.611,26.32751 -6.6012,33.15028 -6.6012,45.48468 0,17.33576 1.2454,24.60877 6.5841,38.45266 10.2483,26.57456 51.552,87.84891 76.2965,113.18621 6.4977,6.6534 11.5078,12.5034 11.1334,13 -0.3743,0.4966 -0.3209,0.6431 0.1188,0.3256 0.4397,-0.3174 5.1923,2.9137 10.5613,7.1803 5.3691,4.2665 14.829,10.8181 21.0222,14.5589 6.1931,3.7408 12.0005,7.6935 12.9053,8.7837 7.594,9.1503 -12.5691,47.19083 -40.5023,76.41323 -28.2841,29.5896 -60.5762,50.1162 -98.9291,62.8847 -39.82897,13.2599 -78.61547,16.0572 -119.19017,8.5961 -33.00699,-6.0695 -74.66543,-25.0241 -103.28097,-46.993 l -7.94763,-6.1016 -16.05237,-0.1379 c -13.72206,-0.1179 -17.56215,-0.6578 -26.45242,-3.7189 -10.23359,-3.5236 -12.72583,-4.7663 -22.52808,-11.2333 l -4.92813,-3.2513 -11.27042,7.4221 c -6.19873,4.0822 -13.28108,8.3958 -15.73854,9.5859 -2.45747,1.19 -6.86813,5.2076 -9.80146,8.928 -12.9387,16.4104 -27.47818,30.2312 -36.44488,34.6435 -8.0132,3.9431 -9.97375,4.3502 -20.94979,4.3502 h -12.10927 l -15.24803,14.2307 c -35.72922,33.3454 -62.08112,50.5951 -93.22845,61.0264 -17.21843,5.7666 -46.90289,10.0818 -49.75216,7.2325 z m -6.26744,-38.6451 c 0,-1.6264 0.7365,-1.9237 3.00001,-1.211 1.65,0.5196 9.9417,1.2596 18.42601,1.6446 12.92052,0.5864 17.25171,0.2391 26.66667,-2.1379 20.03281,-5.0577 41.08487,-17.0103 58.65812,-33.304 l 8.09213,-7.5029 -7.43825,-7.8057 c -8.53916,-8.9611 -16.09844,-23.5254 -17.40174,-33.5276 -0.47777,-3.6667 -1.08541,-7.3655 -1.35031,-8.2196 -0.31484,-1.0151 -4.78261,0.3102 -12.90047,3.8267 -18.00078,7.7977 -45.18547,16.4969 -64.02613,20.4885 -13.23425,2.8039 -21.40224,3.6093 -42.3927,4.1804 -36.40626,0.9904 -59.068,-2.6146 -88.65454,-14.103 l -9.58575,-3.7222 3.14256,9.896 c 3.90951,12.3111 17.07907,29.8524 29.02975,38.6664 11.81911,8.717 39.93763,22.3831 52.91366,25.7171 9.22139,2.3692 39.23046,8.7926 42.82098,9.1657 0.55,0.057 1,-0.866 1,-2.0515 z m 141.49363,-61.9303 c 2.47364,-1.3239 2.10944,-1.9987 -5.42508,-10.0532 -4.4422,-4.7487 -9.01445,-10.0652 -10.16055,-11.8143 l -2.08383,-3.1804 -4.76481,3.2335 c -2.62064,1.7784 -5.22491,3.2335 -5.78725,3.2335 -1.8761,0 0.23948,4.942 4.14262,9.6772 4.21701,5.1159 13.46368,10.3201 18.33961,10.3217 1.69821,6e-4 4.28089,-0.6375 5.73929,-1.418 z m 387.08461,-3.9548 c 36.58227,-6.3523 75.11827,-23.8777 102.08847,-46.4277 16.0127,-13.3883 34.4384,-34.4836 42.6388,-48.8164 2.3728,-4.1471 4.0997,-7.6983 3.8377,-7.8916 -10.5793,-7.80253 -20.3897,-16.14543 -20.1101,-17.10183 0.2015,-0.6894 -0.2864,-0.8501 -1.0841,-0.357 -1.8264,1.1287 -35.1966,-32.4877 -45.8929,-46.2315 l -7.9383,-10.19985 -4.554,5.84525 c -2.5047,3.2149 -5.1739,5.4621 -5.9316,4.9939 -0.7576,-0.4683 -1.0088,-0.2548 -0.5581,0.4745 0.4507,0.7292 -3.3838,6.0719 -8.521,11.8726 -42.75797,48.28033 -103.06327,85.92963 -178.4236,111.39173 -10.56212,3.5687 -20.24793,6.4885 -21.52402,6.4885 -1.27609,0 -2.71606,1.0317 -3.19995,2.2927 -0.48388,1.2609 -0.49163,1.9045 -0.0172,1.4301 0.47441,-0.4744 3.95612,1.1139 7.73714,3.5296 23.08503,14.7492 57.27446,27.138 84.20786,30.5134 13.1844,1.6523 42.6885,0.7213 57.2449,-1.8064 z m -340.17868,-10.1595 c 4.97343,-2.5643 27.60046,-22.895 27.60046,-24.7995 0,-0.7108 -6.6866,-9.0349 -14.85912,-18.4979 l -14.85912,-17.2055 -4.80755,2.9002 c -2.64415,1.5951 -12.60755,7.3923 -22.14088,12.8826 -9.53334,5.4904 -17.57429,10.1845 -17.86879,10.4312 -0.91908,0.7702 8.51785,14.1539 15.21525,21.5786 7.23181,8.0171 18.15731,14.8792 23.71975,14.8979 2.05309,0.01 5.65309,-0.9776 8,-2.1876 z m -199.73289,-17.1573 c 27.19738,-4.0965 56.85151,-13.733 103.33334,-33.5795 46.86228,-20.0089 87.08643,-41.4901 100.10244,-53.45833 l 7.09978,-6.5283 -2.26777,-9.3957 c -4.05509,-16.8008 -2.39442,-34.7123 5.65693,-61.01415 6.0819,-19.86808 35.60682,-135.66932 37.49927,-147.07777 2.29047,-13.80794 -0.64549,-24.25484 -8.42257,-29.96968 -8.59482,-6.31574 -16.27569,-8.70793 -185.00142,-57.61839 -81.62126,-23.66049 -97.19934,-28.3227 -143.14469,-42.84035 -19.69624,-6.22355 -36.00992,-11.11698 -36.25261,-10.87429 -0.70784,0.70784 -5.60869,36.053 -7.81755,56.38048 -3.40823,31.36488 -5.097,65.89647 -4.54451,92.92493 0.64582,31.59413 0.42109,30.99888 21.20727,56.1736 24.87051,30.12138 24.92846,30.26983 15.7156,40.2646 -7.93794,8.61165 -10.384,8.19063 -21.47571,-3.69646 -4.96092,-5.31667 -9.02014,-10.11667 -9.0205,-10.66667 -3.5e-4,-0.55 -1.12031,-1 -2.48879,-1 -2.89699,0 -8.07518,10.72149 -14.81115,30.66667 -3.83145,11.34487 -4.48022,15.58853 -6.21712,40.66667 -1.87774,27.11141 -1.84958,28.56391 0.88728,45.77101 5.72663,36.00433 14.93408,67.65653 22.12449,76.05693 11.04599,12.9047 34.25412,23.4011 63.83799,28.872 13.06196,2.4156 47.78864,2.3845 64,-0.057 z m 256.92475,-39.9514 c -11.68137,-13.7389 -26.28856,-30.0159 -26.89003,-29.964 -0.38575,0.033 -3.81735,2.9004 -7.62576,6.3715 l -6.92438,6.3109 16.12115,17.0513 16.12115,17.0512 6.39463,-6.2985 6.39464,-6.2985 z m 55.58289,-3.0359 c -26.77636,-27.7507 -48.43558,-57.76123 -52.48539,-72.72243 -3.76747,-13.9182 -2.76789,-20.5376 12.7249,-84.26625 8.00303,-32.92 17.68789,-66.91743 33.5346,-117.71893 l 12.18174,-39.05226 -6.56507,-6.77776 c -8.15701,-8.42129 -32.49563,-27.96409 -51.8984,-41.67206 -29.54042,-20.87018 -74.89982,-47.17564 -109.86893,-63.71673 -66.75946,-31.57857 -210.61233,-88.68483 -244.62233,-97.1094 -20.48395,-5.07405 -31.59697,-9.68987 -40.2001,-16.69721 l -6.80465,-5.54247 -9.25201,7.90313 c -5.08861,4.34672 -11.7801,9.51126 -14.86999,11.47675 -3.08989,1.96548 -5.63989,3.95788 -5.66667,4.42754 -0.0268,0.46967 4.90132,2.16398 10.95132,3.76514 46.89394,12.41073 86.99389,25.24748 141.00001,45.13678 90.03793,33.15905 146.27888,56.54035 193.74848,80.54793 69.02986,34.9116 100.98937,62.51081 107.41694,92.76185 3.83582,18.0531 1.16896,34.64003 -15.15643,94.2677 -5.6218,20.53334 -14.73424,55.63334 -20.24987,78 -11.43341,46.36415 -11.9333,52.53195 -5.25189,64.79945 8.04115,14.7641 29.63253,40.35863 46.15084,54.70753 12.71542,11.0454 29.9691,20.9427 37.84957,21.7118 0.64585,0.063 -5.05415,-6.3405 -12.66667,-14.2301 z m 86.15905,4.0894 c 33.02891,-8.1671 93.05938,-38.292 128.31738,-64.39333 21.4695,-15.8937 49.30307,-44.65282 62.42397,-64.49972 l 5.1665,-7.81497 -3.7152,-6.8517 c -29.2142,-53.87813 -34.86647,-68.99892 -36.45327,-97.51836 -0.941,-16.91284 1.0708,-35.34013 6.98727,-64 5.8978,-28.56903 10.6827,-57.7038 13.1387,-80 2.446,-22.20422 3.3733,-32.66666 2.8955,-32.66666 -0.2088,0 -6.0155,2.7736 -12.9037,6.16357 -27.79027,13.67687 -81.41277,38.1255 -102.52377,46.74468 -20.7381,8.46689 -45.9727,17.89161 -72.66671,27.13982 -30.68838,10.63207 -36.87245,13.9922 -41.21825,22.39604 -2.6373,5.09997 -26.25589,79.38603 -40.10653,126.14453 -20.22951,68.29297 -25.75965,93.20387 -23.44619,105.61487 1.83438,9.8409 11.07588,22.9292 33.21013,47.03403 20.82106,22.6746 38.96225,36.0264 52.53693,38.6669 6.85376,1.3332 17.51539,0.5212 28.35724,-2.1597 z m -28.22339,-22.8042 c -3.78954,-1.351 -9.18954,-4.1654 -12,-6.2542 -11.61898,-8.6356 -45.09453,-45.70283 -49.36837,-54.66513 -1.86589,-3.9128 -1.85023,-5.3624 0.16751,-15.5022 2.78127,-13.97678 12.37667,-50.20887 20.26465,-76.51901 8.42026,-28.08551 37.80874,-117.93954 39.96935,-122.20461 2.65265,-5.23635 7.66891,-7.78131 38.9362,-19.75398 35.90393,-13.74812 64.03223,-25.547 99.77143,-41.85083 15.5013,-7.07149 29.427,-12.85725 30.9461,-12.85725 4.3248,0 9.3149,6.46167 10.771,13.94725 4.5683,23.48578 3.0983,43.93687 -7.8743,109.54466 -12.5014,74.74908 -28.0716,132.34521 -39.934,147.72107 -11.3697,14.7372 -59.3071,52.7904 -85.11986,67.56893 -21.05586,12.0551 -34.38298,15.1557 -46.52971,10.8253 z m 27.27985,-27.56413 c 10.3593,-4.9646 39.74742,-23.7552 52.89732,-33.8223 11.8949,-9.1063 32.5233,-29.4224 36.1386,-35.5914 4.3288,-7.38664 6.5131,-13.9806 10.4591,-31.57448 3.6927,-16.46476 8.7789,-45.45756 8.0987,-46.16528 -0.2346,-0.24405 -4.2268,2.53178 -8.8717,6.1685 -4.6448,3.63673 -12.3451,9.10092 -17.1118,12.14264 -14.8807,9.49574 -133.19311,98.04622 -133.26506,99.74172 -0.0955,2.2498 19.04599,23.3441 26.3388,29.0258 7.82698,6.098 12.71757,6.1124 25.31604,0.075 z m -40.02603,-63.6445 c 25.96838,-19.69216 95.92245,-73.44702 104.63615,-80.40569 5.2237,-4.17149 5.7578,-5.39734 3.7411,-8.58487 -0.9856,-1.55784 -3.7175,-0.24433 -14.3129,6.8817 -7.2021,4.84385 -15.3852,9.89066 -18.18465,11.21512 -4.55928,2.15707 -5.44924,2.20415 -8.53712,0.45163 -5.06868,-2.87671 -8.81191,-8.47312 -7.79996,-11.66151 1.27174,-4.00688 6.89468,-9.18236 18.28923,-16.83376 l 10.1956,-6.84632 -9.3101,-17.30744 c -18.87429,-35.08724 -29.25732,-52.64077 -31.13738,-52.64077 -1.05615,0 -6.04922,1.8462 -11.09573,4.10268 l -9.17547,4.10268 -6.9975,22.89732 c -25.06498,82.01799 -37.48866,125.18456 -43.30939,150.48013 -1.12842,4.904 -2.41152,9.854 -2.85132,11 -0.43979,1.1461 -0.42174,2.0839 0.0401,2.0839 0.46186,0 12.07605,-8.5207 25.80932,-18.9348 z M 941.84843,822.45736 c 9.2111,-6.57294 13.0044,-11.04192 12.28,-14.46761 -0.3363,-1.59072 -3.6977,0.0986 -13.8911,6.98114 -12.4364,8.3971 -13.3465,9.30583 -12.105,12.08801 1.6323,3.65804 2.593,3.33574 13.7161,-4.60154 z m -11.1637,-28.1723 c 4.95,-3.32886 9,-6.60154 9,-7.27261 0,-3.00957 -30.3677,-57.05529 -32.0588,-57.05529 -2.2242,0 -43.23288,16.31257 -44.85507,17.8426 -1.20136,1.13311 2.87692,9.31722 16.99997,34.11486 10.2193,17.94327 18.5806,33.12339 18.5806,33.73361 0,0.61021 5.25,-2.58506 11.6666,-7.1006 6.4167,-4.51555 15.7167,-10.9337 20.6667,-14.26257 z m 28.6467,-18.99457 c 2.7109,-5.27372 0.7605,-12.76365 -7.2914,-28 -6.0009,-11.35516 -15.1299,-26.92168 -17.0725,-29.11141 -1.0645,-1.19996 -12.6161,5.22068 -12.6161,7.01233 0,1.12798 4.7198,10.31172 10.4885,20.40831 5.7687,10.09659 11.8413,21.05744 13.4947,24.35744 1.6534,3.3 3.631,6.77895 4.3948,7.73101 2.1039,2.62268 6.6765,1.34815 8.602,-2.39768 z M 639.66379,695.62382 C 639.63579,694.28478 619.8039,681.50946 601.6847,671.15841 536.53337,633.93907 374.98719,572.2066 266.93766,543.2398 c -16.30851,-4.37212 -31.66209,-7.93258 -34.11907,-7.91212 -3.78574,0.0315 -6.26343,1.78479 -16.24122,11.49269 -6.47569,6.30053 -11.26661,11.96287 -10.6465,12.58298 1.46895,1.46895 39.27946,15.73155 78.96504,29.7866 39.15837,13.86834 84.44053,28.72972 120.12212,39.42347 31.34078,9.39281 201.34902,58.64307 219.26827,63.52056 6.56422,1.78673 12.21422,3.52788 12.55556,3.86922 0.97617,0.97617 2.84503,0.72492 2.82193,-0.37938 z m 173.06156,-14.79709 c 22.12556,-6.73716 35.09216,-11.45121 62.95937,-22.88905 34.93521,-14.33883 108.56401,-47.5021 134.82178,-60.72531 l 9.544,-4.80627 -0.9089,-14.89114 c -3.4019,-55.73529 -19.98877,-106.12941 -49.29187,-149.75861 -5.4921,-8.17711 -9.576,-15.37711 -9.0753,-16 0.5007,-0.62289 0.4069,-0.72914 -0.2083,-0.23612 -0.6153,0.49302 -4.7767,-3.40698 -9.2477,-8.66667 -4.4709,-5.25969 -12.6676,-13.99418 -18.2147,-19.40997 -5.5471,-5.4158 -9.9357,-10.3658 -9.7523,-11 0.1833,-0.63421 -0.1167,-1.01967 -0.6667,-0.85659 -1.9639,0.58232 -8.295,-4.6152 -7.4415,-6.10902 0.478,-0.83645 0.3857,-1.08369 -0.205,-0.54941 -0.5908,0.53428 -3.837,-1.05029 -7.2138,-3.52126 -65.47533,-47.91104 -151.27758,-64.80044 -227.47305,-44.77602 -34.61365,9.09658 -69.22193,27.54553 -93.49403,49.8397 -5.2217,4.7962 -9.8717,8.44267 -10.33333,8.10326 -0.46162,-0.3394 -0.58031,-0.25809 -0.26375,0.1807 0.31657,0.43879 -3.50808,5.52352 -8.49921,11.29941 -12.58481,14.56353 -24.16874,32.33478 -33.57475,51.50804 -10.04621,20.47826 -10.52098,23.14729 -5.78121,32.5009 13.95864,27.54643 32.64865,47.44825 70.79032,75.38016 8.89757,6.51587 21.35864,15.63641 27.69128,20.26786 6.33264,4.63146 11.20943,8.91348 10.8373,9.51559 -0.37213,0.60212 0.36679,1.91275 1.64205,2.9125 2.14391,1.68075 2.16965,1.61677 0.34163,-0.84892 -1.93694,-2.6126 -1.91936,-2.61761 0.86708,-0.24698 7.32483,6.23178 3.09855,12.10845 -12.14628,16.88946 -5.54241,1.73819 -10.07099,3.80471 -10.06352,4.59227 0.0283,2.97941 21.95978,17.44805 70.48902,46.50298 46.72953,27.97744 65.31002,38.36722 73.4974,41.09804 1.83333,0.6115 9.93334,0.88241 18,0.60205 12.43244,-0.43211 17.36409,-1.33112 32.37397,-5.90158 z M 588.2847,570.13498 c -0.69666,-0.63554 -6.96666,-4.93793 -13.93333,-9.56087 -36.31607,-24.09864 -59.1872,-47.04764 -75.65969,-75.91732 -26.76506,-46.90842 -23.34552,-98.16162 9.80294,-146.92969 10.51585,-15.47094 24.48083,-31.95364 26.18198,-30.90227 0.78107,0.48273 1.03713,0.25799 0.56904,-0.4994 -0.4681,-0.7574 2.17844,-4.21086 5.8812,-7.67436 3.70276,-3.46349 6.44098,-6.58857 6.08494,-6.94461 -0.92722,-0.92722 -26.47167,13.39147 -37.6617,21.1109 -14.15932,9.76778 -28.39834,22.42422 -35.71514,31.7456 -6.72268,8.5645 -6.50977,8.47514 -14.81691,6.21838 -2.11273,-0.57396 -4.60544,1.66219 -12,10.76491 -9.77329,12.03094 -30.80102,32.01119 -46.66667,44.342 -5.13334,3.98964 -9.46342,7.31735 -9.62242,7.39492 -0.159,0.0776 3.2664,3.8775 7.612,8.44427 4.83943,5.08575 9.85976,12.26574 12.95575,18.52909 4.88867,9.89003 5.05434,10.68797 5.04461,24.29658 -0.009,12.84835 -0.35006,14.7657 -3.92374,22.07071 -2.39577,4.89723 -7.34805,11.40964 -12.76866,16.79121 l -8.85498,8.79121 4.11205,1.59434 c 2.26163,0.87688 14.01206,5.11272 26.11206,9.41296 12.1,4.30024 33.4,12.0124 47.33333,17.13814 58.20215,21.41116 91.49424,30.52316 112.60001,30.81848 4.92884,0.069 8.05929,-0.37294 7.33333,-1.03518 z M 370.5208,487.92031 c 7.30239,-2.48817 16.47528,-11.16993 18.59818,-17.6024 3.76859,-11.41892 -1.20987,-25.16762 -11.72136,-32.37021 -12.40172,-8.49779 -35.02327,-12.20109 -45.8853,-7.51172 -21.17883,9.14336 -26.80658,36.92403 -10.29459,50.81795 11.04382,9.29276 32.91572,12.25011 49.30307,6.66638 z M 534.50528,385.29049 c 18.9374,-29.15271 44.54321,-53.21908 76.85831,-72.23753 23.96833,-14.10611 48.03549,-23.3973 76.2433,-29.43393 15.78405,-3.37787 18.77116,-3.58333 52.07782,-3.58211 37.21565,10e-4 53.04474,1.70461 80.14402,8.62367 14.46487,3.69321 15.38519,3.1681 3.85599,-2.20015 -35.34236,-16.45619 -76.62562,-25.01809 -120.00001,-24.88728 -36.60459,0.11039 -64.38403,5.90677 -94.09309,19.63321 -34.52785,15.95284 -65.88305,46.08193 -81.9556,78.75079 -8.16125,16.58844 -11.85716,30.60854 -12.82929,48.66666 l -0.75366,14 7.19467,-14 c 3.95707,-7.7 9.92296,-18.2 13.25754,-23.33333 z"
       id="path1" />
  </g>
</svg>
