<?xml version="1.0" encoding="UTF-8" standalone="no"?>
<!-- Created with Inkscape (http://www.inkscape.org/) -->

<svg
   version="1.1"
   id="svg1"
   width="1208"
   height="1178.6667"
   viewBox="0 0 1208 1178.6667"
   sodipodi:docname="ICONA VECTORIAL BOMBER BRUT.svg"
   inkscape:version="1.4 (86a8ad7, 2024-10-11)"
   xmlns:inkscape="http://www.inkscape.org/namespaces/inkscape"
   xmlns:sodipodi="http://sodipodi.sourceforge.net/DTD/sodipodi-0.dtd"
   xmlns="http://www.w3.org/2000/svg"
   xmlns:svg="http://www.w3.org/2000/svg">
  <defs
     id="defs1" />
  <sodipodi:namedview
     id="namedview1"
     pagecolor="#ffffff"
     bordercolor="#000000"
     borderopacity="0.25"
     inkscape:showpageshadow="2"
     inkscape:pageopacity="0.0"
     inkscape:pagecheckerboard="0"
     inkscape:deskcolor="#d1d1d1"
     showgrid="false"
     inkscape:zoom="0.99010174"
     inkscape:cx="604.48333"
     inkscape:cy="589.33337"
     inkscape:window-width="2560"
     inkscape:window-height="1369"
     inkscape:window-x="-8"
     inkscape:window-y="-8"
     inkscape:window-maximized="1"
     inkscape:current-layer="g1" />
  <g
     inkscape:groupmode="layer"
     inkscape:label="Image"
     id="g1">
    <path
       style="fill:#000000"
       d="m 1019.7167,1150.7399 c 0,-7.8704 -4.7199,-30.152 -8.8287,-41.6781 -8.8722,-24.8888 -29.00162,-50.4517 -51.20362,-65.0249 -11.815,-7.7553 -219.93815,-110.95418 -247.56641,-122.75708 -6.74594,-2.8819 -12.59594,-5.2398 -13,-5.2398 -0.40405,0 -0.73465,16.3869 -0.73465,36.4153 0,34.8042 -0.12027,36.5443 -2.7186,39.3333 -4.04156,4.3381 -12.21214,4.0314 -15.85129,-0.595 -2.73087,-3.4718 -2.76344,-4.5275 -2.76344,-89.5754 v -86.06219 l -40.33333,40.66759 c -35.43613,35.7297 -41.59127,41.3645 -50.69369,46.4079 -23.23859,12.8758 -35.24278,15.7926 -69.63965,16.9213 -49.72374,1.6315 -84.21486,-7.7817 -108.4926,-29.6095 -3.91132,-3.5166 -20.96781,-20.8334 -37.90331,-38.4819 -16.93551,-17.64841 -31.27459,-32.28804 -31.86462,-32.53248 -0.59004,-0.24445 -1.0728,37.62468 -1.0728,84.15348 0,83.5666 -0.0337,84.6409 -2.76344,88.1112 -3.69117,4.6925 -11.46463,4.9044 -15.67081,0.4272 -2.82418,-3.0062 -2.89908,-3.988 -2.89908,-38 0,-19.2028 -0.51748,-34.9141 -1.14995,-34.9141 -0.63248,0 -5.28248,1.7059 -10.33334,3.7909 -13.39201,5.5282 -229.08322,114.77688 -238.47742,120.78998 -9.89069,6.3309 -22.88484,18.6928 -28.85232,27.4484 -2.48617,3.6477 -5.00093,6.6334 -5.58835,6.6348 -1.84004,0 -5.16534,-9.5127 -7.77825,-22.2616 -2.43788,-11.8949 -2.50313,-26.0466 -2.16697,-470.00002 l 0.34659,-457.73585 3.03052,-10.66667 c 6.39724,-22.516665 17.65531,-41.131635 35.48078,-58.666665 19.73696,-19.41539 42.29221,-30.54717 68.82204,-33.96602 8.08217,-1.04154 146.1608,-1.33658 481.33333,-1.02849 424.81248,0.39048 470.72048,0.63592 477.49398,2.55285 18.756,5.30804 33.7206,12.55375 46.7123,22.61762 28.2261,21.86505 45.7987,51.30988 50.424,84.490715 1.0761,7.71984 1.3786,135.35408 1.095,462.00003 l -0.3919,451.3334 -2.9201,10.2339 c -11.6874,40.9614 -38.3221,73.4363 -73.1999,89.2507 -17.6038,7.982 -26.2415,9.458 -59.5467,10.1758 l -30.3333,0.6537 z M 553.04999,892.75492 c 26.02343,-8.4785 33.4911,-14.1245 72.76779,-55.01644 53.02592,-55.2066 68.28148,-75.01453 76.79329,-99.70898 2.80258,-8.13085 11.73198,-52.94496 11.76971,-59.06883 0.001,-0.22699 2.85254,1.95575 6.33588,4.85052 12.23815,10.17033 21.02616,12.04649 31.86012,6.80186 4.462,-2.16001 6.4269,-4.26227 9.0349,-9.66666 3.9224,-8.12777 4.1328,-9.07257 18.1666,-81.57303 11.8407,-61.17094 12.4274,-67.91249 6.715,-77.15544 -7.7438,-12.52966 -27.6224,-13.47813 -40.72679,-1.9432 -3.1858,2.80425 -6.12751,5.09864 -6.53712,5.09864 -0.40962,0 -0.93221,-42.45 -1.16133,-94.33334 -0.48051,-108.81191 0.2474,-102.12022 -14.32253,-131.66715 -14.06312,-28.51915 -44.89756,-62.46362 -74.87534,-82.42742 -70.53498,-46.97299 -161.29012,-56.22223 -239.82018,-24.44108 -36.60578,14.81437 -66.97686,37.02478 -92.8187,67.87845 -22.55461,26.92889 -34.69964,50.05849 -39.43794,75.10754 -1.32838,7.02254 -1.74336,30.84601 -1.74336,100.08524 v 90.86893 l -6.07426,-5.68001 c -7.45828,-6.97422 -13.79609,-9.19905 -24.08495,-8.45482 -8.68777,0.62842 -13.32269,3.25602 -18.08659,10.25354 -6.1098,8.97449 -5.70867,13.23745 7.49133,79.61296 6.6936,33.65844 13.46209,65.33238 15.04108,70.38653 3.36746,10.77883 7.54989,16.25747 14.99156,19.63776 10.57886,4.8053 20.83883,2.24735 28.79084,-7.17795 l 3.40234,-4.0327 3.08158,17.002 c 10.17325,56.12881 15.26056,64.7266 77.19613,130.46528 45.51166,48.3063 53.39189,54.8243 75.49049,62.4414 16.34912,5.6353 23.26275,6.3403 58.09378,5.9237 30.09875,-0.36 31.77989,-0.5203 42.66667,-4.0673 z m -64.61871,-30.6135 c -5.62467,-1.9161 -10.48701,-4.5601 -12.33333,-6.7066 -4.12088,-4.7908 -4.03083,-11.33991 0.21072,-15.32464 3.70557,-3.4812 6.02436,-3.31995 18.74132,1.30329 9.54869,3.47141 19.61346,2.9857 26.51482,-1.27957 8.80464,-5.44157 18.15185,-2.47267 18.15185,5.76546 0,5.22466 -2.0664,8.39496 -7.85279,12.04776 -12.38262,7.8168 -28.28941,9.3529 -43.43259,4.1943 z m -7.86826,-112.94755 c -26.47563,-3.4 -58.60072,-15.61033 -62.88922,-23.90338 -1.94309,-3.75751 -1.91991,-4.44135 0.30267,-8.93198 3.60135,-7.27638 7.07933,-7.54445 21.26651,-1.63916 22.74753,9.46848 41.76081,13.32069 65.74671,13.32069 24.53384,0 48.64854,-5.05986 70.20149,-14.73001 4.82573,-2.16516 10.2454,-3.93666 12.04371,-3.93666 4.65845,0 9.8151,5.62609 9.8151,10.70863 0,6.43112 -5.5292,10.80861 -21.33865,16.89386 -30.8395,11.87052 -64.34815,16.17337 -95.14832,12.21801 z m -137.29673,-47.2185 c -22.97047,-8.42487 -33.9094,-36.17571 -22.85721,-57.98616 9.37409,-18.49888 30.76774,-27.18105 50.45073,-20.47438 8.57837,2.92295 19.70122,13.34473 23.65607,22.16506 4.67344,10.42294 4.42123,25.7181 -0.58382,35.40595 -7.66509,14.83667 -21.04455,23.04423 -37.26542,22.86025 -4.55582,-0.0517 -10.58598,-0.9385 -13.40035,-1.97072 z m 155.1084,-36.51446 c -9.8286,-2.98972 -15.64943,-8.09069 -19.87933,-17.42088 -6.54205,-14.43025 -0.48933,-25.64561 11.20375,-20.75993 3.41764,1.42799 4.82753,3.06628 5.86153,6.81112 1.99907,7.24004 5.01502,9.94881 11.07698,9.94881 5.56197,0 8.19528,-2.06869 13.57792,-10.66666 2.46011,-3.92966 3.78568,-4.73025 8.39338,-5.06928 4.60563,-0.33887 5.91798,0.16453 8.28981,3.17982 1.54986,1.97033 2.81793,4.60566 2.81793,5.85631 0,4.4092 -8.13142,18.48354 -12.6858,21.95734 -8.44781,6.44346 -19.74645,8.87357 -28.65617,6.16335 z M 299.71666,579.09839 c -1.1,-0.40211 -3.35,-1.95933 -5,-3.46049 -2.98853,-2.71893 -2.99997,-2.88788 -2.99257,-44.16363 0.005,-25.79757 0.55723,-43.44697 1.46427,-46.76758 1.96819,-7.20536 6.49131,-12.88246 15.00276,-18.83039 l 7.11176,-4.96981 0.87356,-31.98248 c 0.48045,-17.59036 0.8824,-43.43532 0.89321,-57.43323 0.0212,-27.39878 0.7111,-30.83207 6.78077,-33.7425 5.50753,-2.64089 11.56932,0.059 23.19957,10.33306 12.45262,11.0005 27.71829,19.11084 41.33333,21.95954 19.60508,4.10201 47.09234,1.74511 70.29084,-6.0271 14.90083,-4.99224 24.94941,-10.06976 42.48707,-21.46863 8.49156,-5.5192 15.52717,-9.1718 17.66667,-9.1718 4.89809,0 8.89584,4.36315 8.85711,9.66666 -0.0636,8.70393 -11.63885,31.27713 -23.51602,45.8591 -3.30115,4.05291 -5.7412,7.62982 -5.42235,7.94867 0.84832,0.84832 29.33295,-6.68906 40.97002,-10.84117 15.31975,-5.46609 43.9375,-19.55557 56.96656,-28.04655 14.01238,-9.1318 34.40252,-24.33689 49.03344,-36.56462 5.86666,-4.90305 12.07984,-9.66873 13.80706,-10.59041 6.60659,-3.52542 15.51248,1.05549 18.77079,9.65511 0.90362,2.38493 1.42215,19.93071 1.42215,48.12229 v 44.36882 l 5.14092,1.54026 c 7.23856,2.16872 17.31933,11.5113 21.03829,19.49771 3.38094,7.26049 4.205,19.07087 1.89312,27.13193 -1.16536,4.06336 -0.86753,4.79035 3.92652,9.5844 8.68152,8.68151 9.33448,12.92467 9.33448,60.6584 0,39.85243 -0.10774,41.62223 -2.70357,44.40852 -1.48696,1.59607 -4.19861,3.27718 -6.02588,3.73579 -4.05337,1.01733 -10.90954,-1.63565 -12.65484,-4.89678 -0.74213,-1.38668 -1.28238,-19.87401 -1.28238,-43.88334 0,-34.58007 -0.33867,-42.14214 -2.03424,-45.421 -1.11883,-2.16358 -2.22665,-3.93378 -2.46181,-3.93378 -0.23517,0 -2.46835,1.01806 -4.96262,2.26237 -6.7988,3.39169 -20.25768,3.05996 -28.54133,-0.70349 -14.10605,-6.40869 -21.96431,-18.42839 -21.98697,-33.63043 -0.0167,-11.22732 4.39324,-20.50063 13.46402,-28.31217 l 6.52164,-5.61629 6.6e-4,-36.33333 c 3.6e-4,-19.98334 -0.30869,-36.33334 -0.68678,-36.33334 -0.37808,0 -5.02808,3.53096 -10.33333,7.84657 -44.22362,35.97423 -108.99899,64.61944 -164.31257,72.66294 -31.80044,4.6243 -39.78681,4.12705 -41.47069,-2.58206 -1.32142,-5.26496 0.69226,-8.33446 8.33701,-12.70834 4.06411,-2.32525 11.68179,-7.6785 16.92816,-11.8961 9.20798,-7.40237 23.57482,-21.32301 22.00648,-21.32301 -0.421,0 -4.59844,1.73056 -9.28321,3.84568 -12.0093,5.42207 -31.87029,11.57074 -45.89946,14.20979 -16.12469,3.03325 -43.75492,2.09756 -57.72313,-1.95477 -10.65775,-3.09193 -23.79434,-9.23399 -30.47286,-14.2477 -2.33441,-1.75248 -4.58441,-3.18633 -5,-3.18633 -0.4156,0 -0.75563,20.61047 -0.75563,45.80104 0,28.61784 -0.52648,47.3113 -1.40331,49.82657 -0.89078,2.55528 -4.15617,5.91504 -8.94058,9.19897 -4.1455,2.84538 -9.21401,6.57676 -11.26336,8.29195 l -3.72609,3.11853 v 41.10576 c 0,22.60817 -0.37271,42.07702 -0.82824,43.26412 -1.55811,4.06037 -9.10073,6.84999 -13.83842,5.1181 z m 100.30686,-21.04024 c -13.31711,-3.747 -18.08464,-7.45669 -18.08464,-14.07196 0,-8.70003 7.29119,-11.32784 19.69953,-7.09989 8.93127,3.04319 24.14563,1.8784 35.6662,-2.73055 12.10484,-4.8427 17.07871,-2.85187 17.07871,6.83589 0,4.74399 -7.29785,11.22068 -16.82958,14.93588 -10.09678,3.93545 -27.58682,4.92837 -37.53022,2.13063 z m 175.69314,-0.35349 c -19.97507,-5.42346 -28.58884,-16.84917 -17.95519,-23.81661 3.15008,-2.06401 3.9258,-1.99071 13.93229,1.31647 13.28083,4.38936 23.89117,4.55724 36.25966,0.5737 l 9.09262,-2.92848 3.66864,2.72697 c 4.90734,3.64772 5.62966,10.24701 1.59201,14.54489 -7.26076,7.72872 -31.51437,11.67628 -46.59003,7.58306 z m 48,-41.86954 c -14.83931,-6.63616 -39.29593,-9.61563 -60.3231,-7.34896 -10.31649,1.11209 -10.32566,1.11023 -14.33333,-2.89744 -8.24153,-8.24152 -2.68271,-17.85648 11.33625,-19.60803 14.38423,-1.79719 38.63044,0.16847 55.32018,4.48485 26.10511,6.75144 32.30691,10.85769 30.04003,19.88969 -2.10183,8.37433 -10.75611,10.52608 -22.04003,5.47989 z m -258.09638,-1.23493 c -3.42063,-3.77974 -3.35172,-12.38246 0.12668,-15.81489 3.31403,-3.27024 22.54951,-8.87831 39.88937,-11.62969 16.35625,-2.5953 48.53119,-2.01889 54.73485,0.98058 5.67092,2.74189 7.94763,8.03926 5.99627,13.95194 -0.84206,2.55147 -2.56435,5.19206 -3.82732,5.86797 -1.30377,0.69776 -12.06328,0.90889 -24.89322,0.48847 -24.26958,-0.79528 -38.9644,0.95867 -53.12526,6.34098 -9.02516,3.43031 -15.68837,3.36497 -18.90137,-0.18536 z m 23.07171,-161.40425 c -21.11298,-3.12783 -35.70066,-21.69625 -33.97122,-43.24141 1.65576,-20.62735 18.04898,-35.33616 39.45816,-35.40382 12.48902,-0.0395 20.93253,3.66101 29.33778,12.85769 14.65358,16.03336 14.26647,38.40724 -0.94142,54.41126 -8.82186,9.28368 -20.81903,13.31171 -33.8833,11.37628 z m 500.13069,81.39107 c 9.6716,-4.17317 15.7905,-9.9992 20.4567,-19.47755 5.7648,-11.70989 5.9517,-23.25104 0.5553,-34.28093 -15.0479,-30.75673 -57.8359,-30.82736 -73.8185,-0.12185 -4.6231,8.88172 -4.9863,23.63641 -0.8059,32.73441 9.6489,20.99906 32.7949,30.12836 53.6124,21.14592 z m 89.6097,-54.00082 c 10.9458,-3.07121 19.6634,-10.19405 24.93142,-20.37049 3.7535,-7.2509 4.3529,-9.75348 4.3529,-18.17569 0,-8.4222 -0.5994,-10.92478 -4.3529,-18.17568 -4.80462,-9.28116 -13.61902,-17.06178 -22.26262,-19.65146 -8.8847,-2.66193 -23.8554,-1.88178 -31.4116,1.63692 -9.3064,4.33373 -18.7247,15.11271 -21.4768,24.5796 -7.3857,25.40573 11.7985,51.22075 38.7497,52.14336 2.1519,0.0737 7.3134,-0.82029 11.4699,-1.98656 z m -88.3008,-61.96421 c 15.2428,-7.61692 22.9184,-20.10005 22.9184,-37.27319 0,-22.10454 -17.711,-39.16292 -40.7142,-39.21391 -11.4969,-0.0255 -21.8075,4.46976 -29.3167,12.78163 -7.7573,8.58639 -10.6073,16.10427 -10.5349,27.79017 0.077,12.46506 3.9771,20.82603 13.8582,29.70994 8.2155,7.38647 15.2203,10.04574 26.828,10.1848 7.2657,0.087 10.2022,-0.60192 16.9612,-3.97944 z M 1084.8955,310.646 c 8.6448,-3.71886 19.0728,-14.83372 22.013,-23.46284 6.4945,-19.06016 -2.3281,-40.6062 -20.2262,-49.39522 -15.7375,-7.7281 -35.9278,-3.86123 -47.6633,9.12857 -7.4397,8.23489 -10.4828,16.10878 -10.4828,27.1235 0,29.2862 29.2349,48.2746 56.3593,36.60599 z m -99.42312,-49.24984 c 7.9031,-4.00068 16.24502,-12.84509 19.89252,-21.09081 6.7011,-15.14894 1.1992,-36.12406 -12.26772,-46.76906 -21.1166,-16.69171 -51.8401,-9.06852 -63.1698,15.67384 -4.0724,8.8933 -3.9098,23.85819 0.3538,32.57499 4.3255,8.84325 13.4151,17.53439 21.7881,20.83307 9.7456,3.83943 24.4684,3.3008 33.4031,-1.22203 z m -98.2065,-62.88477 c 27.4731,-10.27902 35.2228,-43.83858 15.1515,-65.61329 -7.8481,-8.51428 -16.7793,-12.12187 -30.0341,-12.13185 -8.9579,-0.007 -11.7447,0.55689 -17.3966,3.51848 -14.5396,7.6188 -22.473,20.47291 -22.5085,36.46947 -0.017,7.57851 0.691,10.83563 3.6837,16.95259 9.4319,19.27816 31.3429,28.19818 51.104,20.8046 z M 591.81343,1085.8603 c -3.66715,-4.6621 -3.53732,-10.5009 0.31925,-14.3575 2.35719,-2.3572 5.7305,-3.4606 14.33333,-4.6884 6.18786,-0.8831 24.75065,-4.236 41.25065,-7.4507 74.06013,-14.4296 130.55072,-25.0073 136.84752,-25.6243 8.3984,-0.8229 12.4858,2.2826 12.4858,9.4863 0,9.0111 -0.9727,9.4107 -43.99999,18.0776 -55.18335,11.1155 -148.02939,28.0701 -153.71612,28.0701 -3.55097,0 -5.45761,-0.8907 -7.52044,-3.5131 z m -223.43011,-4.5147 c -19.06666,-3.5098 -58.36753,-10.9393 -87.33526,-16.5101 -28.96773,-5.5708 -53.76389,-10.1288 -55.10257,-10.1288 -1.33868,0 -4.18781,-1.7538 -6.3314,-3.8974 -4.94902,-4.949 -5.12703,-10.3864 -0.50334,-15.3755 2.81867,-3.0413 4.23146,-3.5599 8.33333,-3.0588 5.92413,0.7238 105.14121,19.7145 127.08229,24.3242 8.512,1.7884 23.812,4.4999 34,6.0256 24.41759,3.6567 27.00411,4.544 29.30607,10.0534 2.06289,4.9372 1.46792,7.8016 -2.54689,12.2619 -3.63804,4.0416 -5.80155,3.8712 -46.90223,-3.6945 z m 99.33334,-15.8857 c -28.23588,-8.6201 -38.67436,-41.8882 -19.85245,-63.271 18.07958,-20.53948 52.05138,-16.53748 64.38817,7.5852 4.945,9.6692 5.8664,19.2404 2.85084,29.6135 -2.92051,10.0462 -14.07276,21.7232 -23.95742,25.0846 -6.79188,2.3097 -17.60557,2.7656 -23.42914,0.9877 z m 141.15922,-94.62628 c -9.60327,-3.7563 -15.35192,-8.9282 -19.78551,-17.8006 -7.1716,-14.3517 -4.70384,-29.7898 6.56279,-41.0565 19.49147,-19.4914 52.94407,-11.0725 60.77436,15.295 3.97483,13.3847 1.03296,24.532 -9.16572,34.7306 -10.92518,10.9252 -24.84547,14.1279 -38.38592,8.8315 z"
       id="path1" />
  </g>
</svg>
