<?xml version="1.0" encoding="UTF-8" standalone="no"?>
<!-- Created with Inkscape (http://www.inkscape.org/) -->

<svg
   version="1.1"
   id="svg1"
   width="1365.3333"
   height="1346.6667"
   viewBox="0 0 1365.3333 1346.6667"
   sodipodi:docname="NETEJA FACIAL BOMBER_01 OK.svg"
   inkscape:version="1.4 (86a8ad7, 2024-10-11)"
   xmlns:inkscape="http://www.inkscape.org/namespaces/inkscape"
   xmlns:sodipodi="http://sodipodi.sourceforge.net/DTD/sodipodi-0.dtd"
   xmlns="http://www.w3.org/2000/svg"
   xmlns:svg="http://www.w3.org/2000/svg">
  <defs
     id="defs1" />
  <sodipodi:namedview
     id="namedview1"
     pagecolor="#ffffff"
     bordercolor="#000000"
     borderopacity="0.25"
     inkscape:showpageshadow="2"
     inkscape:pageopacity="0.0"
     inkscape:pagecheckerboard="0"
     inkscape:deskcolor="#d1d1d1"
     showgrid="false"
     inkscape:zoom="0.86658411"
     inkscape:cx="682.56502"
     inkscape:cy="673.33337"
     inkscape:window-width="2560"
     inkscape:window-height="1369"
     inkscape:window-x="-8"
     inkscape:window-y="-8"
     inkscape:window-maximized="1"
     inkscape:current-layer="g1" />
  <g
     inkscape:groupmode="layer"
     inkscape:label="Image"
     id="g1">
    <path
       style="fill:#000000"
       d="m 156.4055,1318.8607 c -28.50464,-5.9948 -52.81502,-19.4806 -75.415192,-41.8353 -21.50172,-21.2682 -35.07315,-43.3799 -42.62966,-69.4558 -7.80724,-26.9412 -7.32403,8.4454 -7.32987,-536.78099 -0.004,-349.23312 0.4276,-504.01643 1.42453,-511.18406 3.05424,-21.95919 12.14515,-45.93093 24.0881,-63.517702 7.29533,-10.74286 25.95808,-30.1121 37.13082,-38.53643 15.954322,-12.02968 37.254152,-21.66124 60.684522,-27.4409 8.74189,-2.1564 41.56674,-2.33108 517.99997,-2.75658 346.71448,-0.30965 512.53648,-0.0123 520.82128,0.93387 65.9306,7.5298 121.9996,60.08011 133.8542,125.453912 1.173,6.46903 1.5382,134.76676 1.4751,518.23466 l -0.084,509.63712 -2.7752,13.6179 c -6.7419,33.0835 -21.6514,59.2553 -47.8958,84.0754 -20.2744,19.1742 -40.8804,30.7545 -68.9374,38.7422 l -10.4583,2.9774 -514.66665,0.2447 c -509.22058,0.2421 -514.80018,0.2166 -527.28655,-2.4094 z m 687.98571,-41.4409 c -1.4338,-1.539 -2.2831,-3.3222 -1.8873,-3.9627 0.3958,-0.6404 0.1165,-0.9996 -0.6207,-0.7981 -1.8526,0.5064 -8.2959,-8.3855 -7.2742,-10.0386 0.4559,-0.7377 0.1663,-0.9312 -0.6441,-0.4303 -1.7186,1.0622 -4.6353,-3.6421 -3.226,-5.2031 0.5242,-0.5807 0.266,-0.663 -0.5738,-0.183 -1.4329,0.819 -3.8168,-2.5801 -3.3514,-4.7786 0.1164,-0.55 -0.3247,-0.85 -0.9804,-0.6667 -0.6556,0.1834 -6.7331,-7.1666 -13.5055,-16.3333 -6.7725,-9.1667 -12.4729,-16.8535 -12.6677,-17.0819 -0.1948,-0.2284 -17.0673,2.9018 -37.4945,6.956 -104.51545,20.7435 -105.28738,20.8572 -111.25577,16.3797 -3.02358,-2.2683 -5.21779,-6.8516 -5.21779,-10.899 0,-4.3986 3.31054,-10.9051 6.34713,-12.4747 1.27575,-0.6594 30.36886,-6.8272 64.65137,-13.7062 34.28246,-6.879 62.33246,-12.9686 62.33336,-13.5325 10e-4,-0.9919 -21.7681,-31.4687 -34.8636,-48.8081 -3.5308,-4.675 -6.0344,-9.175 -5.5635,-10 0.4709,-0.825 0.3704,-1.0604 -0.2233,-0.5232 -2.4549,2.2214 -25.80068,-31.9354 -30.82143,-45.0941 -4.75451,-12.461 -5.56253,-28.0422 -2.58519,-49.8507 1.24866,-9.1461 2.61882,-17.2449 3.04482,-17.9973 0.426,-0.7524 0.30699,-0.9466 -0.26447,-0.4317 -0.92638,0.8349 -7.20416,-5.7484 -11.96988,-12.5525 -1.69193,-2.4155 -2.00247,-2.3635 -8.39902,1.4081 -14.94808,8.8137 -35.25258,16.1577 -56.27078,20.3529 -19.96557,3.985 -52.33167,3.9576 -72.48188,-0.061 -29.62831,-5.9094 -59.42546,-19.4694 -75.91971,-34.54945 -2.00902,-1.8367 -3.97015,-3.0222 -4.35808,-2.6342 -0.38793,0.3879 1.77228,15.64405 4.80047,33.90265 4.34668,26.2086 5.34185,35.1624 4.72708,42.5308 -0.85607,10.2606 -4.61013,22.6082 -9.21199,30.2997 -5.7022,9.5305 -21.55824,31.495 -22.3727,30.9917 -0.4515,-0.2791 -0.82091,0.2634 -0.82091,1.2055 0,0.9421 -4.20815,7.3658 -9.35144,14.2747 -13.55536,18.2089 -31.02034,42.6013 -32.55298,45.4651 -0.95473,1.7839 -0.84298,2.6353 0.40248,3.0665 0.94829,0.3282 27.05104,5.7049 58.00611,11.948 71.49266,14.419 68.08555,13.5283 71.1832,18.6082 1.38869,2.2774 2.52712,6.0446 2.52986,8.3717 0.007,5.655 -5.51698,12.1 -11.29995,13.1849 -3.10304,0.5822 -24.93556,-3.2923 -71.12155,-12.6213 -36.65421,-7.4037 -67.53702,-13.4613 -68.62846,-13.4613 -1.09144,0 -9.74931,10.5012 -19.23971,23.3361 -9.49041,12.8349 -17.70654,22.8849 -18.25808,22.3333 -0.55155,-0.5515 -0.80281,-0.3085 -0.55836,0.5401 0.24444,0.8486 -1.80556,4.583 -4.55556,8.2987 -2.75,3.7157 -5,7.0699 -5,7.4536 0,0.7215 497.23171,1.6859 498.98641,0.9679 0.5425,-0.222 -0.1867,-1.6629 -1.6206,-3.202 z m 210.39859,2.3919 c -0.5946,-2.5936 -171.34319,-175.9722 -183.91419,-186.747 -13.6329,-11.685 -17.5574,-17.5372 -18.2051,-27.1471 -0.2802,-4.1574 2.2367,-35.7589 5.5931,-70.22545 3.3564,-34.4667 6.775,-69.6082 7.5969,-78.0923 1.2827,-13.2424 1.193,-16.4617 -0.6337,-22.7455 -1.5597,-5.3652 -11.4454,-21.3619 -37.0219,-59.9077 -19.1917,-28.9233 -38.1695,-57.6878 -42.1729,-63.9212 -11.6295,-18.1071 -16.9985,-22.6783 -26.6071,-22.6536 -11.1717,0.029 -27.3775,11.408 -34.43546,24.1797 -7.09451,12.8378 -6.42001,17.2202 12.39136,80.5101 8.9425,30.0866 16.6177,56.4961 17.056,58.6878 0.4649,2.3242 -3.6921,32.3146 -9.9748,71.9638 -6.1996,39.12425 -10.7715,72.06075 -10.7709,77.59545 10e-4,15.0612 3.1465,21.4922 23.9461,48.9655 10.0287,13.2465 29.5477,39.6845 43.3754,58.7512 13.8278,19.0667 38.2714,52.2167 54.3191,73.6667 l 29.1777,39 h 85.3557 c 72.77389,0 85.29229,-0.2772 84.92469,-1.8804 z m 91.4902,-2.4987 c -0.4928,-1.6248 -3.3743,-7.7543 -6.4033,-13.6209 -3.0291,-5.8667 -5.3098,-11.2667 -5.0683,-12 0.2416,-0.7334 0.023,-0.9173 -0.4855,-0.4087 -0.5085,0.5085 -4.2307,-3.225 -8.2714,-8.2967 -4.0408,-5.0717 -12.3346,-13.3779 -18.4307,-18.4582 -6.0961,-5.0803 -10.674,-9.693 -10.173,-10.2504 0.501,-0.5575 0.2735,-0.6515 -0.5056,-0.209 -1.8699,1.062 -8.8982,-3.5881 -7.5942,-5.0245 0.5559,-0.6124 0.3667,-0.7473 -0.4203,-0.2999 -0.7871,0.4474 -4.9871,-1.3339 -9.3334,-3.9585 -4.3462,-2.6246 -22.9023,-12.5758 -41.2356,-22.1138 -83.09589,-43.2309 -106.13949,-55.676 -105.37649,-56.9105 0.2888,-0.4673 -0.6334,-0.9369 -2.0492,-1.0435 -3.44,-0.2591 -3.2437,0.73 0.7717,3.8885 1.8403,1.4476 2.9476,3.2767 2.4607,4.0646 -0.4906,0.7937 -0.2664,1.0501 0.5026,0.5748 1.4729,-0.9103 62.3148,61.1165 62.418,63.6336 0.033,0.8133 0.7037,1.3554 1.4897,1.2045 0.7859,-0.1509 2.85869,1.3448 4.60599,3.3238 l 3.177,3.5981 -3.3333,-2.6571 -3.33339,-2.6571 2.51159,2.9685 c 1.3813,1.6327 2.9444,2.701 3.4736,2.374 1.2592,-0.7782 67.4602,67.3949 66.9818,68.9772 -0.2015,0.6665 0.1683,0.8814 0.8218,0.4775 0.6535,-0.4039 2.3184,0.5912 3.6997,2.2112 2.4805,2.9093 2.4786,2.9212 -0.1551,0.9686 -2.4657,-1.828 -2.5297,-1.8023 -0.849,0.3416 0.9998,1.2753 2.3083,2.0155 2.9079,1.6449 0.5996,-0.3705 1.3737,-0.2139 1.7202,0.3481 0.3465,0.5619 15.4219,0.8511 33.5008,0.6427 l 32.8707,-0.3791 z m -831.92126,-6.4986 c 10.94577,-15.5994 17.60744,-23.7371 18.61052,-22.734 0.51977,0.5197 0.74503,0.3158 0.50059,-0.4532 -0.63182,-1.9878 9.70024,-16.6698 11.11539,-15.7951 0.64509,0.3987 1.00803,0.048 0.80653,-0.7787 -0.52301,-2.1464 75.38551,-106.5334 76.83964,-105.6675 0.66331,0.395 0.80139,0.063 0.30685,-0.7367 -0.49454,-0.8002 5.74072,-10.2791 13.85614,-21.0643 16.12777,-21.4333 18.22988,-25.3027 20.22354,-37.2262 1.22274,-7.3127 0.39949,-13.4979 -9.58331,-71.99985 -6.00652,-35.2 -11.51701,-68.2 -12.24553,-73.3334 l -1.32457,-9.3333 11.48778,-38.6667 c 6.31828,-21.2666 13.09208,-43.4666 15.05288,-49.3333 2.88624,-8.6355 3.5767,-13.2056 3.62599,-24 0.0565,-12.3727 -0.25496,-14.0003 -4.32298,-22.591 -8.42789,-17.7977 -20.58449,-28.435 -30.91311,-27.0497 -9.76581,1.3099 -8.53088,-0.2354 -48.72864,60.974 -8.90957,13.5667 -24.35746,37.0596 -34.32863,52.2066 -9.97117,15.1469 -18.83633,29.8994 -19.70036,32.7832 -1.24334,4.15 -1.13167,9.9462 0.53548,27.7935 1.15854,12.4025 3.02001,33.0501 4.1366,45.8834 1.11658,12.8333 3.50979,39.92315 5.31824,60.19965 3.4011,38.1336 3.33531,40.1349 -1.63995,49.8872 -3.07841,6.0342 -21.15869,25.4422 -23.17796,24.88 -0.72381,-0.2015 -0.89758,0.3107 -0.38617,1.1382 0.5587,0.904 -32.39783,34.7076 -82.56755,84.6897 -45.92357,45.7519 -83.4974,83.3611 -83.4974,83.5761 0,0.2151 1.05,0.4787 2.33333,0.586 1.28333,0.1072 6.83333,1.3916 12.33333,2.8542 9.36018,2.4891 14.43612,2.6641 79.33333,2.7357 l 69.33333,0.076 z m 890.29276,6.9733 c 19.3622,-4.952 43.9937,-20.3257 55.8553,-34.8619 13.1964,-16.1719 22.3257,-35.2523 25.9631,-54.2629 1.609,-8.41 1.8874,-85.1411 1.8794,-518.08806 -0.01,-498.83846 -0.057,-508.41569 -2.603,-519.03424 -5.0487,-21.05768 -14.9852,-38.0945 -31.2031,-53.499882 -19.1539,-18.19434 -40.1651,-27.51552 -67.18,-29.80299 -10.1554,-0.85991 -192.59249,-1.18106 -518.33782,-0.91245 l -502.66663,0.4145 -10.66667,2.99736 c -32.56375,9.15048 -58.637992,29.856722 -72.522932,57.592372 -3.61882,7.22872 -7.68159,17.8425 -9.02837,23.58619 -2.35336,10.03649 -2.44869,30.11708 -2.44869,515.77643 0,277.93332 0.49775,509.38327 1.10612,514.33327 0.78207,6.3633 1.66044,9 2.99821,9 1.04065,0 5.36583,-2.6976 9.61153,-5.9947 11.7015,-9.087 26.453302,-16.893 126.284132,-66.824 50.59999,-25.3078 93.19999,-47.1988 94.66666,-48.6467 2.43749,-2.4061 2.65083,-4.261 2.4824,-21.5835 -0.16285,-16.7484 -10.26284,-141.66395 -11.8008,-145.95105 -0.32885,-0.9166 -1.78577,-1.6666 -3.23759,-1.6666 -6.20323,0 -24.44924,-7.1111 -33.63896,-13.1102 -29.80493,-19.4569 -44.49786,-56.2346 -35.89859,-89.8574 1.41522,-5.5335 4.71522,-14.3145 7.33333,-19.5134 2.61812,-5.1988 4.76021,-10.1075 4.76021,-10.9081 0,-0.8005 -1.43455,-3.3655 -3.18789,-5.6999 -4.7996,-6.3902 -12.15208,-21.7703 -15.32933,-32.0663 -18.28204,-59.24334 19.36966,-132.343 77.91624,-151.27206 l 11.05016,-3.5727 0.54342,-74 c 0.51312,-69.8736 0.70301,-74.68926 3.40541,-86.36056 10.82395,-46.74722 34.06786,-86.90154 70.41275,-121.63946 43.30705,-41.39225 97.22287,-67.78073 161.26736,-78.93048 14.93501,-2.60009 21.82694,-2.99725 51.25519,-2.95367 29.14954,0.0432 36.55635,0.48523 51.91908,3.09872 64.31683,10.94149 120.82628,37.94821 161.95078,77.39874 24.1366,23.15413 40.5875,45.55016 54.1146,73.67076 9.0188,18.74869 13.2523,30.78003 17.4938,49.71594 2.852,12.73246 3.0098,16.61539 3.5025,86.1619 l 0.5159,72.82857 8.5239,2.1035 c 13.5529,3.34451 23.1982,8.59999 32.0752,17.47695 17.5081,17.50817 21.4443,37.12557 15.3173,76.34006 -1.5105,9.66769 -2.7464,18.67315 -2.7464,20.01212 0,1.95501 2.1068,2.90803 10.6972,4.83882 31.7445,7.13503 60.19479,32.33875 71.00759,62.90475 6.7592,19.1072 7.9085,41.1951 2.9877,57.4168 -3.2506,10.716 -3.3545,10.5721 9.4467,13.0873 21.8233,4.2879 38.3305,13.2692 53.0325,28.8541 24.5764,26.0523 32.0166,61.0695 20.1971,95.0567 -4.7569,13.6785 -10.8544,23.0641 -22.7649,35.0413 -19.1933,19.30065 -42.3401,28.21495 -69.8076,26.88425 -10.3238,-0.5002 -16.92049,-1.6258 -24.49109,-4.1792 -5.6987,-1.922 -11.1775,-3.4946 -12.175,-3.4946 -1.0277,0 -2.447,2.5152 -3.2752,5.8044 -0.8039,3.1925 -4.1538,11.1825 -7.4443,17.7556 -9.575,19.1268 -25.6685,35.0033 -45.2902,44.6791 -4.8329,2.3833 -8.7872,5.0531 -8.7872,5.933 0,2.3314 4.4975,4.726 96.36999,51.3106 46.0367,23.3433 87.8787,44.881 92.9821,47.8616 22.9436,13.3997 45.3085,34.2012 59.119,54.9862 7.7094,11.6028 18.5936,32.9048 21.1185,41.3321 1.4819,4.9465 1.5787,5.004 8.4082,5.004 3.7999,0 11.4327,-1.1569 16.9617,-2.571 z M 1103.0254,805.43605 c -4.5107,-2.3134 -6.781,-4.6519 -9.1465,-9.4209 -4.1067,-8.2798 -3.1174,-14.0473 3.6548,-21.3075 4.3048,-4.6149 5.9614,-5.4521 11.9222,-6.0248 5.8463,-0.5618 7.718,-0.1389 12.0377,2.7197 9.2681,6.1334 12.2063,17.9655 6.5318,26.3032 -6.8323,10.0387 -15.3586,12.6751 -25,7.7303 z m -948.26237,-0.2791 c -12.7932,-3.4386 -23.08465,-13.8033 -26.57456,-26.7638 -4.45444,-16.5426 7.91988,-36.1195 26.18737,-41.43 20.59031,-5.9858 43.22464,11.8305 43.27393,34.0623 0.0482,21.746 -22.42489,39.6312 -42.88674,34.1315 z M 1183.5837,686.51135 c -18.3685,-8.55315 -26.5289,-29.22216 -18.0777,-45.78796 4.0006,-7.84186 13.4879,-15.856 21.6347,-18.27534 8.7201,-2.58959 9.7197,-2.58846 18.5065,0.021 13.2566,3.93679 25.3782,19.8971 25.3782,33.41511 0,6.30323 -5.5376,17.80169 -11.3931,23.65719 -10.1342,10.13425 -23.6437,12.74632 -36.0486,6.97005 z m -122.3796,-53.60117 c -22.5551,-5.45941 -41.1071,-23.40217 -46.8015,-45.26467 -8.4811,-32.5612 11.5358,-65.82788 44.964,-74.727 19.813,-5.27453 39.9855,0.35362 56.4412,15.74709 22.4788,21.02781 26.0067,53.65532 8.5458,79.03394 -8.5026,12.35804 -24.2935,22.63397 -39.7272,25.85248 -8.916,1.85932 -13.6217,1.73037 -23.4223,-0.64184 z M 191.45771,543.50874 c -13.52636,-4.79293 -24.88173,-20.75048 -24.8711,-34.95102 0.0103,-13.81248 8.90866,-27.53907 22.12015,-34.12264 18.09547,-9.01735 40.24587,0.14186 49.40053,20.42717 12.48809,27.67166 -17.52284,58.96726 -46.64958,48.64649 z M 92.919158,417.84482 c -2.25844,-1.37719 -4.76887,-4.22495 -5.57875,-6.32835 -2.38265,-6.18821 -2.88177,-22.94822 -0.80725,-27.1067 6.83957,-13.71025 24.562162,-10.84627 26.510502,4.28409 0.99072,7.69375 1.04385,20.31857 0.098,23.29855 -1.12258,3.53693 -8.59959,8.3682 -12.94033,8.36139 -1.746772,-0.003 -5.023772,-1.13178 -7.282212,-2.50898 z M 1013.95,417.66087 c -7.7285,-4.71195 -8.0792,-7.03949 -7.2587,-48.18424 l 0.7371,-36.96521 -38.59709,-0.40965 c -42.7236,-0.45346 -43.0671,-0.52056 -48.5313,-9.48211 -2.4332,-3.99057 -2.5983,-6.9916 -2.603,-47.30371 -0.01,-47.76011 0.3467,-50.10565 8.2481,-54.923 4.1569,-2.53441 6.6499,-2.69117 42.8723,-2.69586 l 38.45869,-0.005 -0.4587,-38.39124 c -0.51,-42.6885 -0.4935,-42.78103 8.6138,-48.3341 3.989,-2.43225 6.9833,-2.59803 46.9275,-2.59803 59.9262,0 55.6481,-3.85848 55.8544,50.37584 l 0.1456,38.28087 34.6667,-0.4846 c 38.3709,-0.53637 43.2221,0.10684 49.3968,6.54928 l 3.9365,4.10721 0.3823,45.64427 0.3822,45.64427 -3.0987,4.60312 c -5.6058,8.32748 -6.9584,8.5754 -48.3325,8.85924 l -37.3333,0.25612 v 38.41055 c 0,41.92689 -0.09,42.47161 -7.7518,47.14358 -3.9799,2.42674 -7.0271,2.59033 -48.2482,2.59033 -41.7692,0 -44.2235,-0.13627 -48.4087,-2.68794 z m 69.3336,-71.63543 c 0.373,-35.00386 0.6275,-38.6565 2.9306,-42.05414 4.5609,-6.72845 5.6313,-6.90253 46.8112,-7.61253 l 38.6666,-0.66666 0.3672,-21 0.3672,-21 h -38.2098 c -54.4439,0 -51.1912,3.29564 -51.1912,-51.86818 v -37.46516 h -20.6667 -20.6667 v 37.46516 c 0,42.52358 -0.4081,44.6482 -9.4637,49.26802 -4.688,2.39167 -8.041,2.60016 -41.81649,2.60016 h -36.7198 v 21.33333 21.33333 h 38.4869 c 53.06349,0 49.51309,-3.62837 49.51309,50.60046 v 37.39955 h 20.5916 20.5916 z m -839.65045,51.88227 c -3.3113,-2.04711 -6.54514,-7.88524 -17.55688,-31.69579 -7.42387,-16.05256 -13.84953,-30.29122 -14.27924,-31.64145 -1.84734,-5.80475 5.56015,-14.21169 12.52215,-14.21169 3.85818,0 9.85759,5.79814 11.91271,11.51307 1.01929,2.83448 7.1634,16.25359 13.65356,29.82026 6.49017,13.56667 11.80173,25.7072 11.80347,26.97897 0.004,3.23269 -6.66089,10.10993 -10.66351,11.00256 -2.06032,0.45948 -4.88346,-0.21494 -7.39226,-1.76593 z M 88.692078,350.01615 c -3.96751,-4.13284 -4.3437,-5.26568 -4.45613,-13.41898 -0.0675,-4.89778 -0.31158,-13.40506 -0.5423,-18.90506 -0.23072,-5.5 -0.62546,-19.19793 -0.8772,-30.43984 l -0.4577,-20.43985 4.35437,-3.89349 c 7.06746,-6.31942 17.580072,-4.8234 21.823572,3.10566 1.94033,3.62553 2.1618,6.73835 3.26128,45.83742 0.83782,29.79423 0.72347,32.47658 -1.54852,36.32275 -4.55682,7.71408 -15.053912,8.60585 -21.557372,1.83139 z M 196.52366,296.69211 c -2.3902,-2.26044 -8.09302,-12.87104 -14.86985,-27.66667 -20.3645,-44.46113 -19.8729,-43.19022 -18.37186,-47.49612 1.71165,-4.91004 5.86261,-7.8456 11.04014,-7.80757 7.93733,0.0583 7.31425,-0.99993 38.18524,64.85268 2.11828,4.51862 3.85141,9.22862 3.85141,10.46667 0,3.55824 -8.57847,11.31767 -12.51229,11.31767 -1.93007,0 -5.151,-1.61278 -7.32279,-3.66666 z m 179.16841,-56.09703 c -3.66667,-2.04346 -8.01684,-4.57703 -9.66706,-5.63015 -4.10519,-2.61983 -7.27574,-9.70837 -6.22136,-13.90937 1.07723,-4.29203 6.57336,-8.69679 10.85158,-8.69679 3.77504,0 19.61247,8.49691 24.03684,12.89596 4.31006,4.28539 3.95171,10.35746 -0.89744,15.20661 -4.94183,4.94183 -9.41589,4.97489 -18.10256,0.13374 z M 88.761898,236.34305 c -4.81143,-1.93763 -7.4414,-8.86945 -7.83329,-20.64625 -1.23494,-37.11123 -1.14695,-38.4476 2.84385,-43.19039 3.30767,-3.93095 10.56063,-6.5436 14.24292,-5.13057 0.92219,0.35387 2.119422,0.5698 2.660522,0.47984 0.54109,-0.09 2.43297,1.96905 4.20417,4.5756 3.01223,4.4329 3.26512,6.21994 3.91303,27.65102 0.38771,12.82453 0.13374,24.93614 -0.57687,27.50974 -2.12533,7.69733 -11.546992,11.93541 -19.454332,8.75101 z M 300.26835,192.6869 c -14.98362,-9.35287 -29.50217,-18.33808 -32.26345,-19.96714 -5.49762,-3.24341 -8.23612,-8.49556 -6.99921,-13.42378 1.17942,-4.69918 6.70932,-9.60388 10.82809,-9.60388 4.20819,0 16.92169,7.13916 46.73669,26.24459 23.52679,15.07596 25.71613,17.54887 22.43828,25.34457 -1.981,4.71143 -6.68892,8.41084 -10.70374,8.41084 -1.53654,0 -15.05304,-7.65234 -30.03666,-17.0052 z m -151.81071,-2.66147 c -4.58928,-4.26746 -24.09889,-46.47771 -24.09889,-52.13944 0,-4.70564 2.94027,-8.76475 7.80997,-10.78185 3.24273,-1.34318 4.62544,-1.25536 8.04055,0.51066 2.2684,1.17303 4.9777,3.47031 6.02067,5.10504 4.68275,7.33972 20.79547,45.3491 20.79547,49.05585 0,5.19089 -6.32668,11.91641 -11.20973,11.91641 -1.88049,0 -5.18661,-1.64751 -7.35804,-3.66667 z m 77.23444,-44.76068 c -3.63626,-1.90276 -27.032,-16.53958 -34.91137,-21.8412 -6.33565,-4.26294 -8.35676,-9.71093 -5.8385,-15.73797 2.05765,-4.92467 5.5256,-7.32682 10.57762,-7.32682 3.7329,0 39.74866,22.25922 44.50558,27.50627 3.98012,4.39021 3.81206,9.99072 -0.45186,15.0581 -3.79443,4.50943 -8.28961,5.26771 -13.88147,2.34162 z M 195.33846,1195.4338 c 37.92146,-37.9088 68.7491,-69.124 68.50587,-69.3673 -0.24323,-0.2432 -17.17699,8.1755 -37.63058,18.7083 -20.45358,10.5328 -51.58834,26.535 -69.18834,35.5606 -17.6,9.0255 -35.29999,18.5183 -39.33333,21.095 -4.03333,2.5767 -8.05694,4.6897 -8.94135,4.6955 -0.8844,0.01 -1.3176,0.4805 -0.96265,1.0548 0.71258,1.153 -4.77992,4.5981 -6.52844,4.0949 -0.6045,-0.1739 -0.77806,0.2032 -0.38569,0.8381 0.39238,0.6349 -1.059022,2.4647 -3.225332,4.0663 -2.16632,1.6017 -4.92674,4.42 -6.13428,6.2629 -2.12546,3.2438 -2.03848,3.5788 2.72533,10.4956 2.70648,3.9297 8.025792,10.3569 11.820702,14.2826 3.79492,3.9257 6.74965,7.6322 6.56608,8.2367 -0.18358,0.6046 0.14485,0.8034 0.72983,0.4418 0.72489,-0.448 12.39262,7.1036 13.01827,8.4258 0.009,0.018 31.04245,-30.9829 68.96391,-68.8916 z M 621.95608,995.65495 c 22.37598,-3.9141 45.66115,-13.6798 62.71639,-26.3029 l 7.64709,-5.6599 0.0196,-9.5262 c 0.0117,-5.6826 1.08759,-12.9841 2.66656,-18.0962 3.21504,-10.4091 12.64488,-25.6075 15.03525,-24.2329 0.9081,0.5222 1.18758,0.4398 0.62106,-0.1832 -0.56652,-0.623 1.3778,-3.5861 4.32071,-6.5847 l 5.35075,-5.452 -14.27186,-47.2957 -14.27186,-47.2958 -0.0489,-16 c -0.045,-14.7415 0.25054,-16.6816 3.75767,-24.6666 2.09358,-4.7667 4.68744,-11.3667 5.76412,-14.6667 5.05992,-15.5085 8.97423,-24.0654 14.94323,-32.6667 3.56235,-5.13332 7.19865,-9.16845 8.08067,-8.96695 0.88202,0.2015 1.28041,-0.15668 0.88531,-0.79597 -0.99714,-1.6134 6.44374,-8.51177 7.82634,-7.25573 0.6167,0.56027 0.7151,0.30972 0.2186,-0.55677 -1.0899,-1.902 4.3036,-5.99164 6.3592,-4.82186 0.7971,0.45366 1.0197,0.34898 0.4945,-0.23261 -2.6462,-2.93077 22.7541,-15.57597 37.5313,-18.68446 24.1855,-5.08756 49.333,-0.54677 71.6874,12.94433 3.8119,2.30046 6.5692,4.76752 6.1274,5.48236 -0.4418,0.71483 -0.1745,0.9111 0.594,0.43615 0.7685,-0.47496 4.7062,1.8606 8.7506,5.19011 l 7.3533,6.05367 6.4554,-3.87516 c 3.5505,-2.13134 9.1872,-4.968 12.5261,-6.30369 l 6.0706,-2.42853 3.7499,-25.05529 c 2.0624,-13.78041 3.7498,-28.04804 3.7498,-31.70584 0,-12.7507 -8.5521,-21.42375 -21.1251,-21.42375 -5.9642,0 -7.8075,0.63022 -11.6109,3.96965 -2.4867,2.18331 -4.9576,3.53331 -5.4909,3 -0.5333,-0.5333 -0.8018,-0.36965 -0.5967,0.36368 0.6723,2.40353 -12.141,27.17533 -15.1448,29.27929 -4.2628,2.98575 -10.9307,2.56537 -15.0043,-0.94595 l -3.4804,-3 0.094,-40 c 0.1024,-43.52841 -0.6898,-50.06012 -7.5191,-62.00001 -4.302,-7.52132 -14.2792,-17.99035 -20.5049,-21.51581 -2.6081,-1.47692 -5.4392,-3.80161 -6.2913,-5.16598 -1.0585,-1.69504 -2.0094,-21.82659 -3.0024,-63.56611 -0.8806,-37.01241 -2.0221,-62.55521 -2.8966,-64.81498 -0.7938,-2.05125 -3.2023,-4.63921 -5.3523,-5.75102 -4.4213,-2.28635 -4.6788,-2.14418 -20.3829,11.2567 -4.3285,3.69363 -8.4417,6.36232 -9.1405,5.93043 -0.6988,-0.43189 -0.8679,-0.13361 -0.3756,0.66286 1.0813,1.74968 -4.3699,5.85785 -6.2396,4.70229 -0.7271,-0.44939 -0.9126,-0.15447 -0.4121,0.65537 0.9056,1.46524 -4.1653,5.12703 -6.2637,4.52315 -0.6045,-0.17397 -0.7616,0.22985 -0.349,0.89738 0.9369,1.51591 -24.0402,18.3003 -45.03626,30.26401 -38.88218,22.15535 -74.61232,34.7221 -120.90611,42.52425 -37.97828,6.40069 -58.38176,7.08904 -55.15042,1.86061 0.5915,-0.95706 0.36813,-1.18043 -0.58893,-0.58893 -2.41127,1.49025 -4.34008,-5.08452 -2.79331,-9.52159 1.06878,-3.0659 4.15002,-5.12048 16.94803,-11.30102 17.48496,-8.444 29.96445,-17.30896 43.29122,-30.75244 8.42808,-8.5019 18.17031,-21.41463 20.06501,-26.59494 1.46096,-3.99443 -1.59199,-9.99665 -6.01692,-11.82952 -4.56174,-1.88953 -4.03631,-2.10862 -26.95011,11.23758 -20.36903,11.86399 -41.53986,19.36019 -64.74743,22.92585 -32.36036,4.97192 -61.53991,0.18583 -92.27047,-15.1344 -8.5821,-4.27846 -15.38856,-7.43074 -15.12547,-7.00505 0.7574,1.22549 -1.79615,105.55583 -2.64933,108.24398 -0.42181,1.32901 -3.96225,4.69059 -7.86763,7.47019 -3.90539,2.77959 -9.20129,7.57517 -11.76866,10.65683 -2.56737,3.08166 -5.1355,5.18166 -5.70696,4.66666 -0.57145,-0.51499 -0.66887,-0.28581 -0.21649,0.50928 0.45238,0.7951 -0.39614,3.90875 -1.88561,6.91924 -4.44261,8.97931 -6.47678,18.91696 -6.49355,31.72331 l -0.0158,12.08818 8.1468,3.89381 c 11.07806,5.29483 15.02472,10.11695 14.07506,17.19723 -0.53102,3.95905 -2.00025,6.56728 -5.51251,9.78603 -2.76823,2.53689 -5.475,3.99402 -6.41561,3.4537 -0.89489,-0.51406 -1.18528,-0.44666 -0.6453,0.14977 0.87559,0.96715 -2.44098,5.25944 -13.14313,17.00978 -2.64187,2.90061 -4.52309,3.66666 -9.00437,3.66666 -7.14816,0 -9.82451,-2.41979 -16.29477,-14.73272 -5.86209,-11.15557 -11.54106,-15.99869 -19.85925,-16.93627 -7.42583,-0.837 -12.8455,1.31991 -17.96361,7.14912 -6.16062,7.01656 -7.177,12.99148 -4.67737,27.49644 5.50078,31.92022 18.18447,98.05222 19.39084,101.10272 1.94057,4.9069 7.65428,7.8841 12.1472,6.3293 2.90776,-1.0062 4.11428,-2.9072 6.44618,-10.1566 1.57787,-4.9052 4.39557,-11.7358 6.26155,-15.179 4.40233,-8.1235 16.19979,-21.34274 18.03496,-20.20854 0.81346,0.50274 1.03894,0.25569 0.52524,-0.5755 -1.09838,-1.77722 8.61328,-8.64862 18.19267,-12.87206 18.81814,-8.2967 39.72082,-8.03356 58.58053,0.73746 3.45682,1.60764 5.91411,3.5233 5.46066,4.257 -0.45346,0.73371 -0.20672,0.95222 0.54831,0.48559 2.51143,-1.55215 11.94032,6.74643 17.19098,15.13015 2.84988,4.5504 6.75852,9.979 8.68587,12.0634 1.92735,2.0844 3.12735,4.213 2.66667,4.7301 -0.46068,0.5172 -0.16014,0.5535 0.66787,0.081 2.93366,-1.6748 18.94971,13.4026 16.78418,15.8005 -0.52598,0.5825 -0.24286,0.65 0.62914,0.1501 2.02191,-1.1592 10.05602,13.1246 13.02001,23.1481 3.33362,11.2735 4.56727,24.1573 3.34235,34.9062 -1.12212,9.8468 -3.2502,17.3619 -21.95511,77.5322 l -10.29125,33.105 5.14927,7.4967 c 2.83209,4.1232 4.99927,7.9759 4.81593,8.5616 -0.18333,0.5857 0.14779,0.9149 0.73582,0.7316 0.58803,-0.1833 3.09713,2.0667 5.57578,5 9.86859,11.6789 23.75422,25.1739 31.08076,30.2063 16.01454,11 41.36863,20.7325 61.60764,23.649 13.11921,1.8906 37.8314,1.6156 50.26402,-0.5591 z m -44.93069,-128.708 c -23.46706,-3.1608 -46.463,-12.6841 -58.17521,-24.0921 -5.62434,-5.4783 -6.49145,-7.0332 -6.49145,-11.6405 0,-9.6386 8.6735,-16.5383 16.90746,-13.4499 6.09091,2.2847 13.78702,8.1273 12.8554,9.7595 -0.47139,0.8258 -0.38779,1.0785 0.18576,0.5614 0.57355,-0.5171 3.91657,0.516 7.42891,2.2959 10.00423,5.0695 24.81258,8.7327 38.62246,9.5542 23.12452,1.3756 43.06924,-3.6276 60.53639,-15.1858 14.70848,-9.7327 23.15235,-9.4658 27.43241,0.8672 3.9548,9.5477 -3.28098,19.6513 -20.18427,28.1841 -23.11503,11.6684 -53.09888,16.6504 -79.11786,13.146 z m 6.66667,-91.483 c -6.65103,-1.7721 -15.22336,-6.2044 -14.44266,-7.4676 0.50643,-0.8194 0.20309,-0.9802 -0.74446,-0.3946 -0.97697,0.6038 -3.91027,-1.3228 -7.53934,-4.9519 -5.13524,-5.1352 -5.94021,-6.6949 -5.94021,-11.5095 0,-11.7697 11.79363,-16.1803 21.61576,-8.0841 5.35769,4.4162 14.07977,7.9704 19.55187,7.9672 4.00088,0 9.40071,-2.7698 17.55739,-8.998 5.51783,-4.2132 13.27498,-5.9203 13.27498,-2.9213 0,0.7766 0.56423,1.0633 1.25384,0.6371 2.42896,-1.5012 6.74616,4.958 6.74616,10.0933 0,6.1863 -1.1804,9.4428 -3.0124,8.3106 -0.81539,-0.504 -1.00402,-0.2249 -0.4519,0.6684 1.42989,2.3136 -5.44762,8.0679 -15.20237,12.7195 -7.19203,3.4295 -10.4816,4.176 -19.33333,4.3871 -5.86667,0.1399 -11.86667,-0.065 -13.33333,-0.4562 z M 477.02539,655.5164 c -13.90784,-2.14949 -34.39704,-11.18497 -39.19491,-17.28447 -4.15454,-5.28165 -3.82414,-13.82377 0.71007,-18.35798 4.92225,-4.92226 10.89589,-4.63151 21.02338,1.02324 19.81269,11.06254 33.96877,11.47799 53.3909,1.5669 6.63881,-3.38778 13.45036,-6.14738 15.13677,-6.13245 8.32439,0.0737 14.39035,7.74438 12.72177,16.08724 -1.48707,7.43536 -14.83023,16.61734 -30.12922,20.73318 -7.47065,2.0098 -27.05262,3.38533 -33.65876,2.36434 z m 206.66666,-1.26648 c -11.12265,-2.46683 -26.76319,-9.68462 -31.71385,-14.63527 -1.95509,-1.9551 -3.90909,-5.44372 -4.34222,-7.7525 -0.95463,-5.0886 1.38838,-12.07339 3.59292,-10.71091 0.93117,0.5755 1.18141,0.36972 0.63182,-0.51954 -0.50051,-0.80984 0.26734,-2.10255 1.70633,-2.87267 4.70818,-2.51975 11.02936,-1.49648 19.3302,3.12915 10.07292,5.61312 20.61201,8.80395 29.07886,8.80395 7.64632,0 20.38688,-4.04004 28.1045,-8.91194 3.0316,-1.91376 8.0557,-3.76627 11.1647,-4.1167 4.9533,-0.55832 6.1555,-0.13434 9.7164,3.42651 7.4887,7.48872 4.6899,16.92717 -7.1249,24.02725 -16.852,10.12718 -41.4696,14.27454 -60.14476,10.13267 z M 413.5895,583.12802 c -5.18683,-5.18683 -5.16513,-10.56595 0.0667,-16.52464 12.14921,-13.83718 60.53234,-23.31529 101.08549,-19.80234 19.01513,1.6472 22.67684,2.61112 26.82236,7.06082 3.16655,3.3989 3.78171,12.43427 1.08563,15.94581 -3.9254,5.11269 -7.12778,5.59808 -25.36793,3.84502 -30.82303,-2.9624 -63.59616,0.75687 -81.82151,9.28554 -11.26858,5.2732 -16.73982,5.32068 -21.87071,0.18979 z m 339.34101,-0.21837 c -13.5896,-6.54454 -30.16991,-9.49204 -54.5718,-9.70127 -11.73333,-0.10061 -26.56042,0.33614 -32.94909,0.97054 l -11.61577,1.15346 -4.0509,-4.0509 c -8.28353,-8.28353 -3.48838,-20.05928 9.28362,-22.79838 11.30082,-2.4236 42.19799,-3.25775 57.78578,-1.56009 29.28756,3.1897 56.16266,13.04576 60.52676,22.19726 2.4884,5.21822 1.4712,10.24147 -2.974,14.68668 -4.3511,4.3511 -11.1252,4.06753 -21.4346,-0.8973 z"
       id="path1" />
  </g>
</svg>
